<?xml version="1.0" standalone="no"?>
<!DOCTYPE svg PUBLIC "-//W3C//DTD SVG 1.1//EN" "http://www.w3.org/Graphics/SVG/1.1/DTD/svg11.dtd" >
<svg>
<metadata></metadata>
<defs>
<font id="FSAlbertWeb-Bold" horiz-adv-x="344" >
  <font-face 
    font-family="FS Albert Web"
    font-weight="700"
    font-stretch="normal"
    units-per-em="1000"
    panose-1="2 0 8 3 4 0 0 2 0 4"
    ascent="770"
    descent="-230"
    x-height="485"
    cap-height="692"
    bbox="-188.083 -260 1086 1046.1"
    underline-thickness="50"
    underline-position="-50"
    unicode-range="U+000D-FB04"
  />
<missing-glyph horiz-adv-x="535" 
d="M20 693h495v-693h-495v693zM436 644h-337l169 -253zM466 94v505l-169 -252zM436 50l-168 252l-169 -252h337zM70 94l168 253l-168 252v-505z" />
    <glyph glyph-name="fi" unicode="fi" horiz-adv-x="578" 
d="M509 25q0 -25 -24 -25h-71q-25 0 -25 25v377h-174v-374q0 -14 -5.5 -21t-19.5 -7h-72q-24 0 -24 26v376h-54q-14 0 -18 4.5t-4 20.5v38q0 20 19 20h57v29q0 44 9.5 80.5t31.5 65.5q24 32 67.5 50t103.5 18q36 0 70.5 -6t55.5 -14q11 -5 14.5 -10t1.5 -16l-8 -51
q-2 -9 -6.5 -13t-17.5 -1q-20 5 -45.5 8.5t-45.5 3.5q-29 0 -48.5 -6.5t-32.5 -18.5q-29 -27 -29 -87v-32h270q12 0 18 -4.5t6 -18.5v-437z" />
    <glyph glyph-name="fl" unicode="fl" horiz-adv-x="585" 
d="M522 25q0 -25 -23 -25h-75q-23 0 -23 24v591q-17 5 -42 9.5t-45 4.5q-24 0 -41.5 -6t-28.5 -16q-17 -16 -23 -40t-6 -52v-30h98q20 0 20 -17v-47q0 -19 -19 -19h-99v-374q0 -14 -5.5 -21t-19.5 -7h-72q-24 0 -24 26v376h-54q-14 0 -18 4.5t-4 20.5v38q0 20 19 20h57v27
q0 57 13.5 98.5t45.5 70.5q50 47 139 47q40 0 76.5 -8t60.5 -16l70 10q14 2 18.5 -2.5t4.5 -16.5v-670z" />
    <glyph glyph-name="f_f" unicode="ff" horiz-adv-x="669" 
d="M93 509q0 48 9.5 87t30.5 66t53.5 42t78.5 15q24 0 51 -5t50 -13q11 -4 12.5 -12t-1.5 -25l-8 -42q-2 -11 -8 -13t-15 0q-19 5 -34 8t-29 3q-40 0 -54.5 -25.5t-14.5 -69.5v-40h184v27q0 25 2 44.5t5 36.5q12 63 53 99t116 36q25 0 54.5 -5.5t51.5 -15.5
q11 -5 12.5 -13.5t-1.5 -22.5l-8 -42q-2 -11 -7.5 -13.5t-15.5 0.5q-16 5 -33 9t-35 4q-45 0 -59 -27t-14 -71v-46h111q20 0 20 -17v-47q0 -19 -20 -19h-111v-374q0 -14 -5.5 -21t-19.5 -7h-72q-24 0 -24 26v376h-184v-374q0 -14 -5.5 -21t-19.5 -7h-72q-24 0 -24 26v376
h-54q-14 0 -17.5 4.5t-3.5 20.5v38q0 20 19 20h56v24z" />
    <glyph glyph-name="f_f_i" unicode="ffi" horiz-adv-x="882" 
d="M398 514q0 44 9.5 80.5t31.5 65.5q24 32 67.5 50t103.5 18q36 0 70.5 -6t55.5 -14q11 -5 14.5 -10t1.5 -16l-8 -51q-2 -9 -6.5 -13t-17.5 -1q-20 5 -45.5 8.5t-45.5 3.5q-29 0 -48.5 -6.5t-32.5 -18.5q-29 -27 -29 -87v-32h270q12 0 18 -4.5t6 -18.5v-437q0 -25 -24 -25
h-71q-25 0 -25 25v377h-174v-374q0 -14 -5.5 -21t-19.5 -7h-72q-24 0 -24 26v376h-184v-374q0 -14 -5.5 -21t-19.5 -7h-72q-24 0 -24 26v376h-54q-14 0 -17.5 4.5t-3.5 20.5v38q0 20 19 20h56v24q0 48 9.5 87t30.5 66t53.5 42t78.5 15q24 0 51 -5t50 -13q11 -4 12.5 -12
t-1.5 -25l-8 -42q-2 -11 -8 -13t-15 0q-19 5 -34 8t-29 3q-40 0 -54.5 -25.5t-14.5 -69.5v-40h184v29z" />
    <glyph glyph-name="f_f_l" unicode="ffl" horiz-adv-x="889" 
d="M519 28q0 -14 -5.5 -21t-19.5 -7h-72q-24 0 -24 26v376h-184v-374q0 -14 -5.5 -21t-19.5 -7h-72q-24 0 -24 26v376h-54q-14 0 -17.5 4.5t-3.5 20.5v38q0 20 19 20h56v24q0 48 9.5 87t30.5 66t53.5 42t78.5 15q24 0 51 -5t50 -13q11 -4 12.5 -12t-1.5 -25l-8 -42
q-2 -11 -8 -13t-15 0q-19 5 -34 8t-29 3q-40 0 -54.5 -25.5t-14.5 -69.5v-40h184v27q0 57 13.5 98.5t45.5 70.5q50 47 139 47q40 0 76.5 -8t60.5 -16l70 10q14 2 18.5 -2.5t4.5 -16.5v-670q0 -25 -23 -25h-75q-23 0 -23 24v591q-17 5 -42 9.5t-45 4.5q-24 0 -41.5 -6
t-28.5 -16q-17 -16 -23 -40t-6 -52v-30h98q20 0 20 -17v-47q0 -19 -19 -19h-99v-374z" />
    <glyph glyph-name=".notdef" horiz-adv-x="535" 
d="M20 693h495v-693h-495v693zM436 644h-337l169 -253zM466 94v505l-169 -252zM436 50l-168 252l-169 -252h337zM70 94l168 253l-168 252v-505z" />
    <glyph glyph-name=".null" horiz-adv-x="0" 
 />
    <glyph glyph-name=".null" horiz-adv-x="0" 
 />
    <glyph glyph-name="nonmarkingreturn" unicode="&#xd;" horiz-adv-x="242" 
 />
    <glyph glyph-name="space" unicode=" " horiz-adv-x="242" 
 />
    <glyph glyph-name="nonbreakingspace" unicode="&#xa0;" horiz-adv-x="242" 
 />
    <glyph glyph-name="A" unicode="A" horiz-adv-x="643" 
d="M408 268l-71 211q-7 21 -11.5 37t-8.5 28h-2q-8 -26 -21 -66l-71 -210h185zM253 672q4 9 10 14.5t17 5.5h80q21 0 28 -18l246 -648q4 -11 0 -18.5t-15 -7.5h-91q-16 0 -22.5 6t-11.5 18l-52 147h-253l-52 -150q-3 -10 -9 -15.5t-18 -5.5h-86q-12 0 -15.5 7t0.5 18z" />
    <glyph glyph-name="B" unicode="B" horiz-adv-x="598" 
d="M557 202q0 -61 -22.5 -100t-60.5 -61.5t-87.5 -31.5t-102.5 -9h-186q-16 0 -21 6.5t-5 22.5v637q0 16 7 21t23 5h150q121 0 186 -39.5t65 -129.5q0 -53 -29 -94t-84 -53v-1q36 -3 66.5 -16t53 -35.5t35 -53t12.5 -68.5zM377 508q0 24 -9 40.5t-25 26.5t-38.5 14.5
t-48.5 4.5h-56v-186h52q27 0 50 4t39.5 15.5t26 31t9.5 49.5zM426 206q0 35 -14.5 58t-38.5 35q-23 11 -49 14.5t-58 3.5h-66v-218h74q26 0 50.5 2.5t43.5 10.5q26 11 42 34.5t16 59.5z" />
    <glyph glyph-name="C" unicode="C" horiz-adv-x="596" 
d="M571 60q8 -21 -14 -31q-50 -20 -97 -30.5t-102 -10.5q-79 0 -138 26.5t-98 73.5t-58.5 112.5t-19.5 142.5t22.5 143t64.5 115t102 76.5t135 27.5q102 0 188 -42q12 -6 15 -11.5t-2 -18.5l-23 -63q-6 -19 -25 -9q-38 20 -72.5 28t-72.5 8q-52 0 -88.5 -22t-60 -57t-34 -80
t-10.5 -90q0 -58 13 -104.5t38 -79.5t61.5 -50.5t82.5 -17.5q72 0 144 32q10 5 16 3.5t11 -12.5z" />
    <glyph glyph-name="D" unicode="D" horiz-adv-x="692" 
d="M649 343q0 -91 -29 -157.5t-80 -110.5q-47 -39 -110 -57t-138 -18h-191q-15 0 -22 5.5t-7 22.5v634q0 16 6 23t25 7h144q87 0 148 -11t111 -40q68 -39 105.5 -112.5t37.5 -185.5zM511 344q0 69 -20 119t-58 79q-31 23 -70.5 32t-87.5 9h-73v-475h77q52 0 94.5 10.5
t74.5 42.5q30 30 46.5 75t16.5 108z" />
    <glyph glyph-name="E" unicode="E" horiz-adv-x="538" 
d="M458 326q0 -11 -5 -16.5t-19 -5.5h-232v-200h268q25 0 25 -23v-57q0 -24 -24 -24h-371q-15 0 -21 5t-6 22v640q0 25 23 25h377q15 0 19 -6t2 -17l-7 -60q-2 -14 -10 -17.5t-24 -3.5h-251v-181h232q14 0 19 -5.5t5 -16.5v-59z" />
    <glyph glyph-name="F" unicode="F" horiz-adv-x="532" 
d="M471 692q26 0 23 -23l-7 -60q-2 -14 -9 -17.5t-21 -3.5h-255v-181h231q14 0 19.5 -5.5t5.5 -16.5v-57q0 -24 -24 -24h-232v-279q0 -25 -24 -25h-78q-15 0 -21 5t-6 22v640q0 25 23 25h375z" />
    <glyph glyph-name="G" unicode="G" horiz-adv-x="679" 
d="M617 72q0 -15 -5 -22.5t-19 -15.5q-21 -11 -47.5 -19.5t-56.5 -14.5t-61 -9t-59 -3q-78 0 -138.5 26t-102.5 72.5t-63.5 112t-21.5 145.5q0 78 24.5 144.5t68.5 114.5t106.5 75t139.5 27q48 0 93 -9t90 -29q14 -6 14.5 -13.5t-3.5 -16.5l-24 -62q-7 -17 -28 -8
q-25 11 -63 20t-73 9q-41 0 -78 -14.5t-63 -42.5q-32 -33 -49 -81t-17 -110q0 -117 51 -184.5t142 -67.5q31 0 62 4.5t51 12.5v191h-89q-11 0 -16.5 4.5t-5.5 17.5v61q0 12 6 16t17 4h194q13 0 18.5 -4.5t5.5 -18.5v-312z" />
    <glyph glyph-name="H" unicode="H" horiz-adv-x="689" 
d="M616 25q0 -25 -24 -25h-79q-26 0 -26 25v279h-284v-279q0 -25 -25 -25h-78q-27 0 -27 25v643q0 13 7.5 18.5t19.5 5.5h78q12 0 18.5 -5t6.5 -19v-261h284v261q0 24 26 24h79q12 0 18 -5t6 -19v-643z" />
    <glyph glyph-name="I" unicode="I" horiz-adv-x="402" 
d="M342 629q0 -12 -5 -16.5t-16 -4.5h-57v-524h55q11 0 16 -6t5 -15v-43q0 -20 -18 -20h-240q-20 0 -20 19v45q0 20 20 20h54v524h-58q-20 0 -20 20v44q0 8 4.5 14t13.5 6h245q11 0 16 -5.5t5 -13.5v-44z" />
    <glyph glyph-name="J" unicode="J" horiz-adv-x="419" 
d="M345 229q0 -69 -16 -119.5t-54 -80.5q-29 -23 -67.5 -32t-78.5 -9q-18 0 -37.5 2t-34.5 6q-11 3 -14 8t-1 17l10 57q2 11 7.5 14t16.5 1q10 -2 23.5 -4t27.5 -2q20 0 38 5.5t31 21.5q21 28 21 93v401h-113q-12 0 -16.5 6.5t-4.5 15.5v41q0 21 21 21h217q24 0 24 -23v-440
z" />
    <glyph glyph-name="K" unicode="K" horiz-adv-x="596" 
d="M468 0q-18 0 -28 6t-20 19l-216 277h-2v-277q0 -25 -24 -25h-80q-25 0 -25 25v643q0 24 25 24h80q12 0 18 -5t6 -19v-283h2l206 289q8 10 15.5 14t21.5 4h77q11 0 14.5 -4t3.5 -9q0 -8 -8 -19l-225 -302l261 -321q8 -9 10 -14t2 -10t-4 -9t-15 -4h-95z" />
    <glyph glyph-name="L" unicode="L" horiz-adv-x="493" 
d="M479 24q0 -14 -6.5 -19t-17.5 -5h-354q-14 0 -21 5.5t-7 22.5v639q0 25 24 25h80q25 0 25 -26v-559h253q24 0 24 -23v-60z" />
    <glyph glyph-name="M" unicode="M" horiz-adv-x="873" 
d="M97 669q1 23 24 23h59q15 0 22 -5.5t12 -16.5l231 -494h2l211 494q5 12 11.5 17t20.5 5h59q22 0 23 -22l30 -643q1 -13 -4 -20t-19 -7h-81q-16 0 -20.5 7t-5.5 26l-14 406h-2l-170 -421q-5 -11 -10.5 -14.5t-16.5 -3.5h-35q-12 0 -19 3.5t-12 15.5l-189 420h-2l-9 -414
q0 -17 -6.5 -21t-20.5 -4h-68q-27 0 -26 26z" />
    <glyph glyph-name="N" unicode="N" horiz-adv-x="727" 
d="M629 692q26 0 26 -26v-639q0 -17 -6.5 -22t-17.5 -5h-64q-26 0 -41 21l-326 446h-2v-441q0 -26 -26 -26h-72q-14 0 -20.5 5t-6.5 20v640q0 16 6.5 21.5t20.5 5.5h65q12 0 19 -4t15 -15l329 -452h2v445q0 26 26 26h73z" />
    <glyph glyph-name="O" unicode="O" horiz-adv-x="695" 
d="M652 350q0 -85 -23 -152t-64 -113.5t-97.5 -71.5t-123.5 -25q-72 0 -128 25t-94.5 71.5t-58.5 112.5t-20 147t21.5 147.5t62 114t97 73.5t127.5 26q74 0 130.5 -26.5t94.5 -74t57 -112.5t19 -142zM514 347q0 127 -42.5 188t-123.5 61q-38 0 -68.5 -17t-52.5 -49
t-34 -78.5t-12 -104.5q0 -125 43.5 -187.5t123.5 -62.5q75 0 120.5 63.5t45.5 186.5z" />
    <glyph glyph-name="P" unicode="P" horiz-adv-x="556" 
d="M526 474q0 -60 -21 -103.5t-58 -72.5q-38 -29 -87.5 -42t-112.5 -13h-45v-219q0 -11 -5.5 -17.5t-19.5 -6.5h-80q-12 0 -18 6t-6 21v638q0 15 5.5 21t19.5 6h145q80 0 138 -17t95 -59q24 -28 37 -64.5t13 -77.5zM396 469q0 34 -10 57.5t-28.5 38t-45 21t-58.5 6.5h-52
v-250h27q44 0 79 6t58 31q30 33 30 90z" />
    <glyph glyph-name="Q" unicode="Q" horiz-adv-x="689" 
d="M359 -10h-21.5t-21.5 1q-68 4 -119.5 32.5t-85.5 76t-51 109.5t-17 134q0 75 20 141t59 115t96.5 77.5t132.5 28.5q77 0 134 -28.5t94 -77t55 -113t18 -136.5q0 -104 -37 -187.5t-112 -129.5q27 -15 63 -29.5t78 -26.5q19 -5 22.5 -13t-1.5 -22l-18 -53q-5 -14 -15 -17
t-41 7q-45 14 -83 38.5t-68 44.5q-20 13 -36 20.5t-45 7.5zM514 347q0 56 -9.5 102t-29.5 78.5t-51.5 50.5t-75.5 18q-41 0 -72 -19t-52 -53t-32 -79.5t-11 -97.5q0 -56 9.5 -102t30 -79.5t52 -52t75.5 -18.5q41 0 72 19t52 52.5t31.5 80t10.5 100.5z" />
    <glyph glyph-name="R" unicode="R" horiz-adv-x="592" 
d="M560 30q8 -14 6 -22t-16 -8h-89q-16 0 -23.5 4.5t-14.5 15.5l-144 235h-77v-230q0 -25 -23 -25h-82q-24 0 -24 25v638q0 17 5 23t22 6h148q33 0 65.5 -3t63 -11t57 -22.5t46.5 -37.5q24 -28 36 -63.5t12 -76.5q0 -69 -34.5 -121t-94.5 -78zM397 476q0 65 -40 91.5
t-105 26.5h-50v-242h62q60 0 96.5 31.5t36.5 92.5z" />
    <glyph glyph-name="S" unicode="S" horiz-adv-x="540" 
d="M500 202q0 -52 -19.5 -92t-53 -67t-77.5 -41t-93 -14q-45 0 -95.5 8t-95.5 24q-14 5 -16.5 13t1.5 19l21 65q4 13 12 15.5t21 -2.5q35 -13 73 -21.5t76 -8.5q20 0 40.5 5t37 16t27 27.5t10.5 40.5q0 35 -22 55.5t-51 34.5l-130 65q-54 26 -86 69.5t-32 102.5
q0 46 20.5 81t53.5 59t74 36.5t83 12.5q50 0 92.5 -8t86.5 -27q14 -6 18 -13t-1 -20l-24 -61q-5 -13 -13 -14.5t-20 3.5q-32 14 -67 22.5t-65 8.5q-18 0 -36 -4t-32.5 -13t-23.5 -23.5t-9 -35.5q0 -15 6.5 -27.5t16.5 -22.5t23 -17.5t25 -13.5l111 -54q60 -29 96.5 -71.5
t36.5 -111.5z" />
    <glyph glyph-name="T" unicode="T" horiz-adv-x="575" 
d="M223 588h-187q-23 0 -23 24v59q0 21 22 21h507q19 0 25.5 -5.5t4.5 -19.5l-7 -58q-2 -12 -9 -16.5t-22 -4.5h-181v-563q0 -25 -24 -25h-81q-25 0 -25 25v563z" />
    <glyph glyph-name="U" unicode="U" horiz-adv-x="720" 
d="M650 307q0 -155 -72.5 -237t-219.5 -82q-79 0 -134 21.5t-89 62.5t-49.5 100.5t-15.5 136.5v359q0 24 26 24h79q24 0 24 -24v-348q0 -55 8 -97t27 -70t50.5 -42t78.5 -14q45 0 75.5 14.5t49 43t26.5 70t8 95.5v348q0 24 25 24h79q24 0 24 -24v-361z" />
    <glyph glyph-name="V" unicode="V" horiz-adv-x="652" 
d="M125 692q16 0 23.5 -4.5t12.5 -16.5l177 -494h3l167 491q5 14 12 19t25 5h69q28 0 18 -27l-234 -643q-5 -11 -11 -16.5t-20 -5.5h-66q-26 0 -35 25l-245 637q-5 14 -1 22t18 8h87z" />
    <glyph glyph-name="W" unicode="W" horiz-adv-x="940" 
d="M734 27q-5 -16 -12 -21.5t-23 -5.5h-62q-15 0 -22.5 6t-11.5 20l-130 458h-2l-130 -455q-5 -17 -13 -23t-24 -6h-57q-17 0 -24.5 6.5t-12.5 23.5l-191 632q-9 30 21 30h91q16 0 23 -5.5t11 -19.5l122 -461h1l127 464q4 13 10 17.5t20 4.5h65q15 0 21 -5t9 -16l127 -465h2
l121 463q4 14 10 18.5t21 4.5h78q14 0 19.5 -6.5t0.5 -23.5z" />
    <glyph glyph-name="X" unicode="X" horiz-adv-x="606" 
d="M585 29q8 -12 3.5 -20.5t-18.5 -8.5h-95q-26 0 -39 22l-138 233h-1l-138 -233q-7 -12 -15.5 -17t-24.5 -5h-83q-14 0 -17 8.5t4 19.5l207 328l-193 309q-6 10 -3 18.5t16 8.5h96q23 0 36 -22l123 -207h1l126 210q7 11 13.5 15t20.5 4h90q13 0 16 -8.5t-4 -18.5l-197 -299
z" />
    <glyph glyph-name="Y" unicode="Y" horiz-adv-x="592" 
d="M308 390l142 281q6 12 13.5 16.5t21.5 4.5h73q27 0 14 -25l-206 -381v-263q0 -23 -23 -23h-84q-23 0 -23 25v256l-217 387q-5 8 -2 16t17 8h93q25 0 35 -19l144 -283h2z" />
    <glyph glyph-name="Z" unicode="Z" horiz-adv-x="585" 
d="M556 24q0 -24 -25 -24h-484q-10 0 -14.5 6t-4.5 15v31q0 9 2 16t8 16l331 503v1h-293q-25 0 -25 23v61q0 20 20 20h447q14 0 19 -6t5 -16v-24q0 -11 -2 -21.5t-10 -21.5l-329 -498v-1h332q11 0 17 -4.5t6 -18.5v-57z" />
    <glyph glyph-name="a" unicode="a" horiz-adv-x="558" 
d="M534 19q0 -19 -20 -19h-48q-39 0 -58 16.5t-24 42.5h-2q-23 -30 -62.5 -50.5t-82.5 -20.5q-53 0 -91.5 20t-64 54t-37.5 78.5t-12 93.5q0 65 18 114.5t48 82.5t69 50t81 17q40 0 74.5 -16t53.5 -42l2 27q2 18 21 18h70q21 0 21 -22v-353q0 -14 3.5 -20.5t14.5 -6.5h8
q18 0 18 -17v-47zM369 348q-15 22 -42.5 36.5t-56.5 14.5q-23 0 -43.5 -10t-36 -29.5t-24.5 -49t-9 -68.5q0 -32 6 -60t19 -49t33 -33.5t48 -12.5q18 0 35 6.5t31 16t24 21.5t16 24v193z" />
    <glyph glyph-name="b" unicode="b" horiz-adv-x="554" 
d="M520 242q0 -52 -14 -98t-40.5 -80.5t-66 -55t-90.5 -20.5q-82 0 -136 57l-4 -33q-1 -12 -21 -12h-61q-24 0 -24 25v652q0 12 4 18.5t16 8.5l81 11q8 1 14 -2.5t6 -15.5v-248q24 21 58.5 35t73.5 14q42 0 73 -12.5t55 -34.5q40 -35 58 -90.5t18 -118.5zM395 241
q0 30 -5 58t-17.5 49.5t-33.5 34.5t-52 13q-28 0 -55.5 -13t-47.5 -32v-214q20 -23 45 -36t53 -13q33 0 54.5 13t34.5 34.5t18.5 49t5.5 56.5z" />
    <glyph glyph-name="c" unicode="c" horiz-adv-x="447" 
d="M285 82q32 0 55.5 5.5t49.5 16.5q18 6 22 -8l14 -49q3 -11 1 -17.5t-13 -11.5q-36 -17 -70.5 -23.5t-74.5 -6.5q-116 0 -177.5 67t-61.5 183q0 58 17 106t49 82t78 53t104 19q34 0 68 -7t66 -21q10 -5 11 -10.5t-1 -15.5l-13 -54q-5 -17 -23 -9q-22 10 -46 16t-50 6
q-65 0 -100 -42.5t-35 -116.5q0 -72 32.5 -117t97.5 -45z" />
    <glyph glyph-name="d" unicode="d" horiz-adv-x="557" 
d="M373 352q-15 20 -41 34.5t-55 14.5q-30 0 -52.5 -13t-36.5 -35t-21 -50t-7 -59t6 -59.5t19 -50.5t34.5 -35t51.5 -13q28 0 57.5 15.5t44.5 34.5v216zM494 25q0 -13 -6.5 -19t-15.5 -6h-65q-22 0 -24 20l-2 27q-21 -24 -59 -41.5t-77 -17.5q-54 0 -94 20t-66 54
t-38.5 79.5t-12.5 95.5q0 52 14.5 99.5t42 83.5t68.5 57t94 21q34 0 66.5 -12.5t53.5 -34.5v226q0 12 4 18.5t16 8.5l81 11q8 1 14 -2.5t6 -15.5v-672z" />
    <glyph glyph-name="e" unicode="e" horiz-adv-x="515" 
d="M304 85q32 0 63 6.5t60 17.5q12 5 17.5 2t7.5 -11l14 -51q3 -10 0.5 -17t-14.5 -12q-37 -17 -83 -24.5t-85 -7.5q-59 0 -105.5 18t-78.5 51.5t-49 80.5t-17 106q0 56 18 103t50.5 80.5t78 52t101.5 18.5q46 0 83 -16t63 -44q35 -36 47 -82t12 -97v-15q0 -18 -7 -23.5
t-26 -5.5h-293q6 -58 44.5 -94t98.5 -36zM368 294v11q-1 19 -7 37.5t-17.5 32t-28.5 22t-40 8.5q-24 0 -43.5 -9t-34 -24.5t-23 -35.5t-11.5 -42h205z" />
    <glyph glyph-name="f" unicode="f" horiz-adv-x="364" 
d="M269 728q25 0 54.5 -5.5t51.5 -15.5q11 -5 12.5 -13.5t-1.5 -22.5l-8 -42q-2 -11 -7.5 -13.5t-15.5 0.5q-16 5 -33 9t-35 4q-45 0 -59 -27t-14 -71v-46h111q20 0 20 -17v-47q0 -19 -20 -19h-111v-374q0 -14 -5.5 -21t-19.5 -7h-72q-24 0 -24 26v376h-54q-14 0 -17.5 4.5
t-3.5 20.5v38q0 20 19 20h56v27q0 25 2 44.5t5 36.5q12 63 53 99t116 36z" />
    <glyph glyph-name="g" unicode="g" horiz-adv-x="558" 
d="M495 33q0 -122 -55.5 -187t-181.5 -65q-37 0 -74.5 7.5t-73.5 23.5q-12 5 -15 12t1 19l16 48q4 12 10 14.5t19 -2.5q27 -11 56.5 -18.5t55.5 -7.5q37 0 61 9.5t37 27t18 42t5 54.5v40q-11 -11 -26.5 -20.5t-33 -16t-36 -10.5t-34.5 -4q-93 0 -147 57q-32 32 -47.5 79
t-15.5 102q0 50 14.5 97t42.5 83.5t70 58.5t96 22q34 0 67.5 -13.5t55.5 -42.5l2 25q1 18 23 18h66q14 0 19 -5.5t5 -18.5v-428zM374 352q-15 20 -41.5 34.5t-55.5 14.5q-23 0 -41.5 -8t-32.5 -21q-23 -23 -33 -58t-10 -70q0 -33 8.5 -65.5t31.5 -54.5q14 -14 32.5 -20.5
t38.5 -6.5q29 0 58.5 14.5t44.5 33.5v207z" />
    <glyph glyph-name="h" unicode="h" horiz-adv-x="563" 
d="M379 298q0 41 -15 67.5t-60 26.5q-29 0 -63 -14t-57 -34v-319q0 -25 -25 -25h-70q-26 0 -26 25v652q0 12 4 18.5t16 8.5l81 11q8 1 14 -2.5t6 -15.5v-253q32 26 75 40t83 14q84 0 121 -49t37 -130v-294q0 -25 -25 -25h-70q-26 0 -26 25v273z" />
    <glyph glyph-name="i" unicode="i" horiz-adv-x="261" 
d="M198 612q0 -29 -21 -46t-46 -17t-46.5 16t-21.5 46t21 47t47 17t46.5 -16.5t20.5 -46.5zM192 25q0 -25 -25 -25h-70q-26 0 -26 25v437q0 23 26 23h70q12 0 18.5 -4.5t6.5 -18.5v-437z" />
    <glyph glyph-name="j" unicode="j" horiz-adv-x="284" 
d="M221 611q0 -30 -21 -46.5t-46 -16.5t-46 16t-21 46q0 31 20.5 48t46.5 17t46.5 -17t20.5 -47zM213 23q0 -69 -15.5 -118t-50.5 -79q-26 -22 -60.5 -33t-85.5 -11q-14 0 -32 1.5t-35 5.5q-12 3 -15 9.5t-1 15.5l10 56q3 14 16 13q9 -1 18.5 -2t18.5 -1q27 0 55 11.5
t42 37.5q14 28 14 77v457q0 11 6.5 16.5t17.5 5.5h74q23 0 23 -22v-440z" />
    <glyph glyph-name="k" unicode="k" horiz-adv-x="484" 
d="M63 677q0 12 4 18.5t16 8.5l81 11q8 1 14 -2.5t6 -15.5v-406h2l131 180q6 8 11.5 11t15.5 3h88q11 0 13.5 -6.5t-3.5 -14.5l-143 -180l164 -257q8 -12 5.5 -19.5t-14.5 -7.5h-91q-14 0 -23 4.5t-17 16.5l-128 210l-11 -10v-196q0 -25 -25 -25h-70q-26 0 -26 25v652z" />
    <glyph glyph-name="l" unicode="l" horiz-adv-x="247" 
d="M184 25q0 -25 -22 -25h-76q-23 0 -23 24v653q0 12 4 18.5t16 8.5l81 11q8 1 14 -2.5t6 -15.5v-672z" />
    <glyph glyph-name="m" unicode="m" horiz-adv-x="850" 
d="M787 25q0 -25 -24 -25h-70q-26 0 -26 25v274q0 20 -3 37.5t-11.5 30t-23 20t-37.5 7.5q-29 0 -59.5 -13t-53.5 -32q1 -3 1.5 -26t1 -50.5t1 -51.5t0.5 -29v-167q0 -25 -24 -25h-66q-26 0 -26 25v274q0 20 -2.5 37.5t-10.5 30t-22 20t-37 7.5q-29 0 -58 -14.5t-53 -35.5
v-319q0 -25 -25 -25h-70q-26 0 -26 25v437q0 23 24 23h65q24 0 25 -19l1 -25q31 27 69.5 42t77.5 15q46 0 78 -18t49 -47q34 32 79.5 48.5t91.5 16.5q55 0 89.5 -23t50.5 -52q14 -28 19 -62.5t5 -82.5v-253z" />
    <glyph glyph-name="n" unicode="n" horiz-adv-x="561" 
d="M498 26q0 -13 -5 -19.5t-19 -6.5h-72q-14 0 -19 6.5t-5 19.5v272q0 41 -15 67.5t-61 26.5q-29 0 -62 -14t-56 -34v-319q0 -25 -24 -25h-73q-24 0 -24 24v436q0 25 25 25h65q11 0 17 -4t7 -15l1 -26q35 28 76.5 43t85.5 15q84 0 121 -48.5t37 -130.5v-293z" />
    <glyph glyph-name="o" unicode="o" horiz-adv-x="550" 
d="M516 243q0 -54 -16 -100.5t-47.5 -81t-77 -54t-103.5 -19.5q-61 0 -106 19.5t-74 54t-43.5 81t-14.5 101.5q0 54 16 100.5t47.5 80.5t76.5 53.5t104 19.5q61 0 106 -19t74 -53t43.5 -81t14.5 -102zM391 243q0 31 -5.5 59.5t-18.5 51t-35 36t-55 13.5t-56 -13.5t-36.5 -35
t-19.5 -50t-6 -58.5q0 -31 5.5 -60t18.5 -52t35 -37t55 -14t55.5 13.5t36.5 36t20 51t6 59.5z" />
    <glyph glyph-name="p" unicode="p" horiz-adv-x="557" 
d="M523 250q0 -57 -16.5 -107t-48.5 -87q-28 -32 -66.5 -50t-87.5 -18q-35 0 -67 12t-54 35v-225q0 -15 -6.5 -20.5t-19.5 -5.5h-70q-24 0 -24 26v652q0 23 24 23h60q13 0 19.5 -4t7.5 -15l1 -26q22 25 60.5 41.5t79.5 16.5q50 0 85 -17t60 -44q32 -35 47.5 -84.5
t15.5 -102.5zM397 244q0 35 -7 65t-22 51q-29 41 -82 41q-28 0 -58 -15t-45 -34v-218q15 -20 42 -34.5t56 -14.5q26 0 46.5 10.5t33.5 26.5q19 23 27.5 54t8.5 68z" />
    <glyph glyph-name="q" unicode="q" horiz-adv-x="555" 
d="M492 -190q0 -26 -23 -26h-73q-25 0 -25 23v232q-23 -23 -57.5 -37t-69.5 -14q-41 0 -71.5 10.5t-55.5 30.5q-43 35 -63 92t-20 122q0 60 18.5 112.5t55.5 87.5q58 55 143 55q33 0 70 -13.5t60 -39.5l2 24q1 16 23 16h62q14 0 19 -6t5 -18v-651zM371 347q-17 21 -45 36.5
t-56 15.5q-33 0 -54 -14t-33.5 -36t-17.5 -49.5t-5 -55.5q0 -35 7.5 -66.5t24.5 -53.5q12 -15 30.5 -24.5t44.5 -9.5q29 0 57 13.5t47 33.5v210z" />
    <glyph glyph-name="r" unicode="r" horiz-adv-x="345" 
d="M299 498q11 0 20 -1.5t13 -5.5q5 -5 4 -17l-11 -71q-3 -17 -20 -14q-5 1 -10.5 1.5t-14.5 0.5q-26 0 -51.5 -12.5t-44.5 -35.5v-318q0 -25 -24 -25h-73q-24 0 -24 25v435q0 15 7 20t18 5h64q25 0 25 -19l1 -32q23 29 51 46.5t70 17.5z" />
    <glyph glyph-name="s" unicode="s" horiz-adv-x="411" 
d="M386 143q0 -39 -16 -68.5t-42.5 -48.5t-61.5 -28.5t-73 -9.5q-39 0 -79.5 10t-74.5 25q-17 8 -11 23l18 55q6 18 24 10q73 -31 126 -31q33 0 53.5 14t20.5 39q0 21 -14.5 34t-45.5 25l-79 30q-43 16 -73 49t-30 84q0 37 16 64t41.5 44.5t58 26t65.5 8.5q36 0 72 -6.5
t73 -23.5q10 -5 11 -10t-1 -14l-17 -54q-3 -9 -9.5 -10.5t-14.5 1.5q-26 10 -55 17t-53 7q-32 0 -47.5 -14.5t-15.5 -31.5t10 -28.5t39 -22.5l90 -37q40 -17 67.5 -48t27.5 -80z" />
    <glyph glyph-name="t" unicode="t" horiz-adv-x="380" 
d="M207 485h113q19 0 19 -17v-47q0 -19 -20 -19h-112v-229q0 -23 2.5 -39.5t10.5 -28.5q7 -10 18 -15.5t29 -5.5q19 0 34.5 3.5t29.5 8.5q8 2 14.5 1.5t8.5 -11.5l10 -50q4 -17 -14 -25q-23 -10 -52.5 -16.5t-59.5 -6.5q-38 0 -69.5 10t-50.5 32q-12 13 -18.5 27.5
t-9.5 32.5t-3.5 40t-0.5 49v223h-47q-14 0 -18 4.5t-4 20.5v38q0 20 18 20h51v105q0 12 4 18.5t16 8.5l81 11q8 1 14 -2.5t6 -15.5v-125z" />
    <glyph glyph-name="u" unicode="u" horiz-adv-x="557" 
d="M495 28q0 -16 -5.5 -22t-20.5 -6h-64q-22 0 -24 20l-1 25q-71 -57 -159 -57q-84 0 -121 49t-37 130v295q0 23 26 23h70q12 0 18.5 -4.5t6.5 -18.5v-274q0 -42 14.5 -67.5t59.5 -25.5q29 0 61 14t55 34v319q0 23 25 23h71q12 0 18.5 -4.5t6.5 -18.5v-434z" />
    <glyph glyph-name="v" unicode="v" horiz-adv-x="484" 
d="M453 485q15 0 19 -6t-1 -18l-175 -442q-5 -11 -11.5 -15t-17.5 -4h-52q-11 0 -18.5 3.5t-11.5 14.5l-172 446q-8 21 16 21h88q23 0 29 -20l76 -233q8 -23 14 -45.5t11 -39.5h1q4 14 10.5 37.5t13.5 44.5l78 235q4 13 10.5 17t20.5 4h72v0z" />
    <glyph glyph-name="w" unicode="w" horiz-adv-x="719" 
d="M690 485q22 0 15 -21l-134 -440q-4 -11 -10.5 -17.5t-20.5 -6.5h-66q-15 0 -22 6.5t-11 18.5l-83 285h-2l-82 -287q-7 -23 -32 -23h-67q-12 0 -20 6.5t-11 17.5l-131 440q-6 21 19 21h82q14 0 20 -5t8 -14l72 -316h1l93 315q5 20 27 20h56q23 0 27 -17l91 -320h1l75 315
q2 11 8.5 16.5t20.5 5.5h76z" />
    <glyph glyph-name="x" unicode="x" horiz-adv-x="504" 
d="M187 251l-147 210q-5 8 -3 16t13 8h102q20 0 31 -16l79 -126h1l82 125q7 10 13 13.5t16 3.5h87q11 0 13 -7t-3 -15l-152 -198l169 -241q6 -8 3 -16t-15 -8h-102q-15 0 -22.5 4.5t-12.5 13.5l-94 153h-1l-96 -151q-7 -11 -15.5 -15.5t-22.5 -4.5h-85q-11 0 -13.5 7t3.5 15
z" />
    <glyph glyph-name="y" unicode="y" horiz-adv-x="514" 
d="M485 485q24 0 14 -24l-197 -518q-17 -45 -36.5 -75.5t-45.5 -49.5t-60 -27.5t-79 -8.5q-14 0 -28 1t-25 4q-12 4 -14 10t0 16l7 52q3 18 18 18q8 0 19.5 -1.5t20.5 -1.5q47 0 70 17t38 52l19 45l-182 469q-4 9 -1 15.5t14 6.5h94q13 0 19 -5t9 -15l110 -328l105 325
q7 23 30 23h81z" />
    <glyph glyph-name="z" unicode="z" horiz-adv-x="430" 
d="M406 19q0 -19 -19 -19h-339q-14 0 -19 6.5t-5 17.5v25q0 11 1.5 17.5t8.5 16.5l216 318v1h-185q-14 0 -18.5 5t-4.5 21v36q0 21 19 21h316q14 0 18.5 -6.5t4.5 -14.5v-28q0 -9 -2 -17t-8 -16l-220 -318v-2h216q20 0 20 -17v-47z" />
    <glyph glyph-name="ampersand" unicode="&#x26;" horiz-adv-x="690" 
d="M676 84q11 -3 13 -7t-1 -15l-17 -56q-2 -8 -6 -11.5t-13 -3.5q-16 0 -39 6.5t-48.5 18t-49.5 27.5t-41 34q-48 -42 -103 -65.5t-121 -23.5q-46 0 -87 14.5t-71.5 40.5t-48.5 63.5t-18 83.5q0 37 13.5 67.5t35.5 56t50.5 46.5t57.5 39l-27 31q-26 30 -40.5 58.5
t-14.5 64.5q0 33 14.5 61t39.5 48.5t57.5 31.5t67.5 11q36 0 67 -10.5t54 -30t36.5 -47t13.5 -61.5q0 -27 -10.5 -50.5t-27 -44t-37 -37.5t-41.5 -32l149 -170q10 13 21.5 32.5t21 44t17 55.5t9.5 67q1 11 5 15t14 4h60q11 0 14.5 -3.5t3.5 -12.5q0 -43 -9 -83t-23 -75
t-31.5 -64t-35.5 -50q26 -25 60 -42t66 -26zM343 554q0 25 -16.5 43t-45.5 18q-26 0 -43.5 -16.5t-17.5 -41.5q0 -17 8.5 -33.5t24.5 -35.5l23 -27q11 8 23 18.5t21.5 22.5t16 25.5t6.5 26.5zM241 331q-38 -27 -65.5 -59t-27.5 -73q0 -50 34 -80.5t84 -30.5q41 0 78.5 15.5
t61.5 40.5z" />
    <glyph glyph-name="at" unicode="@" horiz-adv-x="832" 
d="M787 393q0 -42 -13.5 -85t-39 -78t-62 -57.5t-82.5 -22.5q-35 0 -64.5 16.5t-36.5 55.5h-1q-21 -30 -49 -46.5t-62 -16.5q-31 0 -52.5 11.5t-35.5 31t-20.5 45.5t-6.5 54q0 39 12.5 80t36.5 74t58.5 54t77.5 21q25 0 48 -13t32 -38l7 28q2 10 15 10h46q16 0 13 -15
l-49 -202q-3 -12 -5 -25t-2 -26q0 -20 9.5 -33t31.5 -13t43 13t37.5 37.5t26.5 59.5t10 79q0 57 -18.5 100.5t-52 73t-80 44.5t-101.5 15q-65 0 -119 -25t-93 -68t-61 -100t-22 -121q0 -61 19 -107.5t54 -77.5t83.5 -47t107.5 -16q43 0 87 8t85 24q14 6 19 -7l14 -37
q3 -8 2 -12t-10 -9q-45 -23 -98 -32.5t-109 -9.5q-76 0 -143 20.5t-117 60.5t-79 100t-29 139q0 86 32.5 159t88 126t130 82.5t159.5 29.5q70 0 130 -22t104 -62.5t69 -98t25 -129.5zM505 413q-5 17 -16 31.5t-34 14.5q-25 0 -42.5 -17.5t-29 -42t-16.5 -51.5t-5 -45
q0 -11 2 -22t7.5 -20t14 -15t20.5 -6q26 0 42.5 15t28.5 38z" />
    <glyph glyph-name="exclam" unicode="!" horiz-adv-x="259" 
d="M197 52q0 -30 -21.5 -47t-45.5 -17t-46 16t-22 47q0 32 21 48.5t47 16.5t46.5 -16.5t20.5 -47.5zM178 173q0 -19 -19 -19h-54q-12 0 -16 4.5t-4 15.5l-11 499q0 11 3.5 15t14.5 4h80q11 0 14.5 -4t3.5 -15z" />
    <glyph glyph-name="exclamdown" unicode="&#xa1;" horiz-adv-x="259" 
d="M197 434q0 -31 -20.5 -47.5t-46.5 -16.5t-47 16.5t-21 48.5q0 31 22 47t46 16t45.5 -17t21.5 -47zM190 -187q0 -11 -3.5 -15t-14.5 -4h-80q-11 0 -14.5 4t-3.5 15l11 499q0 11 4 15.5t16 4.5h54q19 0 19 -19z" />
    <glyph glyph-name="question" unicode="?" horiz-adv-x="440" 
d="M404 536q0 -41 -18.5 -77t-47.5 -66l-73 -77q-18 -19 -29.5 -38.5t-13.5 -55.5q0 -8 0.5 -20.5t0.5 -17.5q0 -15 -15 -15h-64q-8 0 -12.5 3t-6.5 12q-3 14 -5 28.5t-2 30.5q0 35 12.5 63t38.5 54l71 73q15 16 32 40t17 51q0 24 -8.5 40.5t-22 26t-31 14t-35.5 4.5
q-23 0 -52 -8t-52 -21q-10 -5 -14.5 -2.5t-6.5 8.5l-20 54q-2 7 -1.5 12.5t8.5 10.5q38 21 80 31.5t82 10.5q37 0 71.5 -11.5t60 -33.5t41 -53t15.5 -71zM245 52q0 -30 -21.5 -47t-45.5 -17t-46 16t-22 47q0 32 21 48.5t47 16.5t46.5 -16.5t20.5 -47.5z" />
    <glyph glyph-name="questiondown" unicode="&#xbf;" horiz-adv-x="440" 
d="M36 -50q0 41 18.5 77t47.5 66l73 77q18 19 29.5 38.5t13.5 55.5q0 8 -0.5 20.5t-0.5 17.5q0 15 15 15h64q8 0 12.5 -3t6.5 -12q3 -14 5 -28.5t2 -30.5q0 -35 -12.5 -63t-38.5 -54l-71 -73q-15 -16 -32 -40t-17 -51q0 -24 8.5 -40.5t22 -26t31 -14t35.5 -4.5q23 0 52 8
t52 21q10 5 14.5 2.5t6.5 -8.5l20 -54q2 -7 1.5 -12.5t-8.5 -10.5q-38 -21 -80 -31.5t-82 -10.5q-38 0 -72 11.5t-59.5 33t-41 53t-15.5 71.5zM195 434q0 30 21.5 47t45.5 17t46 -16t22 -47q0 -32 -21 -48.5t-47 -16.5t-46.5 16.5t-20.5 47.5z" />
    <glyph glyph-name="asterisk" unicode="*" horiz-adv-x="368" 
d="M297 490q8 -8 5.5 -12.5t-9.5 -9.5l-49 -31q-15 -10 -22 7l-38 92l-38 -92q-7 -17 -22 -7l-49 31q-7 5 -9.5 9.5t5.5 12.5l77 71l-94 8q-20 1 -14 19l20 59q6 18 23 7l81 -50l-22 95q-4 20 13 20h59q17 0 13 -20l-22 -95l80 50q17 11 23 -7l20 -59q6 -18 -14 -19l-93 -8z
" />
    <glyph glyph-name="period" unicode="." horiz-adv-x="219" 
d="M186 55q0 -31 -22.5 -49t-48.5 -18t-48.5 17t-22.5 49t21.5 50t49.5 18q27 0 49 -17.5t22 -49.5z" />
    <glyph glyph-name="comma" unicode="," horiz-adv-x="219" 
d="M184 38q0 -55 -29 -102t-72 -77q-10 -7 -18 -7t-15 9l-10 12q-5 6 -4.5 10.5t7.5 11.5q15 15 28 34.5t13 37.5q0 11 -6.5 21t-14 20.5t-14 21.5t-6.5 25q0 29 20 48t49 19q16 0 29.5 -7.5t23 -19.5t14.5 -27t5 -30z" />
    <glyph glyph-name="colon" unicode=":" horiz-adv-x="237" 
d="M197 430q0 -32 -23 -49.5t-48 -17.5q-13 0 -25.5 4.5t-22.5 13t-16.5 21t-6.5 28.5q0 33 22 50.5t49 17.5q26 0 48.5 -18t22.5 -50zM197 56q0 -32 -23 -50t-48 -18q-13 0 -25.5 4.5t-22.5 13t-16.5 21t-6.5 28.5q0 33 22 50t49 17q26 0 48.5 -17t22.5 -49z" />
    <glyph glyph-name="semicolon" unicode=";" horiz-adv-x="237" 
d="M197 430q0 -32 -23 -49.5t-48 -17.5q-13 0 -25.5 4.5t-22.5 13t-16.5 21t-6.5 28.5q0 33 22 50.5t49 17.5q26 0 48.5 -18t22.5 -50zM196 38q0 -55 -29 -102t-72 -77q-10 -7 -18 -7t-15 9l-10 12q-5 6 -4.5 10.5t7.5 11.5q15 15 28 34.5t13 37.5q0 11 -6.5 21t-14 20.5
t-14 21.5t-6.5 25q0 29 20 48t49 19q16 0 29.5 -7.5t23 -19.5t14.5 -27t5 -30z" />
    <glyph glyph-name="ellipsis" unicode="&#x2026;" horiz-adv-x="657" 
d="M186 55q0 -31 -22.5 -49t-48.5 -18t-48.5 17t-22.5 49t21.5 50t49.5 18q27 0 49 -17.5t22 -49.5zM405 55q0 -31 -22.5 -49t-48.5 -18t-48.5 17t-22.5 49t21.5 50t49.5 18q27 0 49 -17.5t22 -49.5zM624 55q0 -31 -22.5 -49t-48.5 -18t-48.5 17t-22.5 49t21.5 50t49.5 18
q27 0 49 -17.5t22 -49.5z" />
    <glyph glyph-name="periodcentered" unicode="&#xb7;" horiz-adv-x="230" 
d="M186 270q0 -31 -22.5 -49t-48.5 -18t-48.5 17t-22.5 49t21.5 50t49.5 18q27 0 49 -17.5t22 -49.5z" />
    <glyph glyph-name="bullet" unicode="&#x2022;" horiz-adv-x="505" 
d="M421 269q0 -33 -13 -62t-36 -50t-53.5 -33.5t-65.5 -12.5t-65.5 12.5t-53.5 33.5t-36.5 50t-13.5 62t13.5 62t36.5 50.5t53.5 34t65.5 12.5t65.5 -12.5t53.5 -34t36 -50.5t13 -62z" />
    <glyph glyph-name="slash" unicode="/" horiz-adv-x="336" 
d="M118 8q-4 -12 -9 -16t-18 -4h-68q-22 0 -15 24l210 673q4 12 9 16t18 4h68q22 0 15 -24z" />
    <glyph glyph-name="parenleft" unicode="(" horiz-adv-x="327" 
d="M161 293q0 -105 33.5 -198t95.5 -176q5 -7 6.5 -14t-8.5 -12l-48 -27q-15 -8 -29 7q-80 89 -124.5 196.5t-44.5 223.5t44.5 223.5t124.5 196.5q14 15 29 7l48 -27q10 -5 8.5 -12t-6.5 -14q-62 -83 -95.5 -176t-33.5 -198z" />
    <glyph glyph-name="brokenbar" unicode="&#xa6;" horiz-adv-x="230" 
d="M170 455q0 -26 -24 -26h-60q-26 0 -26 26v230q0 24 25 24h61q13 0 18.5 -4.5t5.5 -18.5v-231zM170 10q0 -25 -24 -25h-60q-26 0 -26 25v231q0 24 25 24h61q13 0 18.5 -4.5t5.5 -18.5v-232z" />
    <glyph glyph-name="parenright" unicode=")" horiz-adv-x="327" 
d="M166 293q0 105 -33.5 198t-95.5 176q-5 7 -6.5 14t8.5 12l48 27q15 8 29 -7q80 -89 124.5 -196.5t44.5 -223.5t-44.5 -223.5t-124.5 -196.5q-14 -15 -29 -7l-48 27q-10 5 -8.5 12t6.5 14q62 83 95.5 176t33.5 198z" />
    <glyph glyph-name="bracketleft" unicode="[" horiz-adv-x="335" 
d="M320 -121q0 -13 -4.5 -17.5t-20.5 -4.5h-186q-17 0 -22 5.5t-5 22.5v791q0 18 6.5 23.5t20.5 5.5h183q17 0 22.5 -4.5t5.5 -18.5v-51q0 -11 -4.5 -16t-18.5 -5h-94v-659h92q16 0 20.5 -4t4.5 -17v-51z" />
    <glyph glyph-name="backslash" unicode="\" horiz-adv-x="336" 
d="M8 681q-7 24 15 24h68q13 0 18 -4t9 -16l210 -673q7 -24 -15 -24h-68q-13 0 -18 4t-9 16z" />
    <glyph glyph-name="bracketright" unicode="]" horiz-adv-x="334" 
d="M252 -114q0 -19 -6 -24t-20 -5h-184q-17 0 -22 4.5t-5 18.5v51q0 12 5 16.5t19 4.5h92v659h-91q-17 0 -21 4t-4 17v51q0 13 4 17.5t21 4.5h186q17 0 21.5 -5.5t4.5 -22.5v-791z" />
    <glyph glyph-name="braceleft" unicode="{" horiz-adv-x="358" 
d="M26 305q0 8 2.5 11.5t16.5 5.5q62 7 63 103l3 142q2 71 42.5 108t103.5 37h73q13 0 16 -5t1 -13l-9 -42q-2 -9 -6.5 -12t-15.5 -3h-22q-35 0 -47.5 -16.5t-13.5 -58.5l-3 -129q-1 -40 -11.5 -68t-26 -45t-33.5 -25.5t-34 -9.5v-2q16 -1 34 -9.5t33.5 -25.5t26 -45
t11.5 -68l3 -128q1 -42 13.5 -58.5t47.5 -16.5h22q11 0 15.5 -3t6.5 -12l9 -42q2 -8 -1 -13t-16 -5h-73q-63 0 -103.5 37t-42.5 108l-3 141q-1 96 -63 103q-14 2 -16.5 5.5t-2.5 11.5v42z" />
    <glyph glyph-name="bar" unicode="|" horiz-adv-x="230" 
d="M170 2q0 -14 -4 -19t-19 -5h-59q-14 0 -21 4.5t-7 18.5v692q0 22 20 22h66q24 0 24 -21v-692z" />
    <glyph glyph-name="braceright" unicode="}" horiz-adv-x="358" 
d="M332 263q0 -8 -2.5 -11.5t-16.5 -5.5q-62 -7 -63 -103l-3 -141q-2 -71 -42.5 -108t-103.5 -37h-73q-13 0 -16 5t-1 13l9 42q2 9 6.5 12t15.5 3h22q35 0 47.5 16.5t13.5 58.5l3 128q1 40 11.5 68t26 45t33.5 25.5t34 9.5v2q-16 1 -34 9.5t-33.5 25.5t-26 45t-11.5 68
l-3 129q-1 42 -13.5 58.5t-47.5 16.5h-22q-11 0 -15.5 3t-6.5 12l-9 42q-2 8 1 13t16 5h73q63 0 103.5 -37t42.5 -108l3 -142q1 -96 63 -103q14 -2 16.5 -5.5t2.5 -11.5v-42z" />
    <glyph glyph-name="hyphen" unicode="-" horiz-adv-x="287" 
d="M252 233q0 -14 -5.5 -20.5t-19.5 -6.5h-168q-14 0 -19 7t-5 19v65q0 13 4.5 18.5t18.5 5.5h168q15 0 20.5 -5.5t5.5 -19.5v-63z" />
    <glyph glyph-name="uni00AD" unicode="&#xad;" horiz-adv-x="287" 
d="M252 233q0 -14 -5.5 -20.5t-19.5 -6.5h-168q-14 0 -19 7t-5 19v65q0 13 4.5 18.5t18.5 5.5h168q15 0 20.5 -5.5t5.5 -19.5v-63z" />
    <glyph glyph-name="endash" unicode="&#x2013;" horiz-adv-x="500" 
d="M500 233q0 -14 -5.5 -20.5t-19.5 -6.5h-451q-14 0 -19 7t-5 19v65q0 13 4.5 18.5t18.5 5.5h451q15 0 20.5 -5.5t5.5 -19.5v-63z" />
    <glyph glyph-name="emdash" unicode="&#x2014;" horiz-adv-x="1000" 
d="M1000 233q0 -14 -5.5 -20.5t-19.5 -6.5h-951q-14 0 -19 7t-5 19v65q0 13 4.5 18.5t18.5 5.5h951q15 0 20.5 -5.5t5.5 -19.5v-63z" />
    <glyph glyph-name="underscore" unicode="_" horiz-adv-x="500" 
d="M500 -121q0 -11 -3 -15t-14 -4h-463q-13 0 -16.5 3.5t-3.5 11.5v26q0 9 3.5 12t13.5 3h463q14 0 17 -3t3 -14v-20z" />
    <glyph glyph-name="dagger" unicode="&#x2020;" horiz-adv-x="512" 
d="M475 380q0 -17 -19 -17l-146 2l-3 -345q0 -11 -4 -15.5t-15 -4.5h-65q-10 0 -14.5 4.5t-4.5 16.5l-4 344l-144 -2q-10 0 -14.5 3t-4.5 13v65q0 11 4 14t13 3l146 -1l-3 213q0 19 20 19h78q9 0 13.5 -3t4.5 -14l-2 -215l143 1q12 0 16.5 -2.5t4.5 -13.5v-65z" />
    <glyph glyph-name="daggerdbl" unicode="&#x2021;" horiz-adv-x="512" 
d="M475 441q0 -11 -4.5 -14t-14.5 -3l-146 2l-1 -99l125 1q10 0 15.5 -2.5t5.5 -13.5v-65q0 -11 -4.5 -14t-14.5 -3l-127 1l-2 -211q0 -11 -4 -15.5t-15 -4.5h-68q-10 0 -13 4t-3 17l-2 211l-126 -2q-10 0 -14.5 2.5t-4.5 13.5v64q0 18 17 18l127 -1l-1 99l-144 -2
q-10 0 -14.5 2.5t-4.5 13.5v64q0 18 17 18l146 -1l-3 152q0 19 20 19h78q9 0 13.5 -3t4.5 -14l-2 -154l143 1q10 0 15.5 -2.5t5.5 -13.5v-65z" />
    <glyph glyph-name="section" unicode="&#xa7;" horiz-adv-x="463" 
d="M415 350q0 -35 -12.5 -62.5t-35.5 -46.5q20 -17 32 -41.5t12 -56.5q0 -39 -15.5 -68t-42 -48.5t-61.5 -29t-73 -9.5q-37 0 -78 9t-76 24q-12 5 -12 15q0 5 2 11l16 50q4 15 13 15q3 0 11 -3q32 -13 66.5 -21t60.5 -8q32 0 53 14t21 39q0 21 -14.5 34t-45.5 25l-79 31
q-43 17 -73 49.5t-30 83.5q0 35 15 61t39 43q-23 19 -36.5 44.5t-13.5 58.5q0 37 16 63.5t41.5 44t58 26t65.5 8.5q38 0 73.5 -6.5t70.5 -21.5q5 -2 8.5 -4.5t3.5 -7.5q0 -3 -2 -11l-17 -56q-3 -11 -12 -11q-4 0 -14 4q-25 10 -53 16t-51 6q-32 0 -48.5 -14.5t-16.5 -31.5
q0 -16 10 -29t39 -24l90 -36q40 -16 67.5 -47.5t27.5 -80.5zM306 337q0 21 -17.5 36t-48.5 26l-35 13q-34 -14 -34 -46q0 -35 55 -58l48 -20q14 8 23 21t9 28z" />
    <glyph glyph-name="paragraph" unicode="&#xb6;" horiz-adv-x="535" 
d="M465 -120q0 -10 -3.5 -15.5t-14.5 -5.5h-37q-19 0 -19 22v711h-80v-707q0 -26 -23 -26h-74q-12 0 -17.5 5t-5.5 20v464q-33 4 -61.5 19t-50 37.5t-33.5 52t-12 62.5q0 37 14.5 68.5t39 54.5t57 36.5t68.5 13.5h227q14 0 19.5 -5.5t5.5 -19.5v-787z" />
    <glyph glyph-name="registered" unicode="&#xae;" horiz-adv-x="831" 
d="M779 348q0 -75 -28.5 -140.5t-78 -114t-115.5 -77t-141 -28.5q-78 0 -144 28.5t-115 77t-76.5 114t-27.5 140.5t28 140t77 113t115 76t143 28q75 0 141 -28t115.5 -76t78 -113t28.5 -140zM688 347q0 58 -20.5 108.5t-57 87.5t-86.5 58.5t-108 21.5t-108 -21.5
t-86.5 -58.5t-57.5 -87.5t-21 -108.5t21 -108.5t57.5 -88t86.5 -59t108 -21.5t108 21.5t86.5 59t57 88t20.5 108.5zM558 188q12 -17 -7 -17h-48q-13 0 -20 11l-71 116h-35v-113q0 -14 -14 -14h-42q-14 0 -14 14v321q0 17 14 17h44q27 0 46.5 -0.5t35.5 -3.5t29.5 -8.5
t27.5 -15.5q36 -27 36 -82q0 -35 -16.5 -61t-46.5 -40zM469 411q0 31 -18.5 44t-50.5 13h-23v-116h20q35 0 53.5 13.5t18.5 45.5z" />
    <glyph glyph-name="copyright" unicode="&#xa9;" horiz-adv-x="831" 
d="M779 348q0 -75 -28.5 -140.5t-78 -114t-115.5 -77t-141 -28.5q-78 0 -144 28.5t-115 77t-76.5 114t-27.5 140.5t28 140t77 113t115 76t143 28q75 0 141 -28t115.5 -76t78 -113t28.5 -140zM688 347q0 58 -20.5 108.5t-57 87.5t-86.5 58.5t-108 21.5t-108 -21.5
t-86.5 -58.5t-57.5 -87.5t-21 -108.5t21 -108.5t57.5 -88t86.5 -59t108 -21.5t108 21.5t86.5 59t57 88t20.5 108.5zM535 197q0 -8 -10 -12q-47 -20 -101 -20q-41 0 -70.5 13.5t-49.5 38t-29.5 57.5t-9.5 72t11.5 72t32.5 58t51.5 39t68.5 14q26 0 49.5 -5.5t45.5 -16.5
q10 -5 10 -10q0 -2 -2 -8l-11 -31q-3 -8 -7 -9t-10 2q-19 10 -36.5 14t-35.5 4q-43 0 -68 -33q-13 -17 -19 -39.5t-6 -48.5q0 -57 25 -90.5t70 -33.5q34 0 71 16q12 5 17 -5l11 -30q2 -6 2 -8z" />
    <glyph glyph-name="trademark" unicode="&#x2122;" horiz-adv-x="653" 
d="M592 418q1 -11 -2.5 -14t-12.5 -3h-38q-11 0 -13.5 5.5t-2.5 13.5l-3 139l-58 -147q-3 -8 -7 -9.5t-9 -1.5h-19q-12 0 -17 12l-66 148l-2 -144q0 -10 -5 -13t-12 -3h-33q-15 0 -15 17l11 258q1 10 4.5 13t11.5 3h28q8 0 11.5 -2t7.5 -10l86 -188l80 188q3 7 6 9.5t11 2.5
h29q14 0 15 -14zM250 692q8 0 11 -3t2 -12l-3 -27q-1 -5 -3.5 -9t-10.5 -4h-67v-221q0 -15 -14 -15h-43q-14 0 -14 15v221h-66q-14 0 -14 14v27q0 14 14 14h208z" />
    <glyph glyph-name="quotedblleft" unicode="&#x201c;" horiz-adv-x="406" 
d="M224 521q0 55 29 102t72 77q10 7 18 7q7 0 15 -9l10 -12q5 -6 4.5 -10.5t-7.5 -11.5q-15 -15 -28 -34.5t-13 -37.5q0 -11 6.5 -21t14 -20.5t14 -22t6.5 -24.5q0 -29 -20 -48t-49 -19q-16 0 -29.5 7.5t-23 19.5t-14.5 27t-5 30zM32 521q0 55 29 102t72 77q10 7 18 7
q7 0 15 -9l10 -12q5 -6 4.5 -10.5t-7.5 -11.5q-15 -15 -28 -34.5t-13 -37.5q0 -11 6.5 -21t14 -20.5t14 -22t6.5 -24.5q0 -29 -20 -48t-49 -19q-16 0 -29.5 7.5t-23 19.5t-14.5 27t-5 30z" />
    <glyph glyph-name="quotedblright" unicode="&#x201d;" horiz-adv-x="406" 
d="M182 623q0 -55 -29 -102t-72 -77q-10 -7 -18 -7t-15 9l-10 12q-5 6 -4.5 10.5t7.5 11.5q15 15 28 34.5t13 37.5q0 11 -6.5 21t-14 20.5t-14 21.5t-6.5 25q0 29 20 48t49 19q16 0 29.5 -7.5t23 -19.5t14.5 -27t5 -30zM374 623q0 -55 -29 -102t-72 -77q-10 -7 -18 -7t-15 9
l-10 12q-5 6 -4.5 10.5t7.5 11.5q15 15 28 34.5t13 37.5q0 11 -6.5 21t-14 20.5t-14 21.5t-6.5 25q0 29 20 48t49 19q16 0 29.5 -7.5t23 -19.5t14.5 -27t5 -30z" />
    <glyph glyph-name="quoteleft" unicode="&#x2018;" horiz-adv-x="214" 
d="M32 521q0 55 29 102t72 77q10 7 18 7q7 0 15 -9l10 -12q5 -6 4.5 -10.5t-7.5 -11.5q-15 -15 -28 -34.5t-13 -37.5q0 -11 6.5 -21t14 -20.5t14 -22t6.5 -24.5q0 -29 -20 -48t-49 -19q-16 0 -29.5 7.5t-23 19.5t-14.5 27t-5 30z" />
    <glyph glyph-name="quoteright" unicode="&#x2019;" horiz-adv-x="214" 
d="M182 623q0 -55 -29 -102t-72 -77q-10 -7 -18 -7t-15 9l-10 12q-5 6 -4.5 10.5t7.5 11.5q15 15 28 34.5t13 37.5q0 11 -6.5 21t-14 20.5t-14 21.5t-6.5 25q0 29 20 48t49 19q16 0 29.5 -7.5t23 -19.5t14.5 -27t5 -30z" />
    <glyph glyph-name="guillemotleft" unicode="&#xab;" horiz-adv-x="460" 
d="M146 230l81 -121q5 -8 3 -13t-11 -10l-36 -21q-8 -5 -14.5 -4t-14.5 11l-111 141q-7 10 -7 17q0 5 2 8.5t5 8.5l111 141q8 10 14.5 11t14.5 -4l36 -21q9 -5 11 -10t-3 -13zM329 230l81 -121q5 -8 3 -13t-11 -10l-36 -21q-8 -5 -14.5 -4t-14.5 11l-111 141q-7 10 -7 17
q0 5 2 8.5t5 8.5l111 141q8 10 14.5 11t14.5 -4l36 -21q9 -5 11 -10t-3 -13z" />
    <glyph glyph-name="guillemotright" unicode="&#xbb;" horiz-adv-x="460" 
d="M50 351q-5 8 -3 13t11 10l36 21q8 5 14.5 4t14.5 -11l111 -141q3 -5 5 -8.5t2 -8.5q0 -7 -7 -17l-111 -141q-8 -10 -14.5 -11t-14.5 4l-36 21q-9 5 -11 10t3 13l81 121zM233 351q-5 8 -3 13t11 10l36 21q8 5 14.5 4t14.5 -11l111 -141q3 -5 5 -8.5t2 -8.5q0 -7 -7 -17
l-111 -141q-8 -10 -14.5 -11t-14.5 4l-36 21q-9 5 -11 10t3 13l81 121z" />
    <glyph glyph-name="guilsinglleft" unicode="&#x2039;" horiz-adv-x="277" 
d="M146 230l81 -121q5 -8 3 -13t-11 -10l-36 -21q-8 -5 -14.5 -4t-14.5 11l-111 141q-7 10 -7 17q0 5 2 8.5t5 8.5l111 141q8 10 14.5 11t14.5 -4l36 -21q9 -5 11 -10t-3 -13z" />
    <glyph glyph-name="guilsinglright" unicode="&#x203a;" horiz-adv-x="277" 
d="M131 230l-81 121q-5 8 -3 13t11 10l36 21q8 5 14.5 4t14.5 -11l111 -141q3 -5 5 -8.5t2 -8.5q0 -7 -7 -17l-111 -141q-8 -10 -14.5 -11t-14.5 4l-36 21q-9 5 -11 10t3 13z" />
    <glyph glyph-name="quotesinglbase" unicode="&#x201a;" horiz-adv-x="214" 
d="M182 32q0 -55 -29 -102t-72 -77q-10 -7 -18 -7t-15 9l-10 12q-5 6 -4.5 10.5t7.5 11.5q15 15 28 34.5t13 37.5q0 11 -6.5 21t-14 20.5t-14 21.5t-6.5 25q0 29 20 48t49 19q16 0 29.5 -7.5t23 -19.5t14.5 -27t5 -30z" />
    <glyph glyph-name="quotedblbase" unicode="&#x201e;" horiz-adv-x="406" 
d="M182 32q0 -55 -29 -102t-72 -77q-10 -7 -18 -7t-15 9l-10 12q-5 6 -4.5 10.5t7.5 11.5q15 15 28 34.5t13 37.5q0 11 -6.5 21t-14 20.5t-14 21.5t-6.5 25q0 29 20 48t49 19q16 0 29.5 -7.5t23 -19.5t14.5 -27t5 -30zM374 32q0 -55 -29 -102t-72 -77q-10 -7 -18 -7t-15 9
l-10 12q-5 6 -4.5 10.5t7.5 11.5q15 15 28 34.5t13 37.5q0 11 -6.5 21t-14 20.5t-14 21.5t-6.5 25q0 29 20 48t49 19q16 0 29.5 -7.5t23 -19.5t14.5 -27t5 -30z" />
    <glyph glyph-name="ordfeminine" unicode="&#xaa;" horiz-adv-x="306" 
d="M187 364q-17 -14 -38 -21t-43 -7q-42 0 -64 24.5t-22 56.5q0 51 42 70t120 19v4q0 17 -9 28t-32 11q-17 0 -34 -5.5t-34 -13.5q-15 -8 -22 6l-14 28q-3 7 -3 11.5t7 8.5q23 14 52.5 22.5t59.5 8.5q34 0 56 -7t36 -21q27 -26 27 -82v-147q0 -10 -4 -14t-15 -4h-39
q-11 0 -16 2.5t-7 9.5zM182 459q-34 1 -52.5 -8t-18.5 -27q0 -24 30 -24q23 0 41 15v44z" />
    <glyph glyph-name="ordmasculine" unicode="&#xba;" horiz-adv-x="318" 
d="M301 475q0 -63 -35.5 -101t-106.5 -38t-106.5 38t-35.5 101t35.5 101.5t106.5 38.5t106.5 -38.5t35.5 -101.5zM208 475q0 32 -11.5 53t-37.5 21t-37.5 -21t-11.5 -53t11.5 -52.5t37.5 -20.5t37.5 20.5t11.5 52.5z" />
    <glyph glyph-name="zero" unicode="0" horiz-adv-x="561" 
d="M528 348q0 -71 -13.5 -136t-43 -115t-76.5 -79.5t-114 -29.5t-114 29t-77 77.5t-43.5 113t-13.5 135.5q0 70 14.5 135.5t45 116t77.5 80.5t113 30q67 0 113.5 -29.5t75.5 -78.5t42.5 -114t13.5 -135zM394 348q0 114 -26.5 180t-84.5 66q-31 0 -53 -18t-36 -50.5
t-20.5 -77.5t-6.5 -100q0 -56 6 -101.5t19.5 -78t35 -50.5t53.5 -18t54 18t35 50.5t18.5 78t5.5 101.5z" />
    <glyph glyph-name="one" unicode="1" horiz-adv-x="561" 
d="M406 30q0 -17 -7 -23.5t-24 -6.5h-65q-20 0 -26 5.5t-6 23.5v522l-139 -79q-11 -7 -20.5 -6t-16.5 15l-24 47q-11 22 10 34l200 119q11 7 20.5 9t24.5 2h48q25 0 25 -25v-637z" />
    <glyph glyph-name="two" unicode="2" horiz-adv-x="561" 
d="M511 512q0 -43 -17 -83t-45.5 -79t-65 -76t-75.5 -74q-26 -25 -51.5 -48.5t-47.5 -44.5h265q15 0 22 -5.5t7 -19.5v-53q0 -29 -29 -29h-392q-18 0 -24.5 7t-6.5 24v48q0 15 3.5 23t14.5 19q47 48 96 92.5t91 88.5q57 60 90.5 109t33.5 93q0 47 -29 69.5t-74 22.5
q-34 0 -68 -10.5t-76 -33.5q-10 -5 -18.5 -4t-14.5 14l-23 50q-5 11 -3 19t14 15q45 27 97 43t109 16q46 0 86 -12.5t69 -37t45.5 -60.5t16.5 -83z" />
    <glyph glyph-name="three" unicode="3" horiz-adv-x="561" 
d="M499 205q0 -50 -20.5 -90t-55 -68.5t-79 -43.5t-93.5 -15q-54 0 -100 10t-83 29q-11 5 -15 14t1 24l18 49q4 11 12.5 13.5t19.5 -2.5q31 -14 66 -23t73 -9q60 0 94.5 32t34.5 84q0 34 -14.5 56t-38 35t-52 18.5t-55.5 5.5h-18q-14 0 -19 8t-5 19v42q0 12 4.5 19t18.5 7
h33q55 0 87 23.5t32 74.5q0 42 -27.5 64t-73.5 22q-30 0 -62 -9t-64 -26q-11 -5 -19 -4.5t-13 13.5l-19 48q-7 19 9 30q41 26 87.5 38t100.5 12q40 0 77.5 -11t66.5 -33.5t46.5 -55.5t17.5 -77q0 -54 -30.5 -95.5t-76.5 -56.5q27 -7 51 -22.5t42.5 -37.5t29.5 -50t11 -61z
" />
    <glyph glyph-name="four" unicode="4" horiz-adv-x="561" 
d="M499 25q0 -14 -8 -19.5t-20 -5.5h-73q-13 0 -20 5.5t-7 20.5v124h-315q-18 0 -23 8.5t-5 22.5v37q0 14 2.5 23.5t10.5 26.5l189 398q6 14 13 20t22 6h72q16 0 19.5 -9.5t-2.5 -22.5l-186 -403h203v155q0 15 7.5 20t20.5 5h72q14 0 21 -5t7 -20v-387z" />
    <glyph glyph-name="five" unicode="5" horiz-adv-x="561" 
d="M520 218q0 -55 -20.5 -98t-55.5 -72t-83 -44.5t-103 -15.5q-99 0 -185 46q-23 12 -13 36l23 53q10 22 34 8q36 -20 73 -28.5t74 -8.5q27 0 50 8t40 23t27 37t10 50q0 61 -38 94q-24 21 -57.5 29.5t-75.5 8.5h-83q-19 0 -26.5 9.5t-7.5 28.5v276q0 20 7.5 27t24.5 7h324
q29 0 29 -28v-52q0 -14 -6 -21t-22 -7h-230v-145h18q54 0 103 -12.5t86.5 -39t60 -68.5t22.5 -101z" />
    <glyph glyph-name="six" unicode="6" horiz-adv-x="561" 
d="M523 236q0 -50 -15.5 -95t-45 -79t-72.5 -54t-98 -20q-71 0 -118 26.5t-75.5 70t-40.5 99.5t-12 115q0 76 18 149t55.5 130t96 92t139.5 35q52 0 99 -15q13 -4 16 -11.5t1 -18.5l-12 -54q-2 -10 -10 -15t-19 -1q-12 4 -29.5 7.5t-36.5 3.5q-45 0 -76.5 -16t-52.5 -43
t-32.5 -62.5t-14.5 -74.5q51 42 125 42q45 0 83.5 -13.5t66.5 -39.5t44 -66t16 -92zM392 227q0 23 -5.5 44t-17 37t-30 25.5t-43.5 9.5q-31 0 -64 -14.5t-54 -35.5v-25q0 -82 29 -128t86 -46q27 0 46 12t30.5 31.5t17 43t5.5 46.5z" />
    <glyph glyph-name="seven" unicode="7" horiz-adv-x="561" 
d="M520 616q0 -22 -11 -45l-263 -545q-8 -17 -17.5 -21.5t-26.5 -4.5h-88q-15 0 -18.5 11.5t2.5 22.5l272 548h-284q-15 0 -20.5 7.5t-5.5 20.5v55q0 13 5 20t20 7h407q28 0 28 -27v-49z" />
    <glyph glyph-name="eight" unicode="8" horiz-adv-x="561" 
d="M526 204q0 -50 -20 -90t-54 -68t-79 -43t-94 -15q-50 0 -94 13t-77 38.5t-52.5 64t-19.5 89.5q0 30 10.5 57t28.5 49.5t42 41t51 30.5q-44 21 -73 61.5t-29 90.5q0 43 17 76.5t47 57t69.5 36t84.5 12.5q44 0 82 -11.5t66.5 -34.5t45 -56.5t16.5 -76.5q0 -24 -8.5 -46.5
t-23 -42t-33.5 -35.5t-40 -27q61 -25 99 -70t38 -101zM367 522q0 37 -23.5 60.5t-64.5 23.5q-18 0 -33.5 -6t-27.5 -17t-19 -25.5t-7 -31.5q0 -19 8 -35t21 -30t29.5 -25t34.5 -20q14 8 28.5 18t26.5 23t19.5 29t7.5 36zM397 198q0 25 -12 45t-30.5 35.5t-40.5 27t-42 19.5
q-20 -9 -39 -22t-34 -28.5t-24.5 -34.5t-9.5 -41q0 -25 9.5 -45.5t25.5 -35t37 -22.5t45 -8t44.5 7t36.5 21t25 34.5t9 47.5z" />
    <glyph glyph-name="nine" unicode="9" horiz-adv-x="561" 
d="M41 457q0 50 15.5 95t45 79t72.5 54t98 20q70 0 117.5 -26.5t76 -70t40.5 -99.5t12 -115q0 -77 -18 -150t-55.5 -130t-96 -91.5t-139.5 -34.5q-53 0 -99 15q-13 4 -16 11.5t-1 18.5l12 54q2 10 10 15t19 1q12 -4 29.5 -7.5t36.5 -3.5q45 0 76.5 16t52.5 43t32.5 62.5
t14.5 74.5q-51 -42 -125 -42q-45 0 -83.5 13.5t-66.5 39.5t-44 65.5t-16 92.5zM172 466q0 -23 5.5 -44t17 -37t29.5 -25.5t44 -9.5q31 0 64 14.5t54 35.5v25q0 82 -29 128t-86 46q-27 0 -46 -12t-30.5 -31.5t-17 -43t-5.5 -46.5z" />
    <glyph glyph-name="dollar" unicode="$" horiz-adv-x="561" 
d="M510 197q0 -45 -14.5 -80t-40 -60.5t-60 -42t-74.5 -22.5v-73q0 -12 -2.5 -16.5t-16.5 -4.5h-25q-13 0 -15.5 5t-2.5 16v69q-89 0 -180 32q-14 5 -16.5 12t1.5 21l18 63q4 12 12.5 14t19.5 -2q32 -12 70.5 -20.5t73.5 -10.5h1v212l-83 40q-54 26 -85 68t-31 101
q0 42 16.5 74.5t44.5 56t64 37.5t74 18v79q0 16 15 16h30q11 0 14 -3.5t3 -13.5v-77q39 -2 74.5 -10.5t72.5 -24.5q11 -5 14.5 -9.5t3.5 -10.5q0 -4 -2 -10l-22 -62q-5 -14 -14.5 -14t-21.5 5q-23 10 -51 17.5t-54 11.5v-193l47 -22q30 -14 55.5 -32t45 -40.5t30.5 -51
t11 -62.5zM259 597q-28 -5 -50.5 -24t-22.5 -51q0 -34 20.5 -53t52.5 -35v163zM389 189q0 32 -20 55.5t-48 35.5v-175q29 9 48.5 30t19.5 54z" />
    <glyph glyph-name="cent" unicode="&#xa2;" horiz-adv-x="561" 
d="M483 50q5 -14 3 -20t-15 -12q-54 -25 -110 -28v-70q0 -11 -3.5 -15.5t-17.5 -4.5h-21q-13 0 -16 5t-3 17v67q-103 8 -160.5 74t-57.5 175t58 178t160 80v75q0 11 3 14.5t14 3.5h26q12 0 15 -3.5t3 -14.5v-74q27 -2 55.5 -9t52.5 -18q10 -5 11.5 -10.5t-0.5 -15.5l-13 -53
q-4 -20 -25 -10q-17 8 -37.5 13t-43.5 7v-318q23 2 44 7.5t42 13.5q9 3 14 1.5t8 -10.5zM300 397q-42 -11 -67.5 -49t-25.5 -104q0 -63 23.5 -104t69.5 -53v310z" />
    <glyph glyph-name="Euro" unicode="&#x20ac;" horiz-adv-x="561" 
d="M41 352q-9 0 -12.5 3t-3.5 13v28q0 10 3.5 13t12.5 3h54q4 65 25.5 119t58.5 92.5t88 60t113 21.5q42 0 83.5 -11t74.5 -29q18 -10 9 -29l-27 -59q-8 -15 -23 -8q-28 14 -53.5 21t-55.5 7q-38 0 -65.5 -14t-46 -38.5t-29.5 -58.5t-14 -74h186q19 0 15 -18l-6 -26
q-2 -11 -6 -13.5t-15 -2.5h-176v-25t1 -20h168q19 0 15 -18l-6 -26q-2 -11 -6 -13.5t-15 -2.5h-152q11 -66 49.5 -108.5t104.5 -42.5q28 0 53.5 6.5t53.5 20.5q15 7 23 -8l27 -58q9 -19 -9 -29q-33 -18 -73.5 -29t-84.5 -11q-62 0 -111.5 18.5t-85 52.5t-57 81.5
t-28.5 106.5h-57q-9 0 -12.5 3t-3.5 13v28q0 10 3.5 13t12.5 3h50q-1 9 -1 20.5v24.5h-49z" />
    <glyph glyph-name="florin" unicode="&#x192;" horiz-adv-x="561" 
d="M570 683q9 -5 10.5 -10.5t-1.5 -14.5l-18 -51q-4 -11 -9.5 -13.5t-16.5 1.5q-15 5 -31.5 9t-33.5 4q-23 0 -38.5 -9t-26 -24t-17 -35.5t-10.5 -42.5l-23 -117h100q8 0 11.5 -2.5t3.5 -11.5l-1 -58q0 -13 -14 -13h-116l-53 -272q-20 -107 -71 -161.5t-145 -54.5
q-24 0 -53.5 5t-51.5 15q-8 4 -10.5 8t0.5 12l21 59q4 11 9 14.5t16 -1.5q32 -13 65 -13q42 0 64 31.5t33 88.5l51 269h-81q-16 0 -15 13l4 61q1 11 14 11h95l21 111q9 46 24.5 85.5t41 68.5t62.5 45.5t88 16.5q28 0 56 -7t46 -17z" />
    <glyph glyph-name="sterling" unicode="&#xa3;" horiz-adv-x="561" 
d="M132 308h-48q-12 0 -16 3.5t-4 14.5v54q0 13 4.5 15.5t16.5 2.5h47v79q0 55 13.5 95t40.5 70t69 46.5t96 16.5q71 0 136 -27q22 -9 15 -29l-18 -54q-5 -17 -24 -10q-22 8 -45.5 13.5t-49.5 5.5q-58 0 -85 -32q-12 -15 -18.5 -36.5t-6.5 -61.5v-76h144q13 0 17 -3.5
t4 -13.5v-56q0 -12 -4.5 -14.5t-16.5 -2.5h-145v-85q0 -40 -11 -69.5t-37 -47.5v-2h284q25 0 25 -23v-57q0 -24 -24 -24h-422q-25 0 -25 25v42q0 22 19 29q38 15 53.5 44.5t15.5 74.5v93z" />
    <glyph glyph-name="yen" unicode="&#xa5;" horiz-adv-x="561" 
d="M533 692q12 0 16.5 -6t-2.5 -19l-180 -347h77q13 0 16.5 -4t3.5 -14v-28q0 -11 -4.5 -14t-16.5 -3h-91v-43h94q13 0 16 -3.5t3 -14.5v-22q0 -14 -3.5 -17.5t-16.5 -3.5h-93v-130q0 -23 -21 -23h-85q-22 0 -22 25v128h-94q-12 0 -15.5 5t-3.5 17v20q0 12 3.5 15.5
t16.5 3.5h47h46v43h-96q-11 0 -14.5 3.5t-3.5 14.5v26q0 12 4 15.5t16 3.5h76l-185 348q-5 10 -1 17t15 7h93q16 0 23.5 -4t12.5 -15l131 -262h1l128 261q6 12 13 16t21 4h75z" />
    <glyph glyph-name="numbersign" unicode="#" horiz-adv-x="561" 
d="M420 289h74q11 0 15 -4.5t3 -13.5l-7 -57q-2 -11 -6.5 -13.5t-12.5 -2.5h-81l-27 -183q-2 -9 -5.5 -12t-12.5 -3h-73q-12 0 -16 4t-2 15l27 179h-82l-27 -183q-2 -9 -5.5 -12t-12.5 -3h-73q-12 0 -16 4t-2 15l27 179h-69q-20 0 -18 18l7 57q2 11 6.5 13.5t12.5 2.5h75
l17 111h-69q-20 0 -18 18l7 57q2 11 6.5 13.5t12.5 2.5h75l28 186q2 9 5.5 12t12.5 3h73q12 0 16 -4t2 -15l-28 -182h83l29 186q2 9 5.5 12t12.5 3h73q12 0 16 -4t2 -15l-30 -182h75q11 0 15 -4.5t3 -13.5l-7 -57q-2 -11 -6.5 -13.5t-12.5 -2.5h-80zM247 400l-19 -111h83
l17 111h-81z" />
    <glyph glyph-name="percent" unicode="%" horiz-adv-x="796" 
d="M245 7q-7 -11 -13.5 -15t-20.5 -4h-61q-14 0 -19 6t2 17l419 675q7 11 13.5 15t20.5 4h61q14 0 19 -6t-2 -17zM760 176q0 -83 -38.5 -131.5t-109.5 -48.5t-109.5 48.5t-38.5 131.5t38.5 131.5t109.5 48.5t109.5 -48.5t38.5 -131.5zM662 176q0 104 -50 104t-50 -104
t50 -104t50 104zM332 516q0 -83 -38.5 -131.5t-109.5 -48.5t-109.5 48.5t-38.5 131.5t38.5 131.5t109.5 48.5t109.5 -48.5t38.5 -131.5zM234 516q0 104 -50 104t-50 -104t50 -104t50 104z" />
    <glyph glyph-name="perthousand" unicode="&#x2030;" horiz-adv-x="1122" 
d="M245 7q-7 -11 -13.5 -15t-20.5 -4h-61q-14 0 -19 6t2 17l419 675q7 11 13.5 15t20.5 4h61q14 0 19 -6t-2 -17zM760 176q0 -83 -38.5 -131.5t-109.5 -48.5t-109.5 48.5t-38.5 131.5t38.5 131.5t109.5 48.5t109.5 -48.5t38.5 -131.5zM662 176q0 104 -50 104t-50 -104
t50 -104t50 104zM332 516q0 -83 -38.5 -131.5t-109.5 -48.5t-109.5 48.5t-38.5 131.5t38.5 131.5t109.5 48.5t109.5 -48.5t38.5 -131.5zM234 516q0 104 -50 104t-50 -104t50 -104t50 104zM1086 176q0 -83 -38.5 -131.5t-109.5 -48.5t-109.5 48.5t-38.5 131.5t38.5 131.5
t109.5 48.5t109.5 -48.5t38.5 -131.5zM988 176q0 104 -50 104t-50 -104t50 -104t50 104z" />
    <glyph glyph-name="plus" unicode="+" horiz-adv-x="523" 
d="M209 211h-147q-14 0 -19 6.5t-5 18.5v56q0 13 4.5 18.5t18.5 5.5h148v145q0 15 5.5 20.5t19.5 5.5h53q14 0 20.5 -5.5t6.5 -19.5v-146h145q15 0 20.5 -5.5t5.5 -19.5v-53q0 -14 -5.5 -20.5t-19.5 -6.5h-146v-147q0 -14 -6.5 -19t-18.5 -5h-56q-13 0 -18.5 4.5t-5.5 18.5
v148z" />
    <glyph glyph-name="minus" unicode="&#x2212;" horiz-adv-x="523" 
d="M62 211q-14 0 -19 6.5t-5 18.5v56q0 13 4.5 18.5t18.5 5.5h398q15 0 20.5 -5.5t5.5 -19.5v-53q0 -14 -5.5 -20.5t-19.5 -6.5h-398z" />
    <glyph glyph-name="multiply" unicode="&#xd7;" horiz-adv-x="523" 
d="M261 189l-103 -104q-11 -10 -19 -8.5t-16 9.5l-40 40q-9 9 -9.5 16t9.5 17l104 104l-102 103q-11 11 -11 18.5t10 17.5l37 38q11 10 19 10.5t18 -9.5l103 -103l103 102q11 11 18.5 11t17.5 -10l38 -37q10 -11 10.5 -19t-9.5 -18l-103 -104l104 -103q10 -11 8.5 -19
t-9.5 -16l-40 -40q-9 -9 -16 -9.5t-17 9.5z" />
    <glyph glyph-name="less" unicode="&#x3c;" horiz-adv-x="523" 
d="M53 286q0 11 3.5 17t13.5 12l330 204q20 12 29 -4l35 -59q5 -9 4.5 -14.5t-10.5 -11.5l-252 -159l252 -159q10 -6 10.5 -11.5t-4.5 -14.5l-35 -59q-9 -16 -29 -4l-330 204q-10 6 -13.5 12t-3.5 17v30z" />
    <glyph glyph-name="divide" unicode="&#xf7;" horiz-adv-x="523" 
d="M333 437q0 -32 -22.5 -49.5t-47.5 -17.5q-13 0 -25.5 4.5t-23 13t-17 21t-6.5 28.5q0 33 22.5 50t49.5 17q26 0 48 -17.5t22 -49.5zM333 92q0 -32 -22.5 -49.5t-47.5 -17.5q-13 0 -25.5 4.5t-23 12.5t-17 20.5t-6.5 28.5q0 33 22.5 50.5t49.5 17.5q26 0 48 -17.5
t22 -49.5zM62 211q-14 0 -19 6.5t-5 18.5v56q0 13 4.5 18.5t18.5 5.5h398q15 0 20.5 -5.5t5.5 -19.5v-53q0 -14 -5.5 -20.5t-19.5 -6.5h-398z" />
    <glyph glyph-name="equal" unicode="=" horiz-adv-x="523" 
d="M62 311q-14 0 -19 6.5t-5 18.5v56q0 13 4.5 18.5t18.5 5.5h398q15 0 20.5 -5.5t5.5 -19.5v-53q0 -14 -5.5 -20.5t-19.5 -6.5h-398zM62 119q-14 0 -19 6.5t-5 18.5v56q0 13 4.5 18.5t18.5 5.5h398q15 0 20.5 -5.5t5.5 -19.5v-53q0 -14 -5.5 -20.5t-19.5 -6.5h-398z" />
    <glyph glyph-name="logicalnot" unicode="&#xac;" horiz-adv-x="523" 
d="M485 143q0 -14 -6.5 -19t-18.5 -5h-56q-13 0 -18.5 4.5t-5.5 18.5v169h-318q-14 0 -19 6.5t-5 18.5v56q0 13 4.5 18.5t18.5 5.5h398q15 0 20.5 -5.5t5.5 -19.5v-248z" />
    <glyph glyph-name="greater" unicode="&#x3e;" horiz-adv-x="523" 
d="M469 256q0 -11 -3.5 -17t-13.5 -12l-330 -204q-20 -12 -29 4l-35 59q-5 9 -4.5 14.5t10.5 11.5l252 159l-252 159q-10 6 -10.5 11.5t4.5 14.5l35 59q9 16 29 4l330 -204q10 -6 13.5 -12t3.5 -17v-30z" />
    <glyph glyph-name="notequal" unicode="&#x2260;" horiz-adv-x="523" 
d="M211 119l-48 -80q-8 -13 -14 -15t-19 6l-20 12q-13 8 -14 13.5t7 18.5l27 45h-68q-14 0 -19 6.5t-5 18.5v56q0 13 4.5 18.5t18.5 5.5h132l53 87h-184q-14 0 -19 6.5t-5 18.5v56q0 13 4.5 18.5t18.5 5.5h248l40 66q8 13 14 15t19 -6l20 -12q13 -8 14 -13.5t-7 -18.5
l-19 -31h69q15 0 20.5 -5.5t5.5 -19.5v-53q0 -14 -5.5 -20.5t-19.5 -6.5h-133l-53 -87h185q15 0 20.5 -5.5t5.5 -19.5v-53q0 -14 -5.5 -20.5t-19.5 -6.5h-249z" />
    <glyph glyph-name="approxequal" unicode="&#x2248;" horiz-adv-x="523" 
d="M463 373q-43 -80 -118 -80q-25 0 -48 8t-44.5 17.5t-40.5 17.5t-36 8q-13 0 -22 -6.5t-21 -17.5q-11 -10 -19.5 -12t-22.5 4l-21 9q-17 8 -19.5 16.5t8.5 30.5q43 80 118 80q25 0 48 -8t44.5 -17.5t40.5 -17.5t36 -8q13 0 22 6.5t21 17.5q11 10 19.5 12t22.5 -4l21 -9
q17 -8 19.5 -16.5t-8.5 -30.5zM463 167q-43 -80 -118 -80q-25 0 -48 8t-44.5 17.5t-40.5 17.5t-36 8q-13 0 -22 -6.5t-21 -17.5q-11 -10 -19.5 -12t-22.5 4l-21 9q-17 8 -19.5 16.5t8.5 30.5q43 80 118 80q25 0 48 -8t44.5 -17.5t40.5 -17.5t36 -8q13 0 22 6.5t21 17.5
q11 10 19.5 12t22.5 -4l21 -9q17 -8 19.5 -16.5t-8.5 -30.5z" />
    <glyph glyph-name="plusminus" unicode="&#xb1;" horiz-adv-x="523" 
d="M209 351h-147q-14 0 -19 6.5t-5 18.5v56q0 13 4.5 18.5t18.5 5.5h148v145q0 15 5.5 20.5t19.5 5.5h53q14 0 20.5 -5.5t6.5 -19.5v-146h145q15 0 20.5 -5.5t5.5 -19.5v-53q0 -14 -5.5 -20.5t-19.5 -6.5h-146v-147q0 -14 -6.5 -19t-18.5 -5h-56q-13 0 -18.5 4.5t-5.5 18.5
v148zM459 105q15 0 20.5 -5.5t5.5 -19.5v-53q0 -14 -5.5 -20.5t-19.5 -6.5h-398q-14 0 -19 6.5t-5 18.5v56q0 13 4.5 18.5t18.5 5.5h398z" />
    <glyph glyph-name="lessequal" unicode="&#x2264;" horiz-adv-x="523" 
d="M459 105q15 0 20.5 -5.5t5.5 -19.5v-53q0 -14 -5.5 -20.5t-19.5 -6.5h-398q-14 0 -19 6.5t-5 18.5v56q0 13 4.5 18.5t18.5 5.5h398zM39 420q0 11 3.5 17t13.5 12l330 204q20 12 29 -4l35 -59q5 -9 4.5 -14.5t-10.5 -11.5l-252 -159l252 -159q10 -6 10.5 -11.5t-4.5 -14.5
l-35 -59q-9 -16 -29 -4l-330 204q-10 6 -13.5 12t-3.5 17v30z" />
    <glyph glyph-name="greaterequal" unicode="&#x2265;" horiz-adv-x="523" 
d="M484 390q0 -11 -3.5 -17t-13.5 -12l-330 -204q-20 -12 -29 4l-35 59q-5 9 -4.5 14.5t10.5 11.5l252 159l-252 159q-10 6 -10.5 11.5t4.5 14.5l35 59q9 16 29 4l330 -204q10 -6 13.5 -12t3.5 -17v-30zM462 105q14 0 18.5 -5.5t4.5 -18.5v-56q0 -12 -5 -18.5t-19 -6.5h-398
q-14 0 -19.5 6.5t-5.5 20.5v53q0 14 5.5 19.5t20.5 5.5h398z" />
    <glyph glyph-name="asciicircum" unicode="^" horiz-adv-x="523" 
d="M268 692q10 0 15.5 -4t12.5 -13l188 -270q9 -13 7.5 -20t-11.5 -14l-55 -38q-9 -6 -15.5 -4t-14.5 13l-134 201l-134 -201q-8 -11 -14.5 -13t-15.5 4l-55 38q-10 7 -11.5 14t7.5 20l188 270q7 9 12.5 13t15.5 4h14z" />
    <glyph glyph-name="asciitilde" unicode="~" horiz-adv-x="523" 
d="M475 271q-37 -27 -72.5 -44.5t-67.5 -17.5q-22 0 -42.5 8.5t-40 18.5t-38.5 18.5t-37 8.5q-20 0 -41.5 -9.5t-43.5 -23.5q-21 -12 -34 9l-18 28q-10 15 -9 25.5t16 21.5q39 27 73.5 44.5t66.5 17.5q22 0 42.5 -8.5t40 -18.5t38.5 -18.5t37 -8.5q20 0 41.5 9t43.5 24
q20 14 34 -9l18 -28q10 -15 9 -25.5t-16 -21.5z" />
    <glyph glyph-name="lozenge" unicode="&#x25ca;" horiz-adv-x="512" 
d="M482 344q0 -22 -14 -48l-163 -291q-5 -10 -11 -13.5t-17 -3.5h-42q-11 0 -17 3.5t-11 13.5l-163 291q-14 26 -14 48v8q0 22 14 48l163 288q5 10 11 13.5t17 3.5h42q11 0 17 -3.5t11 -13.5l163 -288q14 -26 14 -48v-8zM256 554l-113 -206l113 -209l113 209z" />
    <glyph glyph-name="degree" unicode="&#xb0;" horiz-adv-x="282" 
d="M237 612q0 -39 -26.5 -66t-69.5 -27t-69.5 27t-26.5 66t26.5 66t69.5 27t69.5 -27t26.5 -66zM176 612q0 15 -10 25t-25 10t-25 -10t-10 -25t10 -25t25 -10t25 10t10 25z" />
    <glyph glyph-name="quotesingle" unicode="'" horiz-adv-x="186" 
d="M137 529q-1 -10 -3.5 -14.5t-13.5 -4.5h-55q-11 0 -13.5 4.5t-3.5 14.5l-8 158q0 8 4 13t16 5h65q22 0 20 -18z" />
    <glyph glyph-name="quotedbl" unicode="&#x22;" horiz-adv-x="331" 
d="M137 529q-1 -10 -3.5 -14.5t-13.5 -4.5h-55q-11 0 -13.5 4.5t-3.5 14.5l-8 158q0 8 4 13t16 5h65q22 0 20 -18zM282 529q-1 -10 -3.5 -14.5t-13.5 -4.5h-55q-11 0 -13.5 4.5t-3.5 14.5l-8 158q0 8 4 13t16 5h65q22 0 20 -18z" />
    <glyph glyph-name="radical" unicode="&#x221a;" horiz-adv-x="618" 
d="M46 461q0 24 24 24h144q12 0 17.5 -5t9.5 -16l98 -312l180 535q5 13 11 17t20 4h65q13 0 16.5 -6.5t-0.5 -17.5l-236 -667q-5 -11 -10.5 -14t-16.5 -3h-70q-11 0 -17.5 3t-10.5 13l-130 373h-70q-14 0 -19 5.5t-5 18.5v48z" />
    <glyph glyph-name="currency" unicode="&#xa4;" horiz-adv-x="561" 
d="M41 352q-9 0 -12.5 3t-3.5 13v28q0 10 3.5 13t12.5 3h54q4 65 25.5 119t58.5 92.5t88 60t113 21.5q42 0 83.5 -11t74.5 -29q18 -10 9 -29l-27 -59q-8 -15 -23 -8q-28 14 -53.5 21t-55.5 7q-38 0 -65.5 -14t-46 -38.5t-29.5 -58.5t-14 -74h186q19 0 15 -18l-6 -26
q-2 -11 -6 -13.5t-15 -2.5h-176v-25t1 -20h168q19 0 15 -18l-6 -26q-2 -11 -6 -13.5t-15 -2.5h-152q11 -66 49.5 -108.5t104.5 -42.5q28 0 53.5 6.5t53.5 20.5q15 7 23 -8l27 -58q9 -19 -9 -29q-33 -18 -73.5 -29t-84.5 -11q-62 0 -111.5 18.5t-85 52.5t-57 81.5
t-28.5 106.5h-57q-9 0 -12.5 3t-3.5 13v28q0 10 3.5 13t12.5 3h50q-1 9 -1 20.5v24.5h-49z" />
    <glyph glyph-name="infinity" unicode="&#x221e;" horiz-adv-x="817" 
d="M41 327q0 76 47 121t129 45q56 0 102 -26t90 -69q41 42 86 68t103 26q81 0 129 -43.5t48 -121.5q0 -40 -14 -70.5t-38 -51t-56 -31t-69 -10.5q-56 0 -100.5 24t-89.5 68q-39 -39 -86 -66t-106 -27q-37 0 -69 10.5t-55.5 31.5t-37 51.5t-13.5 70.5zM587 268q32 0 53 17
t21 45q0 30 -20 46.5t-52 16.5q-36 0 -64 -18.5t-51 -43.5q31 -32 56.5 -47.5t56.5 -15.5zM227 268q35 0 64 17.5t52 45.5q-26 26 -54 44.5t-65 18.5q-32 0 -51 -17.5t-19 -46.5q0 -30 21.5 -46t51.5 -16z" />
    <glyph glyph-name="mu" unicode="&#xb5;" horiz-adv-x="588" 
d="M374 460q0 25 25 25h70q26 0 26 -25v-317q0 -48 23 -48q6 0 12.5 2t11.5 4q8 4 15.5 2t9.5 -10l15 -43q3 -8 1.5 -15.5t-9.5 -12.5q-18 -14 -47.5 -22t-54.5 -8q-29 0 -52 12t-32 33q-23 -21 -55.5 -35t-70.5 -14q-49 0 -78 23v-161q0 -25 -25 -25h-70q-26 0 -26 25v610
q0 25 25 25h70q26 0 26 -25v-278q0 -20 3 -37t11.5 -30t23 -20t37.5 -7q29 0 60.5 12.5t54.5 32.5v327v0z" />
    <glyph glyph-name="partialdiff" unicode="&#x2202;" horiz-adv-x="558" 
d="M45 222q0 53 16 95t44.5 71t67 44t83.5 15q29 0 64.5 -9.5t62.5 -32.5q0 46 -8.5 84.5t-27 66.5t-47 44t-68.5 16q-26 0 -52.5 -7.5t-50.5 -17.5q-11 -5 -16.5 -2.5t-10.5 12.5l-23 52q-5 11 -3 18.5t14 13.5q33 17 72.5 27t77.5 10q87 0 141 -35.5t84.5 -91t41.5 -122
t11 -129.5q0 -75 -13 -140t-42 -113t-76 -75.5t-116 -27.5q-54 0 -96.5 17.5t-71 49t-43.5 74.5t-15 93zM172 220q0 -24 6 -46.5t18.5 -40t31.5 -28t45 -10.5q33 0 55 14.5t35.5 41t19.5 62.5t6 80q-46 51 -110 51q-29 0 -49.5 -10.5t-33 -27.5t-18.5 -39.5t-6 -46.5z" />
    <glyph glyph-name="summation" unicode="&#x2211;" horiz-adv-x="567" 
d="M60 -174q-20 0 -20 20v46q0 18 13 35l253 338l-257 324q-5 6 -7 11.5t-2 15.5v56q0 20 22 20h458q20 0 20 -17v-67q-1 -12 -8.5 -16t-21.5 -4h-290l188 -237q14 -18 17.5 -25.5t3.5 -21.5v-35q0 -18 -4 -28t-15 -25l-213 -286h327q23 0 23 -24v-60q0 -20 -24 -20h-463z
" />
    <glyph glyph-name="product" unicode="&#x220f;" horiz-adv-x="667" 
d="M543 -154q0 -11 -3.5 -15.5t-15.5 -4.5h-89q-12 0 -15.5 4.5t-3.5 15.5v742h-172v-742q0 -11 -3.5 -15.5t-15.5 -4.5h-89q-12 0 -15.5 4.5t-3.5 15.5v742h-64q-23 0 -23 24v60q0 20 22 20h566q22 0 20 -17l-6 -67q-2 -12 -9 -16t-21 -4h-59v-742z" />
    <glyph glyph-name="pi" unicode="&#x3c0;" horiz-adv-x="678" 
d="M119 394h-68q-9 0 -15.5 4.5t-6.5 14.5v53q0 19 21 19h541q21 0 21 -19v-53q0 -10 -6.5 -14.5t-15.5 -4.5h-85v-210q0 -43 6 -66t34 -23q11 0 22 2.5t21 7.5q8 5 16.5 3.5t13.5 -11.5l20 -45q8 -18 -7 -28q-23 -15 -52 -22.5t-60 -7.5q-44 0 -71 12.5t-41 36t-18.5 56
t-4.5 72.5v223h-144v-369q0 -25 -25 -25h-70q-26 0 -26 25v369z" />
    <glyph glyph-name="integral" unicode="&#x222b;" horiz-adv-x="409" 
d="M93 -168q-15 0 -33 2t-33 6q-13 3 -16 9t-1 15l11 56q2 11 7.5 13t14.5 0q14 -2 26 -3.5t23 -1.5q49 0 70.5 28.5t21.5 74.5v11t-1 11q-5 46 -16 99.5t-24 110t-23.5 112.5t-13.5 107q-1 7 -1 13v13q0 103 52 157.5t159 54.5q15 0 33 -2t33 -6q13 -3 16 -9t1 -15l-11 -56
q-2 -11 -7.5 -13t-14.5 0q-14 2 -26 3.5t-23 1.5q-50 0 -70.5 -31t-20.5 -78v-16q4 -56 14.5 -111t22.5 -108.5t23 -106t17 -103.5q2 -11 2 -20.5v-19.5q0 -96 -56 -147t-156 -51z" />
    <glyph glyph-name="Omega" unicode="&#x2126;" horiz-adv-x="732" 
d="M162 95q-47 29 -73 98t-26 158q0 82 20.5 147.5t59.5 111.5t96 70.5t129 24.5q75 0 131.5 -25.5t95 -71t58 -109.5t19.5 -140q0 -94 -29 -163t-77 -101v-2h96q25 0 25 -21v-48q0 -24 -25 -24h-227q-25 0 -25 24v38q0 14 7 22.5t20 15.5q50 26 74 87t24 157
q0 70 -11.5 118.5t-33 79t-52.5 44t-71 13.5q-81 0 -125 -59.5t-44 -192.5q0 -96 26 -157.5t74 -88.5q13 -8 20 -16.5t7 -22.5v-38q0 -24 -25 -24h-230q-25 0 -25 24v48q0 21 25 21h92v2z" />
    <glyph glyph-name="Delta" unicode="&#x2206;" horiz-adv-x="609" 
d="M236 669q4 10 10.5 16.5t18.5 6.5h82q12 0 19.5 -6t10.5 -15l191 -531q6 -17 11 -34.5t5 -29.5v-48q0 -17 -7 -22.5t-21 -5.5h-503q-14 0 -21 5.5t-7 22.5v50q0 10 6 29.5t12 35.5zM446 103l-141 450h-3l-150 -450h294z" />
    <glyph glyph-name="litre" unicode="&#x2113;" horiz-adv-x="533" 
d="M264 196q0 -56 15.5 -85t53.5 -29q26 0 48.5 16t45.5 42q10 12 22 0l31 -28q6 -6 6.5 -10.5t-5.5 -12.5q-75 -101 -179 -101q-39 0 -68 12t-48 32q-23 25 -32.5 59.5t-9.5 82.5v30q-5 -2 -14.5 -5t-20 -6.5t-20.5 -6.5t-14 -4q-9 -2 -12.5 0t-5.5 9l-9 39q-2 7 -1 11.5
t10 8.5q22 9 44 18.5t43 18.5v203q0 45 8.5 84.5t28 68.5t51 45.5t78.5 16.5q78 0 118.5 -46t40.5 -124q0 -91 -48.5 -159.5t-156.5 -122.5v-57zM357 532q0 39 -11 62t-35 23q-26 0 -36.5 -27.5t-10.5 -74.5v-170q51 51 72 95t21 92z" />
    <glyph glyph-name="estimated" unicode="&#x212e;" horiz-adv-x="872" 
d="M191 336q-5 0 -5 -5v-193q0 -7 2.5 -12.5t6.5 -10.5q45 -48 108 -76.5t135 -28.5q77 0 142.5 32t111.5 86h58q-54 -63 -135.5 -101t-177.5 -38q-82 0 -154 28t-126 76t-85.5 113t-31.5 139t31.5 139t85.5 113t126 76t154 28t154 -28t125.5 -76t84.5 -113t31 -139v-9h-641
zM687 557q0 13 -10 23q-46 46 -107.5 73t-131.5 27q-72 0 -134 -27.5t-108 -75.5q-10 -10 -10 -25v-191q0 -5 5 -5h491q5 0 5 5v196z" />
    <glyph glyph-name="numero" unicode="&#x2116;" horiz-adv-x="1042" 
d="M652 25q0 -16 -6.5 -20.5t-17.5 -4.5h-67q-23 0 -37 20l-323 450h-1v-445q0 -14 -6 -19.5t-19 -5.5h-74q-14 0 -20 4.5t-6 19.5v643q0 16 6.5 20.5t19.5 4.5h67q12 0 19 -4t14 -13l324 -452h1v446q0 23 25 23h78q16 0 19.5 -7t3.5 -18v-642zM995 25q0 -14 -5.5 -19.5
t-19.5 -5.5h-239q-23 0 -23 25v23q0 12 4.5 18t18.5 6h240q24 0 24 -24v-23zM996 275q0 -32 -9 -60t-27.5 -49t-45.5 -33t-63 -12t-63 12t-45.5 33t-27.5 49t-9 60q0 31 9 59t27.5 49t45.5 33.5t63 12.5t63 -12.5t45.5 -33.5t27.5 -49t9 -59zM911 275q0 34 -14 60.5
t-46 26.5t-46 -26.5t-14 -60.5t14 -60.5t46 -26.5t46 26.5t14 60.5z" />
    <glyph glyph-name="fraction" unicode="&#x2044;" horiz-adv-x="163" 
d="M-72 7q-7 -11 -13.5 -15t-20.5 -4h-61q-14 0 -19 6t2 17l419 675q7 11 13.5 15t20.5 4h61q14 0 19 -6t-2 -17z" />
    <glyph glyph-name="onesuperior" unicode="&#xb9;" horiz-adv-x="340" 
d="M245 465q0 -10 -4 -14.5t-18 -4.5h-49q-14 0 -18 4.5t-4 14.5v234l-62 -32q-11 -5 -17 -4t-11 10l-20 34q-5 8 -4 14t11 11l107 57q11 5 17.5 7t19.5 2h34q18 0 18 -16v-317z" />
    <glyph glyph-name="twosuperior" unicode="&#xb2;" horiz-adv-x="340" 
d="M43 480q0 7 1 12.5t3.5 10t6.5 9t11 11.5q36 34 61 59t40.5 44t22.5 34.5t7 30.5q0 36 -44 36q-16 0 -33.5 -5.5t-35.5 -14.5q-15 -8 -22 7l-14 32q-8 18 5 25q22 13 53 22t63 9q54 0 89.5 -27t35.5 -75q0 -20 -6 -39t-21 -40t-39 -45.5t-60 -53.5h107q11 0 14.5 -3.5
t3.5 -13.5v-43q0 -8 -3 -12t-14 -4h-215q-9 0 -13 3.5t-4 14.5v16z" />
    <glyph glyph-name="threesuperior" unicode="&#xb3;" horiz-adv-x="340" 
d="M104 648q0 14 14 14h20q23 0 38 7t15 27q0 16 -12.5 23.5t-30.5 7.5q-15 0 -32 -4t-34 -11q-9 -4 -13.5 -2t-7.5 9l-13 33q-3 9 -2 14.5t11 10.5q24 13 51.5 19t55.5 6q52 0 87 -24t35 -69q0 -52 -49 -74q28 -9 46.5 -29t18.5 -53q0 -48 -38.5 -79.5t-102.5 -31.5
q-67 0 -114 26q-14 8 -9 23l13 35q7 18 24 11q43 -19 75 -19q24 0 39.5 10t15.5 31t-18 30t-54 9h-15q-9 0 -11.5 3t-2.5 11v36z" />
    <glyph glyph-name="onehalf" unicode="&#xbd;" horiz-adv-x="844" 
d="M257 359q0 -10 -4 -14.5t-18 -4.5h-49q-14 0 -18 4.5t-4 14.5v234l-62 -32q-11 -5 -17 -4t-11 10l-20 34q-5 8 -4 14t11 11l107 57q11 5 17.5 7t19.5 2h34q18 0 18 -16v-317zM520 34q0 7 1 12.5t3.5 10t6.5 9t11 11.5q36 34 61 59t40.5 44t22.5 34.5t7 30.5q0 36 -44 36
q-16 0 -33.5 -5.5t-35.5 -14.5q-15 -8 -22 7l-14 32q-8 18 5 25q22 13 53 22t63 9q54 0 89.5 -27t35.5 -75q0 -20 -6 -39t-21 -40t-39 -45.5t-60 -53.5h107q11 0 14.5 -3.5t3.5 -13.5v-43q0 -8 -3 -12t-14 -4h-215q-9 0 -13 3.5t-4 14.5v16zM262 7q-7 -11 -13.5 -15
t-20.5 -4h-61q-14 0 -19 6t2 17l419 675q7 11 13.5 15t20.5 4h61q14 0 19 -6t-2 -17z" />
    <glyph glyph-name="onequarter" unicode="&#xbc;" horiz-adv-x="844" 
d="M678 199q0 9 3.5 13t16.5 4h52q13 0 16.5 -4t3.5 -13v-182q0 -9 -3.5 -13t-16.5 -4h-52q-13 0 -16.5 4t-3.5 13v46h-166q-18 0 -18 19v19q0 26 14 57l78 179q4 8 8.5 11.5t15.5 3.5h56q22 0 14 -20l-81 -193h79v60zM257 359q0 -10 -4 -14.5t-18 -4.5h-49q-14 0 -18 4.5
t-4 14.5v234l-62 -32q-11 -5 -17 -4t-11 10l-20 34q-5 8 -4 14t11 11l107 57q11 5 17.5 7t19.5 2h34q18 0 18 -16v-317zM262 7q-7 -11 -13.5 -15t-20.5 -4h-61q-14 0 -19 6t2 17l419 675q7 11 13.5 15t20.5 4h61q14 0 19 -6t-2 -17z" />
    <glyph glyph-name="threequarters" unicode="&#xbe;" horiz-adv-x="844" 
d="M120 542q0 14 14 14h20q23 0 38 7t15 27q0 16 -12.5 23.5t-30.5 7.5q-15 0 -32 -4t-34 -11q-9 -4 -13.5 -2t-7.5 9l-13 33q-3 9 -2 14.5t11 10.5q24 13 51.5 19t55.5 6q52 0 87 -24t35 -69q0 -52 -49 -74q28 -9 46.5 -29t18.5 -53q0 -48 -38.5 -79.5t-102.5 -31.5
q-67 0 -114 26q-14 8 -9 23l13 35q7 18 24 11q43 -19 75 -19q24 0 39.5 10t15.5 31t-18 30t-54 9h-15q-9 0 -11.5 3t-2.5 11v36zM696 199q0 9 3.5 13t16.5 4h52q13 0 16.5 -4t3.5 -13v-182q0 -9 -3.5 -13t-16.5 -4h-52q-13 0 -16.5 4t-3.5 13v46h-166q-18 0 -18 19v19
q0 26 14 57l78 179q4 8 8.5 11.5t15.5 3.5h56q22 0 14 -20l-81 -193h79v60zM280 7q-7 -11 -13.5 -15t-20.5 -4h-61q-14 0 -19 6t2 17l419 675q7 11 13.5 15t20.5 4h61q14 0 19 -6t-2 -17z" />
    <glyph glyph-name="grave" unicode="`" 
d="M266 615q11 -8 12 -14.5t-7 -17.5l-17 -25q-8 -11 -14.5 -12t-17.5 5l-152 84q-18 10 -6 28l30 45q8 11 15.5 12t19.5 -8z" />
    <glyph glyph-name="acute" unicode="&#xb4;" 
d="M207 712q12 9 19.5 8t15.5 -12l30 -45q12 -18 -6 -28l-152 -84q-11 -6 -17.5 -5t-14.5 12l-17 25q-8 11 -7 17.5t12 14.5z" />
    <glyph glyph-name="dieresis" unicode="&#xa8;" 
d="M142 633q0 -28 -20 -43t-41 -15q-22 0 -42 14.5t-20 42.5q0 29 19 44t43 15q23 0 42 -15t19 -43zM325 633q0 -28 -20 -43t-41 -15q-22 0 -42 14.5t-20 42.5q0 29 19 44t43 15q23 0 42 -15t19 -43z" />
    <glyph glyph-name="circumflex" unicode="&#x2c6;" 
d="M180 705q11 0 16.5 -2.5t12.5 -8.5l100 -91q14 -14 2 -26l-17 -18q-8 -8 -14.5 -8t-20.5 9l-87 57l-87 -57q-14 -9 -20.5 -9t-14.5 8l-17 18q-12 12 2 26l100 91q7 6 12.5 8.5t16.5 2.5h16z" />
    <glyph glyph-name="tilde" unicode="&#x2dc;" 
d="M290 667q11 7 17 6t11 -10l16 -32q9 -17 -10 -29q-20 -14 -44 -23.5t-47 -9.5q-18 0 -34.5 5.5t-31 12t-28 12t-25.5 5.5q-26 0 -60 -21q-11 -7 -17 -6t-11 10l-16 32q-9 17 10 29q20 14 44 23.5t47 9.5q18 0 34.5 -5.5t31 -12t28 -12t25.5 -5.5q14 0 28.5 5t31.5 16z
" />
    <glyph glyph-name="macron" unicode="&#xaf;" 
d="M292 667q11 0 15.5 -4t4.5 -15v-38q0 -11 -4.5 -15t-15.5 -4h-241q-11 0 -15.5 4t-4.5 15v38q0 11 4.5 15t15.5 4h241z" />
    <glyph glyph-name="breve" unicode="&#x2d8;" 
d="M172 562q-51 0 -89 27.5t-46 75.5q-4 24 19 24h31q15 0 19 -4t9 -14q16 -34 57 -34t57 34q5 10 9 14t19 4h31q23 0 19 -24q-8 -48 -45 -75.5t-90 -27.5z" />
    <glyph glyph-name="dotaccent" unicode="&#x2d9;" 
d="M236 630q0 -29 -20 -45t-43 -16t-44 15.5t-21 44.5t20.5 45t44.5 16t43.5 -15.5t19.5 -44.5z" />
    <glyph glyph-name="ring" unicode="&#x2da;" 
d="M172 598q12 0 19 8t7 19t-7 19t-19 8t-19 -8t-7 -19t7 -19t19 -8zM172 545q-35 0 -58.5 22.5t-23.5 57.5t23.5 57.5t58.5 22.5t58.5 -22.5t23.5 -57.5t-23.5 -57.5t-58.5 -22.5z" />
    <glyph glyph-name="cedilla" unicode="&#xb8;" 
d="M296 -129q0 -38 -31.5 -62.5t-83.5 -24.5q-39 0 -73 14q-16 6 -13 19l7 32q2 5 5.5 7.5t15.5 -1.5t26.5 -6.5t23.5 -2.5q17 0 29 6.5t12 19.5q0 12 -8.5 19t-40.5 7h-14q-26 0 -31.5 7t-3.5 24l8 71h64l-3 -44h8q49 0 76 -21.5t27 -63.5z" />
    <glyph glyph-name="hungarumlaut" unicode="&#x2dd;" 
d="M170 692q8 -8 8.5 -14.5t-9.5 -13.5l-127 -100q-13 -11 -19.5 -10.5t-14.5 9.5l-14 17q-8 9 -7.5 14t9.5 15l109 111q11 11 19.5 13t16.5 -8zM350 692q8 -8 8.5 -14.5t-9.5 -13.5l-127 -100q-13 -11 -19.5 -10.5t-14.5 9.5l-14 17q-8 9 -7.5 14t9.5 15l109 111
q11 11 19.5 13t16.5 -8z" />
    <glyph glyph-name="ogonek" unicode="&#x2db;" 
d="M280 -178q2 -5 0.5 -10t-12.5 -10q-15 -7 -38.5 -11.5t-44.5 -4.5q-51 0 -81.5 25.5t-30.5 67.5q0 46 34 80t87 55l44 -14q-42 -29 -61.5 -55t-19.5 -52q0 -20 12.5 -31.5t36.5 -11.5q12 0 23.5 2t25.5 6q8 2 11.5 0t5.5 -9z" />
    <glyph glyph-name="caron" unicode="&#x2c7;" 
d="M164 551q-11 0 -16.5 2.5t-12.5 8.5l-100 91q-14 14 -2 26l17 18q8 8 14.5 8t20.5 -9l87 -57l87 57q14 9 20.5 9t14.5 -8l17 -18q12 -12 -2 -26l-100 -91q-7 -6 -12.5 -8.5t-16.5 -2.5h-16z" />
    <glyph glyph-name="commaaccent" unicode="&#x326;" 
d="M232 -108q0 -45 -23.5 -83t-58.5 -63q-9 -6 -15 -6t-12 8l-8 9q-7 9 2 18q13 13 23.5 28.5t10.5 30.5q0 9 -5.5 17t-11.5 16.5t-11.5 18t-5.5 20.5q0 23 16.5 38.5t39.5 15.5q26 0 42.5 -21.5t16.5 -46.5z" />
    <glyph glyph-name="grave.cap" 
d="M266 815q11 -8 12 -14.5t-7 -17.5l-17 -25q-8 -11 -14.5 -12t-17.5 5l-152 84q-18 10 -6 28l30 45q8 11 15.5 12t19.5 -8z" />
    <glyph glyph-name="acute.cap" 
d="M207 912q12 9 19.5 8t15.5 -12l30 -45q12 -18 -6 -28l-152 -84q-11 -6 -17.5 -5t-14.5 12l-17 25q-8 11 -7 17.5t12 14.5z" />
    <glyph glyph-name="dieresis.cap" 
d="M142 833q0 -28 -20 -43t-41 -15q-22 0 -42 14.5t-20 42.5q0 29 19 44t43 15q23 0 42 -15t19 -43zM325 833q0 -28 -20 -43t-41 -15q-22 0 -42 14.5t-20 42.5q0 29 19 44t43 15q23 0 42 -15t19 -43z" />
    <glyph glyph-name="circumflex.cap" 
d="M180 905q11 0 16.5 -2.5t12.5 -8.5l100 -91q14 -14 2 -26l-17 -18q-8 -8 -14.5 -8t-20.5 9l-87 57l-87 -57q-14 -9 -20.5 -9t-14.5 8l-17 18q-12 12 2 26l100 91q7 6 12.5 8.5t16.5 2.5h16z" />
    <glyph glyph-name="tilde.cap" 
d="M290 867q11 7 17 6t11 -10l16 -32q9 -17 -10 -29q-20 -14 -44 -23.5t-47 -9.5q-18 0 -34.5 5.5t-31 12t-28 12t-25.5 5.5q-26 0 -60 -21q-11 -7 -17 -6t-11 10l-16 32q-9 17 10 29q20 14 44 23.5t47 9.5q18 0 34.5 -5.5t31 -12t28 -12t25.5 -5.5q14 0 28.5 5t31.5 16z
" />
    <glyph glyph-name="macron.cap" 
d="M292 867q11 0 15.5 -4t4.5 -15v-38q0 -11 -4.5 -15t-15.5 -4h-241q-11 0 -15.5 4t-4.5 15v38q0 11 4.5 15t15.5 4h241z" />
    <glyph glyph-name="breve.cap" 
d="M172 762q-51 0 -89 27.5t-46 75.5q-4 24 19 24h31q15 0 19 -4t9 -14q16 -34 57 -34t57 34q5 10 9 14t19 4h31q23 0 19 -24q-8 -48 -45 -75.5t-90 -27.5z" />
    <glyph glyph-name="dotaccent.cap" 
d="M236 830q0 -29 -20 -45t-43 -16t-44 15.5t-21 44.5t20.5 45t44.5 16t43.5 -15.5t19.5 -44.5z" />
    <glyph glyph-name="ring.cap" 
d="M172 798q12 0 19 8t7 19t-7 19t-19 8t-19 -8t-7 -19t7 -19t19 -8zM172 745q-35 0 -58.5 22.5t-23.5 57.5t23.5 57.5t58.5 22.5t58.5 -22.5t23.5 -57.5t-23.5 -57.5t-58.5 -22.5z" />
    <glyph glyph-name="hungarumlaut.cap" 
d="M175 876q6 -9 5.5 -15.5t-11.5 -11.5l-142 -77q-14 -8 -21 -6.5t-13 11.5l-11 19q-6 11 -5 16t12 13l127 90q25 18 36 -1zM362 876q6 -9 5.5 -15.5t-11.5 -11.5l-142 -77q-14 -8 -21 -6.5t-13 11.5l-11 19q-6 11 -5 16t12 13l127 90q25 18 36 -1z" />
    <glyph glyph-name="caron.cap" 
d="M164 751q-11 0 -16.5 2.5t-12.5 8.5l-100 91q-14 14 -2 26l17 18q8 8 14.5 8t20.5 -9l87 -57l87 57q14 9 20.5 9t14.5 -8l17 -18q12 -12 -2 -26l-100 -91q-7 -6 -12.5 -8.5t-16.5 -2.5h-16z" />
    <glyph glyph-name="Agrave" unicode="&#xc0;" horiz-adv-x="643" 
d="M408 268l-71 211q-7 21 -11.5 37t-8.5 28h-2q-8 -26 -21 -66l-71 -210h185zM253 672q4 9 10 14.5t17 5.5h80q21 0 28 -18l246 -648q4 -11 0 -18.5t-15 -7.5h-91q-16 0 -22.5 6t-11.5 18l-52 147h-253l-52 -150q-3 -10 -9 -15.5t-18 -5.5h-86q-12 0 -15.5 7t0.5 18z
M415 815q11 -8 12 -14.5t-7 -17.5l-17 -25q-8 -11 -14.5 -12t-17.5 5l-152 84q-18 10 -6 28l30 45q8 11 15.5 12t19.5 -8z" />
    <glyph glyph-name="Aacute" unicode="&#xc1;" horiz-adv-x="643" 
d="M408 268l-71 211q-7 21 -11.5 37t-8.5 28h-2q-8 -26 -21 -66l-71 -210h185zM253 672q4 9 10 14.5t17 5.5h80q21 0 28 -18l246 -648q4 -11 0 -18.5t-15 -7.5h-91q-16 0 -22.5 6t-11.5 18l-52 147h-253l-52 -150q-3 -10 -9 -15.5t-18 -5.5h-86q-12 0 -15.5 7t0.5 18z
M356 912q12 9 19.5 8t15.5 -12l30 -45q12 -18 -6 -28l-152 -84q-11 -6 -17.5 -5t-14.5 12l-17 25q-8 11 -7 17.5t12 14.5z" />
    <glyph glyph-name="Acircumflex" unicode="&#xc2;" horiz-adv-x="643" 
d="M408 268l-71 211q-7 21 -11.5 37t-8.5 28h-2q-8 -26 -21 -66l-71 -210h185zM253 672q4 9 10 14.5t17 5.5h80q21 0 28 -18l246 -648q4 -11 0 -18.5t-15 -7.5h-91q-16 0 -22.5 6t-11.5 18l-52 147h-253l-52 -150q-3 -10 -9 -15.5t-18 -5.5h-86q-12 0 -15.5 7t0.5 18z
M328 905q11 0 16.5 -2.5t12.5 -8.5l100 -91q14 -14 2 -26l-17 -18q-8 -8 -14.5 -8t-20.5 9l-87 57l-87 -57q-14 -9 -20.5 -9t-14.5 8l-17 18q-12 12 2 26l100 91q7 6 12.5 8.5t16.5 2.5h16z" />
    <glyph glyph-name="Atilde" unicode="&#xc3;" horiz-adv-x="643" 
d="M408 268l-71 211q-7 21 -11.5 37t-8.5 28h-2q-8 -26 -21 -66l-71 -210h185zM253 672q4 9 10 14.5t17 5.5h80q21 0 28 -18l246 -648q4 -11 0 -18.5t-15 -7.5h-91q-16 0 -22.5 6t-11.5 18l-52 147h-253l-52 -150q-3 -10 -9 -15.5t-18 -5.5h-86q-12 0 -15.5 7t0.5 18z
M438 867q11 7 17 6t11 -10l16 -32q9 -17 -10 -29q-20 -14 -44 -23.5t-47 -9.5q-18 0 -34.5 5.5t-31 12t-28 12t-25.5 5.5q-26 0 -60 -21q-11 -7 -17 -6t-11 10l-16 32q-9 17 10 29q20 14 44 23.5t47 9.5q18 0 34.5 -5.5t31 -12t28 -12t25.5 -5.5q14 0 28.5 5t31.5 16z" />
    <glyph glyph-name="Adieresis" unicode="&#xc4;" horiz-adv-x="643" 
d="M408 268l-71 211q-7 21 -11.5 37t-8.5 28h-2q-8 -26 -21 -66l-71 -210h185zM253 672q4 9 10 14.5t17 5.5h80q21 0 28 -18l246 -648q4 -11 0 -18.5t-15 -7.5h-91q-16 0 -22.5 6t-11.5 18l-52 147h-253l-52 -150q-3 -10 -9 -15.5t-18 -5.5h-86q-12 0 -15.5 7t0.5 18z
M291 833q0 -28 -20 -43t-41 -15q-22 0 -42 14.5t-20 42.5q0 29 19 44t43 15q23 0 42 -15t19 -43zM474 833q0 -28 -20 -43t-41 -15q-22 0 -42 14.5t-20 42.5q0 29 19 44t43 15q23 0 42 -15t19 -43z" />
    <glyph glyph-name="Amacron" unicode="&#x100;" horiz-adv-x="643" 
d="M408 268l-71 211q-7 21 -11.5 37t-8.5 28h-2q-8 -26 -21 -66l-71 -210h185zM253 672q4 9 10 14.5t17 5.5h80q21 0 28 -18l246 -648q4 -11 0 -18.5t-15 -7.5h-91q-16 0 -22.5 6t-11.5 18l-52 147h-253l-52 -150q-3 -10 -9 -15.5t-18 -5.5h-86q-12 0 -15.5 7t0.5 18z
M442 867q11 0 15.5 -4t4.5 -15v-38q0 -11 -4.5 -15t-15.5 -4h-241q-11 0 -15.5 4t-4.5 15v38q0 11 4.5 15t15.5 4h241z" />
    <glyph glyph-name="Abreve" unicode="&#x102;" horiz-adv-x="643" 
d="M408 268l-71 211q-7 21 -11.5 37t-8.5 28h-2q-8 -26 -21 -66l-71 -210h185zM253 672q4 9 10 14.5t17 5.5h80q21 0 28 -18l246 -648q4 -11 0 -18.5t-15 -7.5h-91q-16 0 -22.5 6t-11.5 18l-52 147h-253l-52 -150q-3 -10 -9 -15.5t-18 -5.5h-86q-12 0 -15.5 7t0.5 18z
M323 762q-51 0 -89 27.5t-46 75.5q-4 24 19 24h31q15 0 19 -4t9 -14q16 -34 57 -34t57 34q5 10 9 14t19 4h31q23 0 19 -24q-8 -48 -45 -75.5t-90 -27.5z" />
    <glyph glyph-name="Acaron" unicode="&#x1cd;" horiz-adv-x="643" 
d="M312 751q-11 0 -16.5 2.5t-12.5 8.5l-100 91q-14 14 -2 26l17 18q8 8 14.5 8t20.5 -9l87 -57l87 57q14 9 20.5 9t14.5 -8l17 -18q12 -12 -2 -26l-100 -91q-7 -6 -12.5 -8.5t-16.5 -2.5h-16zM408 268l-71 211q-7 21 -11.5 37t-8.5 28h-2q-8 -26 -21 -66l-71 -210h185z
M253 672q4 9 10 14.5t17 5.5h80q21 0 28 -18l246 -648q4 -11 0 -18.5t-15 -7.5h-91q-16 0 -22.5 6t-11.5 18l-52 147h-253l-52 -150q-3 -10 -9 -15.5t-18 -5.5h-86q-12 0 -15.5 7t0.5 18z" />
    <glyph glyph-name="Aring" unicode="&#xc5;" horiz-adv-x="643" 
d="M408 268l-71 211q-7 21 -11.5 37t-8.5 28h-2q-8 -26 -21 -66l-71 -210h185zM253 672q4 9 10 14.5t17 5.5h80q21 0 28 -18l246 -648q4 -11 0 -18.5t-15 -7.5h-91q-16 0 -22.5 6t-11.5 18l-52 147h-253l-52 -150q-3 -10 -9 -15.5t-18 -5.5h-86q-12 0 -15.5 7t0.5 18z
M322 798q12 0 19 8t7 19t-7 19t-19 8t-19 -8t-7 -19t7 -19t19 -8zM322 745q-35 0 -58.5 22.5t-23.5 57.5t23.5 57.5t58.5 22.5t58.5 -22.5t23.5 -57.5t-23.5 -57.5t-58.5 -22.5z" />
    <glyph glyph-name="Aringacute" unicode="&#x1fa;" horiz-adv-x="643" 
d="M408 268l-71 211q-7 21 -11.5 37t-8.5 28h-2q-8 -26 -21 -66l-71 -210h185zM253 672q4 9 10 14.5t17 5.5h80q21 0 28 -18l246 -648q4 -11 0 -18.5t-15 -7.5h-91q-16 0 -22.5 6t-11.5 18l-52 147h-253l-52 -150q-3 -10 -9 -15.5t-18 -5.5h-86q-12 0 -15.5 7t0.5 18z
M322 761q12 0 19 8t7 19t-7 19t-19 8t-19 -8t-7 -19t7 -19t19 -8zM322 708q-35 0 -58.5 22.5t-23.5 57.5t23.5 57.5t58.5 22.5t58.5 -22.5t23.5 -57.5t-23.5 -57.5t-58.5 -22.5zM356 1038q12 9 19.5 8t15.5 -12l30 -45q12 -18 -6 -28l-152 -84q-11 -6 -17.5 -5t-14.5 12
l-17 25q-8 11 -7 17.5t12 14.5z" />
    <glyph glyph-name="Aogonek" unicode="&#x104;" horiz-adv-x="642" 
d="M407 268l-71 211q-7 21 -11.5 37t-8.5 28h-2q-4 -13 -8.5 -29t-12.5 -37l-71 -210h185zM391 -121q0 45 28.5 78t76.5 54l-55 160h-253l-52 -150q-3 -10 -9 -15.5t-18 -5.5h-89q-14 0 -14 13q0 7 2 11l244 648q4 9 10 14.5t17 5.5h80q21 0 28 -18l245 -645q10 -26 -16 -29
q-66 -8 -103.5 -39t-37.5 -68q0 -20 12.5 -31.5t36.5 -11.5q12 0 23.5 2t25.5 6q8 2 11.5 0t5.5 -9l8 -27q2 -5 0.5 -10t-12.5 -10q-15 -7 -38.5 -11.5t-44.5 -4.5q-51 0 -81.5 25.5t-30.5 67.5z" />
    <glyph glyph-name="AE" unicode="&#xc6;" horiz-adv-x="924" 
d="M881 24q0 -24 -24 -24h-366q-14 0 -22.5 5.5t-8.5 21.5v144h-223l-93 -150q-7 -11 -13 -16t-17 -5h-87q-8 0 -12.5 7t1.5 17l399 646q6 10 13 16t19 6h412q25 0 22 -21l-8 -62q-2 -14 -9.5 -17.5t-23.5 -3.5h-252v-181h231q26 0 26 -22v-57q0 -24 -25 -24h-232v-200h268
q25 0 25 -23v-57zM460 268v281l-169 -281h169z" />
    <glyph glyph-name="AEacute" unicode="&#x1fc;" horiz-adv-x="924" 
d="M881 24q0 -24 -24 -24h-366q-14 0 -22.5 5.5t-8.5 21.5v144h-223l-93 -150q-7 -11 -13 -16t-17 -5h-87q-8 0 -12.5 7t1.5 17l399 646q6 10 13 16t19 6h412q25 0 22 -21l-8 -62q-2 -14 -9.5 -17.5t-23.5 -3.5h-252v-181h231q26 0 26 -22v-57q0 -24 -25 -24h-232v-200h268
q25 0 25 -23v-57zM460 268v281l-169 -281h169zM674 912q12 9 19.5 8t15.5 -12l30 -45q12 -18 -6 -28l-152 -84q-11 -6 -17.5 -5t-14.5 12l-17 25q-8 11 -7 17.5t12 14.5z" />
    <glyph glyph-name="Cacute" unicode="&#x106;" horiz-adv-x="596" 
d="M571 60q8 -21 -14 -31q-50 -20 -97 -30.5t-102 -10.5q-79 0 -138 26.5t-98 73.5t-58.5 112.5t-19.5 142.5t22.5 143t64.5 115t102 76.5t135 27.5q102 0 188 -42q12 -6 15 -11.5t-2 -18.5l-23 -63q-6 -19 -25 -9q-38 20 -72.5 28t-72.5 8q-52 0 -88.5 -22t-60 -57t-34 -80
t-10.5 -90q0 -58 13 -104.5t38 -79.5t61.5 -50.5t82.5 -17.5q72 0 144 32q10 5 16 3.5t11 -12.5zM422 912q12 9 19.5 8t15.5 -12l30 -45q12 -18 -6 -28l-152 -84q-11 -6 -17.5 -5t-14.5 12l-17 25q-8 11 -7 17.5t12 14.5z" />
    <glyph glyph-name="Ccedilla" unicode="&#xc7;" horiz-adv-x="596" 
d="M479 -129q0 -38 -31.5 -62.5t-83.5 -24.5q-39 0 -73 14q-16 6 -13 19l7 32q2 5 5.5 7.5t15.5 -1.5t26.5 -6.5t23.5 -2.5q17 0 29 6.5t12 19.5q0 12 -8.5 19t-40.5 7h-14q-26 0 -31.5 7t-3.5 24l7 63q-66 8 -115 37.5t-82 75.5t-49 106.5t-16 131.5q0 77 22.5 143
t64.5 115t102 76.5t135 27.5q102 0 188 -42q12 -6 15 -11.5t-2 -18.5l-23 -63q-6 -19 -25 -9q-38 20 -72.5 28t-72.5 8q-52 0 -88.5 -22t-60 -57t-34 -80t-10.5 -90q0 -58 13 -104.5t38 -79.5t61.5 -50.5t82.5 -17.5q72 0 144 32q10 5 16 3.5t11 -12.5l22 -59q8 -21 -14 -31
q-48 -20 -92 -29.5t-95 -11.5l-2 -32h8q49 0 76 -21.5t27 -63.5z" />
    <glyph glyph-name="Ccircumflex" unicode="&#x108;" horiz-adv-x="596" 
d="M571 60q8 -21 -14 -31q-50 -20 -97 -30.5t-102 -10.5q-79 0 -138 26.5t-98 73.5t-58.5 112.5t-19.5 142.5t22.5 143t64.5 115t102 76.5t135 27.5q102 0 188 -42q12 -6 15 -11.5t-2 -18.5l-23 -63q-6 -19 -25 -9q-38 20 -72.5 28t-72.5 8q-52 0 -88.5 -22t-60 -57t-34 -80
t-10.5 -90q0 -58 13 -104.5t38 -79.5t61.5 -50.5t82.5 -17.5q72 0 144 32q10 5 16 3.5t11 -12.5zM384 905q11 0 16.5 -2.5t12.5 -8.5l100 -91q14 -14 2 -26l-17 -18q-8 -8 -14.5 -8t-20.5 9l-87 57l-87 -57q-14 -9 -20.5 -9t-14.5 8l-17 18q-12 12 2 26l100 91q7 6 12.5 8.5
t16.5 2.5h16z" />
    <glyph glyph-name="Ccaron" unicode="&#x10c;" horiz-adv-x="596" 
d="M571 60q8 -21 -14 -31q-50 -20 -97 -30.5t-102 -10.5q-79 0 -138 26.5t-98 73.5t-58.5 112.5t-19.5 142.5t22.5 143t64.5 115t102 76.5t135 27.5q102 0 188 -42q12 -6 15 -11.5t-2 -18.5l-23 -63q-6 -19 -25 -9q-38 20 -72.5 28t-72.5 8q-52 0 -88.5 -22t-60 -57t-34 -80
t-10.5 -90q0 -58 13 -104.5t38 -79.5t61.5 -50.5t82.5 -17.5q72 0 144 32q10 5 16 3.5t11 -12.5zM349 751q-11 0 -16.5 2.5t-12.5 8.5l-100 91q-14 14 -2 26l17 18q8 8 14.5 8t20.5 -9l87 -57l87 57q14 9 20.5 9t14.5 -8l17 -18q12 -12 -2 -26l-100 -91q-7 -6 -12.5 -8.5
t-16.5 -2.5h-16z" />
    <glyph glyph-name="Cdotaccent" unicode="&#x10a;" horiz-adv-x="596" 
d="M571 60q8 -21 -14 -31q-50 -20 -97 -30.5t-102 -10.5q-79 0 -138 26.5t-98 73.5t-58.5 112.5t-19.5 142.5t22.5 143t64.5 115t102 76.5t135 27.5q102 0 188 -42q12 -6 15 -11.5t-2 -18.5l-23 -63q-6 -19 -25 -9q-38 20 -72.5 28t-72.5 8q-52 0 -88.5 -22t-60 -57t-34 -80
t-10.5 -90q0 -58 13 -104.5t38 -79.5t61.5 -50.5t82.5 -17.5q72 0 144 32q10 5 16 3.5t11 -12.5zM435 830q0 -29 -20 -45t-43 -16t-44 15.5t-21 44.5t20.5 45t44.5 16t43.5 -15.5t19.5 -44.5z" />
    <glyph glyph-name="Dcaron" unicode="&#x10e;" horiz-adv-x="692" 
d="M649 343q0 -91 -29 -157.5t-80 -110.5q-47 -39 -110 -57t-138 -18h-191q-15 0 -22 5.5t-7 22.5v634q0 16 6 23t25 7h144q87 0 148 -11t111 -40q68 -39 105.5 -112.5t37.5 -185.5zM511 344q0 69 -20 119t-58 79q-31 23 -70.5 32t-87.5 9h-73v-475h77q52 0 94.5 10.5
t74.5 42.5q30 30 46.5 75t16.5 108zM301 751q-11 0 -16.5 2.5t-12.5 8.5l-100 91q-14 14 -2 26l17 18q8 8 14.5 8t20.5 -9l87 -57l87 57q14 9 20.5 9t14.5 -8l17 -18q12 -12 -2 -26l-100 -91q-7 -6 -12.5 -8.5t-16.5 -2.5h-16z" />
    <glyph glyph-name="Dcroat" unicode="&#x110;" horiz-adv-x="708" 
d="M665 343q0 -91 -29 -157.5t-80 -110.5q-47 -39 -110 -57t-138 -18h-191q-15 0 -22 5.5t-7 22.5v283h-67q-13 0 -17 4t-4 15v40q0 12 4 15.5t16 3.5h68v273q0 16 6 23t25 7h144q87 0 148 -11t111 -40q68 -39 105.5 -112.5t37.5 -185.5zM331 389q12 0 16 -3.5t4 -15.5v-40
q0 -11 -4 -15t-17 -4h-112v-203h77q52 0 94.5 10.5t74.5 42.5q30 30 46.5 75t16.5 108q0 69 -20 119t-58 79q-30 23 -70 32t-88 9h-73v-194h113z" />
    <glyph glyph-name="Eth" unicode="&#xd0;" horiz-adv-x="708" 
d="M665 343q0 -91 -29 -157.5t-80 -110.5q-47 -39 -110 -57t-138 -18h-191q-15 0 -22 5.5t-7 22.5v283h-67q-13 0 -17 4t-4 15v40q0 12 4 15.5t16 3.5h68v273q0 16 6 23t25 7h144q87 0 148 -11t111 -40q68 -39 105.5 -112.5t37.5 -185.5zM331 389q12 0 16 -3.5t4 -15.5v-40
q0 -11 -4 -15t-17 -4h-112v-203h77q52 0 94.5 10.5t74.5 42.5q30 30 46.5 75t16.5 108q0 69 -20 119t-58 79q-30 23 -70 32t-88 9h-73v-194h113z" />
    <glyph glyph-name="Egrave" unicode="&#xc8;" horiz-adv-x="538" 
d="M458 326q0 -11 -5 -16.5t-19 -5.5h-232v-200h268q25 0 25 -23v-57q0 -24 -24 -24h-371q-15 0 -21 5t-6 22v640q0 25 23 25h377q15 0 19 -6t2 -17l-7 -60q-2 -14 -10 -17.5t-24 -3.5h-251v-181h232q14 0 19 -5.5t5 -16.5v-59zM393 815q11 -8 12 -14.5t-7 -17.5l-17 -25
q-8 -11 -14.5 -12t-17.5 5l-152 84q-18 10 -6 28l30 45q8 11 15.5 12t19.5 -8z" />
    <glyph glyph-name="Eacute" unicode="&#xc9;" horiz-adv-x="538" 
d="M458 326q0 -11 -5 -16.5t-19 -5.5h-232v-200h268q25 0 25 -23v-57q0 -24 -24 -24h-371q-15 0 -21 5t-6 22v640q0 25 23 25h377q15 0 19 -6t2 -17l-7 -60q-2 -14 -10 -17.5t-24 -3.5h-251v-181h232q14 0 19 -5.5t5 -16.5v-59zM334 912q12 9 19.5 8t15.5 -12l30 -45
q12 -18 -6 -28l-152 -84q-11 -6 -17.5 -5t-14.5 12l-17 25q-8 11 -7 17.5t12 14.5z" />
    <glyph glyph-name="Ecircumflex" unicode="&#xca;" horiz-adv-x="538" 
d="M458 326q0 -11 -5 -16.5t-19 -5.5h-232v-200h268q25 0 25 -23v-57q0 -24 -24 -24h-371q-15 0 -21 5t-6 22v640q0 25 23 25h377q15 0 19 -6t2 -17l-7 -60q-2 -14 -10 -17.5t-24 -3.5h-251v-181h232q14 0 19 -5.5t5 -16.5v-59zM296 905q11 0 16.5 -2.5t12.5 -8.5l100 -91
q14 -14 2 -26l-17 -18q-8 -8 -14.5 -8t-20.5 9l-87 57l-87 -57q-14 -9 -20.5 -9t-14.5 8l-17 18q-12 12 2 26l100 91q7 6 12.5 8.5t16.5 2.5h16z" />
    <glyph glyph-name="Ecaron" unicode="&#x11a;" horiz-adv-x="538" 
d="M458 326q0 -11 -5 -16.5t-19 -5.5h-232v-200h268q25 0 25 -23v-57q0 -24 -24 -24h-371q-15 0 -21 5t-6 22v640q0 25 23 25h377q15 0 19 -6t2 -17l-7 -60q-2 -14 -10 -17.5t-24 -3.5h-251v-181h232q14 0 19 -5.5t5 -16.5v-59zM287 751q-11 0 -16.5 2.5t-12.5 8.5l-100 91
q-14 14 -2 26l17 18q8 8 14.5 8t20.5 -9l87 -57l87 57q14 9 20.5 9t14.5 -8l17 -18q12 -12 -2 -26l-100 -91q-7 -6 -12.5 -8.5t-16.5 -2.5h-16z" />
    <glyph glyph-name="Edieresis" unicode="&#xcb;" horiz-adv-x="538" 
d="M458 326q0 -11 -5 -16.5t-19 -5.5h-232v-200h268q25 0 25 -23v-57q0 -24 -24 -24h-371q-15 0 -21 5t-6 22v640q0 25 23 25h377q15 0 19 -6t2 -17l-7 -60q-2 -14 -10 -17.5t-24 -3.5h-251v-181h232q14 0 19 -5.5t5 -16.5v-59zM259 833q0 -28 -20 -43t-41 -15
q-22 0 -42 14.5t-20 42.5q0 29 19 44t43 15q23 0 42 -15t19 -43zM442 833q0 -28 -20 -43t-41 -15q-22 0 -42 14.5t-20 42.5q0 29 19 44t43 15q23 0 42 -15t19 -43z" />
    <glyph glyph-name="Emacron" unicode="&#x112;" horiz-adv-x="538" 
d="M458 326q0 -11 -5 -16.5t-19 -5.5h-232v-200h268q25 0 25 -23v-57q0 -24 -24 -24h-371q-15 0 -21 5t-6 22v640q0 25 23 25h377q15 0 19 -6t2 -17l-7 -60q-2 -14 -10 -17.5t-24 -3.5h-251v-181h232q14 0 19 -5.5t5 -16.5v-59zM409 867q11 0 15.5 -4t4.5 -15v-38
q0 -11 -4.5 -15t-15.5 -4h-241q-11 0 -15.5 4t-4.5 15v38q0 11 4.5 15t15.5 4h241z" />
    <glyph glyph-name="Ebreve" unicode="&#x114;" horiz-adv-x="538" 
d="M458 326q0 -11 -5 -16.5t-19 -5.5h-232v-200h268q25 0 25 -23v-57q0 -24 -24 -24h-371q-15 0 -21 5t-6 22v640q0 25 23 25h377q15 0 19 -6t2 -17l-7 -60q-2 -14 -10 -17.5t-24 -3.5h-251v-181h232q14 0 19 -5.5t5 -16.5v-59zM298 762q-51 0 -89 27.5t-46 75.5
q-4 24 19 24h31q15 0 19 -4t9 -14q16 -34 57 -34t57 34q5 10 9 14t19 4h31q23 0 19 -24q-8 -48 -45 -75.5t-90 -27.5z" />
    <glyph glyph-name="Edotaccent" unicode="&#x116;" horiz-adv-x="538" 
d="M458 326q0 -11 -5 -16.5t-19 -5.5h-232v-200h268q25 0 25 -23v-57q0 -24 -24 -24h-371q-15 0 -21 5t-6 22v640q0 25 23 25h377q15 0 19 -6t2 -17l-7 -60q-2 -14 -10 -17.5t-24 -3.5h-251v-181h232q14 0 19 -5.5t5 -16.5v-59zM353 830q0 -29 -20 -45t-43 -16t-44 15.5
t-21 44.5t20.5 45t44.5 16t43.5 -15.5t19.5 -44.5z" />
    <glyph glyph-name="Eogonek" unicode="&#x118;" horiz-adv-x="538" 
d="M481 -178q2 -5 0.5 -10t-12.5 -10q-15 -7 -38.5 -11.5t-44.5 -4.5q-51 0 -81.5 25.5t-30.5 67.5q0 36 21 67t57 54h-252q-15 0 -21 5t-6 22v640q0 25 23 25h377q15 0 19 -6t2 -17l-7 -60q-2 -14 -10 -17.5t-24 -3.5h-251v-181h232q14 0 19 -5.5t5 -16.5v-59
q0 -11 -5 -16.5t-19 -5.5h-232v-200h268q25 0 25 -23v-57q0 -24 -24 -24h-43q-37 -28 -53.5 -55t-16.5 -52q0 -20 12.5 -31.5t36.5 -11.5q12 0 23.5 2t25.5 6q8 2 11.5 0t5.5 -9z" />
    <glyph glyph-name="Gcircumflex" unicode="&#x11c;" horiz-adv-x="679" 
d="M617 72q0 -15 -5 -22.5t-19 -15.5q-21 -11 -47.5 -19.5t-56.5 -14.5t-61 -9t-59 -3q-78 0 -138.5 26t-102.5 72.5t-63.5 112t-21.5 145.5q0 78 24.5 144.5t68.5 114.5t106.5 75t139.5 27q48 0 93 -9t90 -29q14 -6 14.5 -13.5t-3.5 -16.5l-24 -62q-7 -17 -28 -8
q-25 11 -63 20t-73 9q-41 0 -78 -14.5t-63 -42.5q-32 -33 -49 -81t-17 -110q0 -117 51 -184.5t142 -67.5q31 0 62 4.5t51 12.5v191h-89q-11 0 -16.5 4.5t-5.5 17.5v61q0 12 6 16t17 4h194q13 0 18.5 -4.5t5.5 -18.5v-312zM366 905q11 0 16.5 -2.5t12.5 -8.5l100 -91
q14 -14 2 -26l-17 -18q-8 -8 -14.5 -8t-20.5 9l-87 57l-87 -57q-14 -9 -20.5 -9t-14.5 8l-17 18q-12 12 2 26l100 91q7 6 12.5 8.5t16.5 2.5h16z" />
    <glyph glyph-name="Gbreve" unicode="&#x11e;" horiz-adv-x="679" 
d="M617 72q0 -15 -5 -22.5t-19 -15.5q-21 -11 -47.5 -19.5t-56.5 -14.5t-61 -9t-59 -3q-78 0 -138.5 26t-102.5 72.5t-63.5 112t-21.5 145.5q0 78 24.5 144.5t68.5 114.5t106.5 75t139.5 27q48 0 93 -9t90 -29q14 -6 14.5 -13.5t-3.5 -16.5l-24 -62q-7 -17 -28 -8
q-25 11 -63 20t-73 9q-41 0 -78 -14.5t-63 -42.5q-32 -33 -49 -81t-17 -110q0 -117 51 -184.5t142 -67.5q31 0 62 4.5t51 12.5v191h-89q-11 0 -16.5 4.5t-5.5 17.5v61q0 12 6 16t17 4h194q13 0 18.5 -4.5t5.5 -18.5v-312zM361 762q-51 0 -89 27.5t-46 75.5q-4 24 19 24h31
q15 0 19 -4t9 -14q16 -34 57 -34t57 34q5 10 9 14t19 4h31q23 0 19 -24q-8 -48 -45 -75.5t-90 -27.5z" />
    <glyph glyph-name="Gdotaccent" unicode="&#x120;" horiz-adv-x="679" 
d="M617 72q0 -15 -5 -22.5t-19 -15.5q-21 -11 -47.5 -19.5t-56.5 -14.5t-61 -9t-59 -3q-78 0 -138.5 26t-102.5 72.5t-63.5 112t-21.5 145.5q0 78 24.5 144.5t68.5 114.5t106.5 75t139.5 27q48 0 93 -9t90 -29q14 -6 14.5 -13.5t-3.5 -16.5l-24 -62q-7 -17 -28 -8
q-25 11 -63 20t-73 9q-41 0 -78 -14.5t-63 -42.5q-32 -33 -49 -81t-17 -110q0 -117 51 -184.5t142 -67.5q31 0 62 4.5t51 12.5v191h-89q-11 0 -16.5 4.5t-5.5 17.5v61q0 12 6 16t17 4h194q13 0 18.5 -4.5t5.5 -18.5v-312zM424 830q0 -29 -20 -45t-43 -16t-44 15.5t-21 44.5
t20.5 45t44.5 16t43.5 -15.5t19.5 -44.5z" />
    <glyph glyph-name="Gcommaaccent" unicode="&#x122;" horiz-adv-x="679" 
d="M617 72q0 -15 -5 -22.5t-19 -15.5q-21 -11 -47.5 -19.5t-56.5 -14.5t-61 -9t-59 -3q-78 0 -138.5 26t-102.5 72.5t-63.5 112t-21.5 145.5q0 78 24.5 144.5t68.5 114.5t106.5 75t139.5 27q48 0 93 -9t90 -29q14 -6 14.5 -13.5t-3.5 -16.5l-24 -62q-7 -17 -28 -8
q-25 11 -63 20t-73 9q-41 0 -78 -14.5t-63 -42.5q-32 -33 -49 -81t-17 -110q0 -117 51 -184.5t142 -67.5q31 0 62 4.5t51 12.5v191h-89q-11 0 -16.5 4.5t-5.5 17.5v61q0 12 6 16t17 4h194q13 0 18.5 -4.5t5.5 -18.5v-312zM418 -108q0 -45 -23.5 -83t-58.5 -63q-9 -6 -15 -6
t-12 8l-8 9q-7 9 2 18q13 13 23.5 28.5t10.5 30.5q0 9 -5.5 17t-11.5 16.5t-11.5 18t-5.5 20.5q0 23 16.5 38.5t39.5 15.5q26 0 42.5 -21.5t16.5 -46.5z" />
    <glyph glyph-name="Hcircumflex" unicode="&#x124;" horiz-adv-x="688" 
d="M612 25q0 -25 -24 -25h-79q-26 0 -26 25v279h-284v-279q0 -25 -25 -25h-78q-27 0 -27 25v643q0 13 7.5 18.5t19.5 5.5h78q12 0 18.5 -5t6.5 -19v-261h284v261q0 24 26 24h79q12 0 18 -5t6 -19v-643zM351 905q11 0 16.5 -2.5t12.5 -8.5l100 -91q14 -14 2 -26l-17 -18
q-8 -8 -14.5 -8t-20.5 9l-87 57l-87 -57q-14 -9 -20.5 -9t-14.5 8l-17 18q-12 12 2 26l100 91q7 6 12.5 8.5t16.5 2.5h16z" />
    <glyph glyph-name="Hbar" unicode="&#x126;" horiz-adv-x="689" 
d="M616 597h30q12 0 16 -3.5t4 -15.5v-40q0 -11 -4 -15t-17 -4h-29v-494q0 -25 -24 -25h-79q-26 0 -26 25v279h-284v-279q0 -25 -25 -25h-78q-27 0 -27 25v494h-28q-13 0 -17 4t-4 15v40q0 12 4 15.5t16 3.5h29v71q0 13 7.5 18.5t19.5 5.5h78q12 0 18.5 -5t6.5 -19v-71h284
v71q0 24 26 24h79q12 0 18 -5t6 -19v-71zM487 407v112h-284v-112h284z" />
    <glyph glyph-name="Igrave" unicode="&#xcc;" horiz-adv-x="402" 
d="M342 629q0 -12 -5 -16.5t-16 -4.5h-57v-524h55q11 0 16 -6t5 -15v-43q0 -20 -18 -20h-240q-20 0 -20 19v45q0 20 20 20h54v524h-58q-20 0 -20 20v44q0 8 4.5 14t13.5 6h245q11 0 16 -5.5t5 -13.5v-44zM295 815q11 -8 12 -14.5t-7 -17.5l-17 -25q-8 -11 -14.5 -12t-17.5 5
l-152 84q-18 10 -6 28l30 45q8 11 15.5 12t19.5 -8z" />
    <glyph glyph-name="Iacute" unicode="&#xcd;" horiz-adv-x="402" 
d="M342 629q0 -12 -5 -16.5t-16 -4.5h-57v-524h55q11 0 16 -6t5 -15v-43q0 -20 -18 -20h-240q-20 0 -20 19v45q0 20 20 20h54v524h-58q-20 0 -20 20v44q0 8 4.5 14t13.5 6h245q11 0 16 -5.5t5 -13.5v-44zM236 912q12 9 19.5 8t15.5 -12l30 -45q12 -18 -6 -28l-152 -84
q-11 -6 -17.5 -5t-14.5 12l-17 25q-8 11 -7 17.5t12 14.5z" />
    <glyph glyph-name="Icircumflex" unicode="&#xce;" horiz-adv-x="402" 
d="M342 629q0 -12 -5 -16.5t-16 -4.5h-57v-524h55q11 0 16 -6t5 -15v-43q0 -20 -18 -20h-240q-20 0 -20 19v45q0 20 20 20h54v524h-58q-20 0 -20 20v44q0 8 4.5 14t13.5 6h245q11 0 16 -5.5t5 -13.5v-44zM208 905q11 0 16.5 -2.5t12.5 -8.5l100 -91q14 -14 2 -26l-17 -18
q-8 -8 -14.5 -8t-20.5 9l-87 57l-87 -57q-14 -9 -20.5 -9t-14.5 8l-17 18q-12 12 2 26l100 91q7 6 12.5 8.5t16.5 2.5h16z" />
    <glyph glyph-name="Itilde" unicode="&#x128;" horiz-adv-x="402" 
d="M342 629q0 -12 -5 -16.5t-16 -4.5h-57v-524h55q11 0 16 -6t5 -15v-43q0 -20 -18 -20h-240q-20 0 -20 19v45q0 20 20 20h54v524h-58q-20 0 -20 20v44q0 8 4.5 14t13.5 6h245q11 0 16 -5.5t5 -13.5v-44zM317 867q11 7 17 6t11 -10l16 -32q9 -17 -10 -29q-20 -14 -44 -23.5
t-47 -9.5q-18 0 -34.5 5.5t-31 12t-28 12t-25.5 5.5q-26 0 -60 -21q-11 -7 -17 -6t-11 10l-16 32q-9 17 10 29q20 14 44 23.5t47 9.5q18 0 34.5 -5.5t31 -12t28 -12t25.5 -5.5q14 0 28.5 5t31.5 16z" />
    <glyph glyph-name="Idieresis" unicode="&#xcf;" horiz-adv-x="402" 
d="M342 629q0 -12 -5 -16.5t-16 -4.5h-57v-524h55q11 0 16 -6t5 -15v-43q0 -20 -18 -20h-240q-20 0 -20 19v45q0 20 20 20h54v524h-58q-20 0 -20 20v44q0 8 4.5 14t13.5 6h245q11 0 16 -5.5t5 -13.5v-44zM171 833q0 -28 -20 -43t-41 -15q-22 0 -42 14.5t-20 42.5q0 29 19 44
t43 15q23 0 42 -15t19 -43zM354 833q0 -28 -20 -43t-41 -15q-22 0 -42 14.5t-20 42.5q0 29 19 44t43 15q23 0 42 -15t19 -43z" />
    <glyph glyph-name="Imacron" unicode="&#x12a;" horiz-adv-x="402" 
d="M342 629q0 -12 -5 -16.5t-16 -4.5h-57v-524h55q11 0 16 -6t5 -15v-43q0 -20 -18 -20h-240q-20 0 -20 19v45q0 20 20 20h54v524h-58q-20 0 -20 20v44q0 8 4.5 14t13.5 6h245q11 0 16 -5.5t5 -13.5v-44zM321 867q11 0 15.5 -4t4.5 -15v-38q0 -11 -4.5 -15t-15.5 -4h-241
q-11 0 -15.5 4t-4.5 15v38q0 11 4.5 15t15.5 4h241z" />
    <glyph glyph-name="Ibreve" unicode="&#x12c;" horiz-adv-x="402" 
d="M342 629q0 -12 -5 -16.5t-16 -4.5h-57v-524h55q11 0 16 -6t5 -15v-43q0 -20 -18 -20h-240q-20 0 -20 19v45q0 20 20 20h54v524h-58q-20 0 -20 20v44q0 8 4.5 14t13.5 6h245q11 0 16 -5.5t5 -13.5v-44zM203 762q-51 0 -89 27.5t-46 75.5q-4 24 19 24h31q15 0 19 -4t9 -14
q16 -34 57 -34t57 34q5 10 9 14t19 4h31q23 0 19 -24q-8 -48 -45 -75.5t-90 -27.5z" />
    <glyph glyph-name="Idotaccent" unicode="&#x130;" horiz-adv-x="402" 
d="M342 629q0 -12 -5 -16.5t-16 -4.5h-57v-524h55q11 0 16 -6t5 -15v-43q0 -20 -18 -20h-240q-20 0 -20 19v45q0 20 20 20h54v524h-58q-20 0 -20 20v44q0 8 4.5 14t13.5 6h245q11 0 16 -5.5t5 -13.5v-44zM265 830q0 -29 -20 -45t-43 -16t-44 15.5t-21 44.5t20.5 45t44.5 16
t43.5 -15.5t19.5 -44.5z" />
    <glyph glyph-name="Iogonek" unicode="&#x12e;" horiz-adv-x="402" 
d="M342 629q0 -12 -5 -16.5t-16 -4.5h-57v-524h55q11 0 16 -6t5 -15v-43q0 -20 -18 -20h-64q-37 -28 -53.5 -55t-16.5 -52q0 -20 12.5 -31.5t36.5 -11.5q12 0 23.5 2t25.5 6q8 2 11.5 0t5.5 -9l8 -27q2 -5 0.5 -10t-12.5 -10q-15 -7 -38.5 -11.5t-44.5 -4.5
q-51 0 -81.5 25.5t-30.5 67.5q0 36 21 67t57 54h-100q-20 0 -20 19v45q0 20 20 20h54v524h-58q-20 0 -20 20v44q0 8 4.5 14t13.5 6h245q11 0 16 -5.5t5 -13.5v-44z" />
    <glyph glyph-name="IJ" unicode="&#x132;" horiz-adv-x="807" 
d="M342 629q0 -12 -5 -16.5t-16 -4.5h-57v-524h55q11 0 16 -6t5 -15v-43q0 -20 -18 -20h-240q-20 0 -20 19v45q0 20 20 20h54v524h-58q-20 0 -20 20v44q0 8 4.5 14t13.5 6h245q11 0 16 -5.5t5 -13.5v-44zM747 229q0 -69 -16 -119.5t-54 -80.5q-29 -23 -67.5 -32t-78.5 -9
q-18 0 -37.5 2t-34.5 6q-11 3 -14 8t-1 17l10 57q2 11 7.5 14t16.5 1q10 -2 23.5 -4t27.5 -2q20 0 38 5.5t31 21.5q21 28 21 93v401h-113q-12 0 -16.5 6.5t-4.5 15.5v41q0 21 21 21h217q24 0 24 -23v-440z" />
    <glyph glyph-name="Jcircumflex" unicode="&#x134;" horiz-adv-x="419" 
d="M345 229q0 -69 -16 -119.5t-54 -80.5q-29 -23 -67.5 -32t-78.5 -9q-18 0 -37.5 2t-34.5 6q-11 3 -14 8t-1 17l10 57q2 11 7.5 14t16.5 1q10 -2 23.5 -4t27.5 -2q20 0 38 5.5t31 21.5q21 28 21 93v401h-113q-12 0 -16.5 6.5t-4.5 15.5v41q0 21 21 21h217q24 0 24 -23v-440
zM231 905q11 0 16.5 -2.5t12.5 -8.5l100 -91q14 -14 2 -26l-17 -18q-8 -8 -14.5 -8t-20.5 9l-87 57l-87 -57q-14 -9 -20.5 -9t-14.5 8l-17 18q-12 12 2 26l100 91q7 6 12.5 8.5t16.5 2.5h16z" />
    <glyph glyph-name="Kcommaaccent" unicode="&#x136;" horiz-adv-x="596" 
d="M468 0q-18 0 -28 6t-20 19l-216 277h-2v-277q0 -25 -24 -25h-80q-25 0 -25 25v643q0 24 25 24h80q12 0 18 -5t6 -19v-283h2l206 289q8 10 15.5 14t21.5 4h77q11 0 14.5 -4t3.5 -9q0 -8 -8 -19l-225 -302l261 -321q8 -9 10 -14t2 -10t-4 -9t-15 -4h-95zM379 -108
q0 -45 -23.5 -83t-58.5 -63q-9 -6 -15 -6t-12 8l-8 9q-7 9 2 18q13 13 23.5 28.5t10.5 30.5q0 9 -5.5 17t-11.5 16.5t-11.5 18t-5.5 20.5q0 23 16.5 38.5t39.5 15.5q26 0 42.5 -21.5t16.5 -46.5z" />
    <glyph glyph-name="Lacute" unicode="&#x139;" horiz-adv-x="493" 
d="M479 24q0 -14 -6.5 -19t-17.5 -5h-354q-14 0 -21 5.5t-7 22.5v639q0 25 24 25h80q25 0 25 -26v-559h253q24 0 24 -23v-60zM170 912q12 9 19.5 8t15.5 -12l30 -45q12 -18 -6 -28l-152 -84q-11 -6 -17.5 -5t-14.5 12l-17 25q-8 11 -7 17.5t12 14.5z" />
    <glyph glyph-name="Lcaron" unicode="&#x13d;" horiz-adv-x="493" 
d="M479 24q0 -14 -6.5 -19t-17.5 -5h-354q-14 0 -21 5.5t-7 22.5v639q0 25 24 25h80q25 0 25 -26v-559h253q24 0 24 -23v-60zM391 633q0 -45 -23.5 -83t-58.5 -63q-9 -6 -15 -6t-12 8l-8 9q-7 9 2 18q13 13 23.5 28.5t10.5 30.5q0 9 -5.5 17t-11.5 16.5t-11.5 18t-5.5 20.5
q0 23 16.5 38.5t39.5 15.5q26 0 42.5 -21.5t16.5 -46.5z" />
    <glyph glyph-name="Lcommaaccent" unicode="&#x13b;" horiz-adv-x="493" 
d="M479 24q0 -14 -6.5 -19t-17.5 -5h-354q-14 0 -21 5.5t-7 22.5v639q0 25 24 25h80q25 0 25 -26v-559h253q24 0 24 -23v-60zM349 -108q0 -45 -23.5 -83t-58.5 -63q-9 -6 -15 -6t-12 8l-8 9q-7 9 2 18q13 13 23.5 28.5t10.5 30.5q0 9 -5.5 17t-11.5 16.5t-11.5 18t-5.5 20.5
q0 23 16.5 38.5t39.5 15.5q26 0 42.5 -21.5t16.5 -46.5z" />
    <glyph glyph-name="Lslash" unicode="&#x141;" horiz-adv-x="500" 
d="M295 533q8 6 14.5 5t6.5 -11v-48q0 -14 -3 -22t-17 -20l-87 -73v-257h253q24 0 24 -23v-60q0 -14 -6.5 -19t-17.5 -5h-356q-14 0 -20 5.5t-6 22.5v227l-75 -62q-8 -6 -14.5 -5t-6.5 11v48q0 14 3 22t17 20l76 64v314q0 25 24 25h80q25 0 25 -26v-205z" />
    <glyph glyph-name="Ldot" unicode="&#x13f;" horiz-adv-x="493" 
d="M479 24q0 -14 -6.5 -19t-17.5 -5h-354q-14 0 -21 5.5t-7 22.5v639q0 25 24 25h80q25 0 25 -26v-559h253q24 0 24 -23v-60zM417 371q0 -29 -20 -45t-43 -16t-44 15.5t-21 44.5t20.5 45t44.5 16t43.5 -15.5t19.5 -44.5z" />
    <glyph glyph-name="Nacute" unicode="&#x143;" horiz-adv-x="727" 
d="M629 692q26 0 26 -26v-639q0 -17 -6.5 -22t-17.5 -5h-64q-26 0 -41 21l-326 446h-2v-441q0 -26 -26 -26h-72q-14 0 -20.5 5t-6.5 20v640q0 16 6.5 21.5t20.5 5.5h65q12 0 19 -4t15 -15l329 -452h2v445q0 26 26 26h73zM398 912q12 9 19.5 8t15.5 -12l30 -45q12 -18 -6 -28
l-152 -84q-11 -6 -17.5 -5t-14.5 12l-17 25q-8 11 -7 17.5t12 14.5z" />
    <glyph glyph-name="Ncaron" unicode="&#x147;" horiz-adv-x="727" 
d="M629 692q26 0 26 -26v-639q0 -17 -6.5 -22t-17.5 -5h-64q-26 0 -41 21l-326 446h-2v-441q0 -26 -26 -26h-72q-14 0 -20.5 5t-6.5 20v640q0 16 6.5 21.5t20.5 5.5h65q12 0 19 -4t15 -15l329 -452h2v445q0 26 26 26h73zM353 751q-11 0 -16.5 2.5t-12.5 8.5l-100 91
q-14 14 -2 26l17 18q8 8 14.5 8t20.5 -9l87 -57l87 57q14 9 20.5 9t14.5 -8l17 -18q12 -12 -2 -26l-100 -91q-7 -6 -12.5 -8.5t-16.5 -2.5h-16z" />
    <glyph glyph-name="Ntilde" unicode="&#xd1;" horiz-adv-x="727" 
d="M629 692q26 0 26 -26v-639q0 -17 -6.5 -22t-17.5 -5h-64q-26 0 -41 21l-326 446h-2v-441q0 -26 -26 -26h-72q-14 0 -20.5 5t-6.5 20v640q0 16 6.5 21.5t20.5 5.5h65q12 0 19 -4t15 -15l329 -452h2v445q0 26 26 26h73zM480 867q11 7 17 6t11 -10l16 -32q9 -17 -10 -29
q-20 -14 -44 -23.5t-47 -9.5q-18 0 -34.5 5.5t-31 12t-28 12t-25.5 5.5q-26 0 -60 -21q-11 -7 -17 -6t-11 10l-16 32q-9 17 10 29q20 14 44 23.5t47 9.5q18 0 34.5 -5.5t31 -12t28 -12t25.5 -5.5q14 0 28.5 5t31.5 16z" />
    <glyph glyph-name="Ncommaaccent" unicode="&#x145;" horiz-adv-x="727" 
d="M629 692q26 0 26 -26v-639q0 -17 -6.5 -22t-17.5 -5h-64q-26 0 -41 21l-326 446h-2v-441q0 -26 -26 -26h-72q-14 0 -20.5 5t-6.5 20v640q0 16 6.5 21.5t20.5 5.5h65q12 0 19 -4t15 -15l329 -452h2v445q0 26 26 26h73zM429 -108q0 -45 -23.5 -83t-58.5 -63q-9 -6 -15 -6
t-12 8l-8 9q-7 9 2 18q13 13 23.5 28.5t10.5 30.5q0 9 -5.5 17t-11.5 16.5t-11.5 18t-5.5 20.5q0 23 16.5 38.5t39.5 15.5q26 0 42.5 -21.5t16.5 -46.5z" />
    <glyph glyph-name="Eng" unicode="&#x14a;" horiz-adv-x="723" 
d="M198 469v-444q0 -14 -6 -19.5t-18 -5.5h-75q-14 0 -20 4.5t-6 19.5v643q0 16 6.5 20.5t19.5 4.5h68q12 0 19 -4t14 -13l323 -451h1v445q0 23 25 23h79q15 0 18.5 -7t3.5 -18v-652q0 -62 -15.5 -106.5t-49.5 -70.5q-23 -17 -56 -26.5t-79 -9.5q-13 0 -30.5 2t-33.5 5
q-11 2 -14 8.5t-1 17.5l8 55q3 17 19 14q12 -2 24 -3.5t22 -1.5q17 0 33 5t26 17q19 22 19 72v26l-322 450h-2z" />
    <glyph glyph-name="Ograve" unicode="&#xd2;" horiz-adv-x="695" 
d="M654 350q0 -85 -23 -152t-64 -113.5t-97.5 -71.5t-123.5 -25q-72 0 -128 25t-94.5 71.5t-58.5 112.5t-20 147t21.5 147.5t62 114t97 73.5t127.5 26q74 0 130.5 -26.5t94.5 -74t57 -112.5t19 -142zM516 347q0 127 -42.5 188t-123.5 61q-38 0 -68.5 -17t-52.5 -49
t-34 -78.5t-12 -104.5q0 -125 43.5 -187.5t123.5 -62.5q75 0 120.5 63.5t45.5 186.5zM451 815q11 -8 12 -14.5t-7 -17.5l-17 -25q-8 -11 -14.5 -12t-17.5 5l-152 84q-18 10 -6 28l30 45q8 11 15.5 12t19.5 -8z" />
    <glyph glyph-name="Oacute" unicode="&#xd3;" horiz-adv-x="695" 
d="M654 350q0 -85 -23 -152t-64 -113.5t-97.5 -71.5t-123.5 -25q-72 0 -128 25t-94.5 71.5t-58.5 112.5t-20 147t21.5 147.5t62 114t97 73.5t127.5 26q74 0 130.5 -26.5t94.5 -74t57 -112.5t19 -142zM516 347q0 127 -42.5 188t-123.5 61q-38 0 -68.5 -17t-52.5 -49
t-34 -78.5t-12 -104.5q0 -125 43.5 -187.5t123.5 -62.5q75 0 120.5 63.5t45.5 186.5zM392 912q12 9 19.5 8t15.5 -12l30 -45q12 -18 -6 -28l-152 -84q-11 -6 -17.5 -5t-14.5 12l-17 25q-8 11 -7 17.5t12 14.5z" />
    <glyph glyph-name="Ocircumflex" unicode="&#xd4;" horiz-adv-x="695" 
d="M654 350q0 -85 -23 -152t-64 -113.5t-97.5 -71.5t-123.5 -25q-72 0 -128 25t-94.5 71.5t-58.5 112.5t-20 147t21.5 147.5t62 114t97 73.5t127.5 26q74 0 130.5 -26.5t94.5 -74t57 -112.5t19 -142zM516 347q0 127 -42.5 188t-123.5 61q-38 0 -68.5 -17t-52.5 -49
t-34 -78.5t-12 -104.5q0 -125 43.5 -187.5t123.5 -62.5q75 0 120.5 63.5t45.5 186.5zM364 905q11 0 16.5 -2.5t12.5 -8.5l100 -91q14 -14 2 -26l-17 -18q-8 -8 -14.5 -8t-20.5 9l-87 57l-87 -57q-14 -9 -20.5 -9t-14.5 8l-17 18q-12 12 2 26l100 91q7 6 12.5 8.5t16.5 2.5
h16z" />
    <glyph glyph-name="Otilde" unicode="&#xd5;" horiz-adv-x="695" 
d="M654 350q0 -85 -23 -152t-64 -113.5t-97.5 -71.5t-123.5 -25q-72 0 -128 25t-94.5 71.5t-58.5 112.5t-20 147t21.5 147.5t62 114t97 73.5t127.5 26q74 0 130.5 -26.5t94.5 -74t57 -112.5t19 -142zM516 347q0 127 -42.5 188t-123.5 61q-38 0 -68.5 -17t-52.5 -49
t-34 -78.5t-12 -104.5q0 -125 43.5 -187.5t123.5 -62.5q75 0 120.5 63.5t45.5 186.5zM474 867q11 7 17 6t11 -10l16 -32q9 -17 -10 -29q-20 -14 -44 -23.5t-47 -9.5q-18 0 -34.5 5.5t-31 12t-28 12t-25.5 5.5q-26 0 -60 -21q-11 -7 -17 -6t-11 10l-16 32q-9 17 10 29
q20 14 44 23.5t47 9.5q18 0 34.5 -5.5t31 -12t28 -12t25.5 -5.5q14 0 28.5 5t31.5 16z" />
    <glyph glyph-name="Odieresis" unicode="&#xd6;" horiz-adv-x="695" 
d="M654 350q0 -85 -23 -152t-64 -113.5t-97.5 -71.5t-123.5 -25q-72 0 -128 25t-94.5 71.5t-58.5 112.5t-20 147t21.5 147.5t62 114t97 73.5t127.5 26q74 0 130.5 -26.5t94.5 -74t57 -112.5t19 -142zM516 347q0 127 -42.5 188t-123.5 61q-38 0 -68.5 -17t-52.5 -49
t-34 -78.5t-12 -104.5q0 -125 43.5 -187.5t123.5 -62.5q75 0 120.5 63.5t45.5 186.5zM324 833q0 -28 -20 -43t-41 -15q-22 0 -42 14.5t-20 42.5q0 29 19 44t43 15q23 0 42 -15t19 -43zM507 833q0 -28 -20 -43t-41 -15q-22 0 -42 14.5t-20 42.5q0 29 19 44t43 15q23 0 42 -15
t19 -43z" />
    <glyph glyph-name="Omacron" unicode="&#x14c;" horiz-adv-x="695" 
d="M654 350q0 -85 -23 -152t-64 -113.5t-97.5 -71.5t-123.5 -25q-72 0 -128 25t-94.5 71.5t-58.5 112.5t-20 147t21.5 147.5t62 114t97 73.5t127.5 26q74 0 130.5 -26.5t94.5 -74t57 -112.5t19 -142zM516 347q0 127 -42.5 188t-123.5 61q-38 0 -68.5 -17t-52.5 -49
t-34 -78.5t-12 -104.5q0 -125 43.5 -187.5t123.5 -62.5q75 0 120.5 63.5t45.5 186.5zM468 867q11 0 15.5 -4t4.5 -15v-38q0 -11 -4.5 -15t-15.5 -4h-241q-11 0 -15.5 4t-4.5 15v38q0 11 4.5 15t15.5 4h241z" />
    <glyph glyph-name="Obreve" unicode="&#x14e;" horiz-adv-x="695" 
d="M654 350q0 -85 -23 -152t-64 -113.5t-97.5 -71.5t-123.5 -25q-72 0 -128 25t-94.5 71.5t-58.5 112.5t-20 147t21.5 147.5t62 114t97 73.5t127.5 26q74 0 130.5 -26.5t94.5 -74t57 -112.5t19 -142zM516 347q0 127 -42.5 188t-123.5 61q-38 0 -68.5 -17t-52.5 -49
t-34 -78.5t-12 -104.5q0 -125 43.5 -187.5t123.5 -62.5q75 0 120.5 63.5t45.5 186.5zM349 762q-51 0 -89 27.5t-46 75.5q-4 24 19 24h31q15 0 19 -4t9 -14q16 -34 57 -34t57 34q5 10 9 14t19 4h31q23 0 19 -24q-8 -48 -45 -75.5t-90 -27.5z" />
    <glyph glyph-name="Ohungarumlaut" unicode="&#x150;" horiz-adv-x="695" 
d="M654 350q0 -85 -23 -152t-64 -113.5t-97.5 -71.5t-123.5 -25q-72 0 -128 25t-94.5 71.5t-58.5 112.5t-20 147t21.5 147.5t62 114t97 73.5t127.5 26q74 0 130.5 -26.5t94.5 -74t57 -112.5t19 -142zM516 347q0 127 -42.5 188t-123.5 61q-38 0 -68.5 -17t-52.5 -49
t-34 -78.5t-12 -104.5q0 -125 43.5 -187.5t123.5 -62.5q75 0 120.5 63.5t45.5 186.5zM374 876q6 -9 5.5 -15.5t-11.5 -11.5l-142 -77q-14 -8 -21 -6.5t-13 11.5l-11 19q-6 11 -5 16t12 13l127 90q25 18 36 -1zM561 876q6 -9 5.5 -15.5t-11.5 -11.5l-142 -77q-14 -8 -21 -6.5
t-13 11.5l-11 19q-6 11 -5 16t12 13l127 90q25 18 36 -1z" />
    <glyph glyph-name="Oslash" unicode="&#xd8;" horiz-adv-x="700" 
d="M659 350q0 -85 -23 -152t-64 -113.5t-97.5 -71.5t-123.5 -25q-51 0 -94 13t-78 37l-46 -65q-11 -14 -19 -15t-19 7l-28 20q-11 8 -12.5 15t7.5 19l57 80q-69 92 -69 245q0 81 21.5 147.5t62 114t97 73.5t127.5 26q48 0 87.5 -11.5t71.5 -32.5l51 71q13 18 26 9l36 -27
q12 -9 13 -15.5t-5 -14.5l-56 -79q38 -48 57.5 -112.5t19.5 -142.5zM448 566q-38 32 -94 32q-38 0 -68.5 -17.5t-52 -49.5t-33.5 -79t-12 -105q0 -76 21 -125zM521 347q0 86 -23 144l-247 -355q41 -41 104 -41q75 0 120.5 64.5t45.5 187.5z" />
    <glyph glyph-name="Oslashacute" unicode="&#x1fe;" horiz-adv-x="700" 
d="M659 350q0 -85 -23 -152t-64 -113.5t-97.5 -71.5t-123.5 -25q-51 0 -94 13t-78 37l-46 -65q-11 -14 -19 -15t-19 7l-28 20q-11 8 -12.5 15t7.5 19l57 80q-69 92 -69 245q0 81 21.5 147.5t62 114t97 73.5t127.5 26q48 0 87.5 -11.5t71.5 -32.5l51 71q13 18 26 9l36 -27
q12 -9 13 -15.5t-5 -14.5l-56 -79q38 -48 57.5 -112.5t19.5 -142.5zM448 566q-38 32 -94 32q-38 0 -68.5 -17.5t-52 -49.5t-33.5 -79t-12 -105q0 -76 21 -125zM521 347q0 86 -23 144l-247 -355q41 -41 104 -41q75 0 120.5 64.5t45.5 187.5zM409 932q12 9 19.5 8t15.5 -12
l30 -45q12 -18 -6 -28l-152 -84q-11 -6 -17.5 -5t-14.5 12l-17 25q-8 11 -7 17.5t12 14.5z" />
    <glyph glyph-name="OE" unicode="&#x152;" horiz-adv-x="969" 
d="M926 24q0 -24 -24 -24h-370q-17 0 -22.5 10.5t-5.5 30.5q-28 -23 -73 -38t-91 -15q-72 0 -127 25t-92.5 71.5t-56.5 112.5t-19 147t21.5 147.5t62 114t97 73.5t127.5 26q47 0 85.5 -13t66.5 -35q0 17 4.5 26t17.5 9h377q10 0 16.5 -5t4.5 -16l-7 -62q-2 -14 -9.5 -17.5
t-23.5 -3.5h-252v-181h231q26 0 26 -22v-57q0 -24 -25 -24h-232v-200h268q25 0 25 -23v-57zM504 540q-14 15 -31.5 25.5t-37 17.5t-39.5 10.5t-37 3.5q-73 0 -119 -55q-27 -32 -42 -81t-15 -114q0 -124 43.5 -187.5t123.5 -63.5q41 0 83 13.5t71 36.5v394z" />
    <glyph glyph-name="Thorn" unicode="&#xde;" horiz-adv-x="556" 
d="M202 580h41q80 0 138 -17t95 -59q24 -28 37 -64.5t13 -77.5q0 -60 -21 -103.5t-58 -72.5q-38 -29 -86 -42t-101 -13q-28 0 -58 3v-109q0 -25 -24 -25h-79q-26 0 -26 25v643q0 24 26 24h79q12 0 18 -5t6 -19v-88zM396 357q0 34 -10 57.5t-28.5 38t-45 21t-58.5 6.5h-52
v-248q7 -1 18.5 -1.5t26.5 -0.5q30 0 63 6t56 31q30 33 30 90z" />
    <glyph glyph-name="Racute" unicode="&#x154;" horiz-adv-x="592" 
d="M560 30q8 -14 6 -22t-16 -8h-89q-16 0 -23.5 4.5t-14.5 15.5l-144 235h-77v-230q0 -25 -23 -25h-82q-24 0 -24 25v638q0 17 5 23t22 6h148q33 0 65.5 -3t63 -11t57 -22.5t46.5 -37.5q24 -28 36 -63.5t12 -76.5q0 -69 -34.5 -121t-94.5 -78zM397 476q0 65 -40 91.5
t-105 26.5h-50v-242h62q60 0 96.5 31.5t36.5 92.5zM329 912q12 9 19.5 8t15.5 -12l30 -45q12 -18 -6 -28l-152 -84q-11 -6 -17.5 -5t-14.5 12l-17 25q-8 11 -7 17.5t12 14.5z" />
    <glyph glyph-name="Rcaron" unicode="&#x158;" horiz-adv-x="592" 
d="M560 30q8 -14 6 -22t-16 -8h-89q-16 0 -23.5 4.5t-14.5 15.5l-144 235h-77v-230q0 -25 -23 -25h-82q-24 0 -24 25v638q0 17 5 23t22 6h148q33 0 65.5 -3t63 -11t57 -22.5t46.5 -37.5q24 -28 36 -63.5t12 -76.5q0 -69 -34.5 -121t-94.5 -78zM397 476q0 65 -40 91.5
t-105 26.5h-50v-242h62q60 0 96.5 31.5t36.5 92.5zM283 751q-11 0 -16.5 2.5t-12.5 8.5l-100 91q-14 14 -2 26l17 18q8 8 14.5 8t20.5 -9l87 -57l87 57q14 9 20.5 9t14.5 -8l17 -18q12 -12 -2 -26l-100 -91q-7 -6 -12.5 -8.5t-16.5 -2.5h-16z" />
    <glyph glyph-name="Rcommaaccent" unicode="&#x156;" horiz-adv-x="592" 
d="M560 30q8 -14 6 -22t-16 -8h-89q-16 0 -23.5 4.5t-14.5 15.5l-144 235h-77v-230q0 -25 -23 -25h-82q-24 0 -24 25v638q0 17 5 23t22 6h148q33 0 65.5 -3t63 -11t57 -22.5t46.5 -37.5q24 -28 36 -63.5t12 -76.5q0 -69 -34.5 -121t-94.5 -78zM397 476q0 65 -40 91.5
t-105 26.5h-50v-242h62q60 0 96.5 31.5t36.5 92.5zM362 -108q0 -45 -23.5 -83t-58.5 -63q-9 -6 -15 -6t-12 8l-8 9q-7 9 2 18q13 13 23.5 28.5t10.5 30.5q0 9 -5.5 17t-11.5 16.5t-11.5 18t-5.5 20.5q0 23 16.5 38.5t39.5 15.5q26 0 42.5 -21.5t16.5 -46.5z" />
    <glyph glyph-name="Sacute" unicode="&#x15a;" horiz-adv-x="540" 
d="M500 202q0 -52 -19.5 -92t-53 -67t-77.5 -41t-93 -14q-45 0 -95.5 8t-95.5 24q-14 5 -16.5 13t1.5 19l21 65q4 13 12 15.5t21 -2.5q35 -13 73 -21.5t76 -8.5q20 0 40.5 5t37 16t27 27.5t10.5 40.5q0 35 -22 55.5t-51 34.5l-130 65q-54 26 -86 69.5t-32 102.5
q0 46 20.5 81t53.5 59t74 36.5t83 12.5q50 0 92.5 -8t86.5 -27q14 -6 18 -13t-1 -20l-24 -61q-5 -13 -13 -14.5t-20 3.5q-32 14 -67 22.5t-65 8.5q-18 0 -36 -4t-32.5 -13t-23.5 -23.5t-9 -35.5q0 -15 6.5 -27.5t16.5 -22.5t23 -17.5t25 -13.5l111 -54q60 -29 96.5 -71.5
t36.5 -111.5zM315 912q12 9 19.5 8t15.5 -12l30 -45q12 -18 -6 -28l-152 -84q-11 -6 -17.5 -5t-14.5 12l-17 25q-8 11 -7 17.5t12 14.5z" />
    <glyph glyph-name="Scircumflex" unicode="&#x15c;" horiz-adv-x="540" 
d="M500 202q0 -52 -19.5 -92t-53 -67t-77.5 -41t-93 -14q-45 0 -95.5 8t-95.5 24q-14 5 -16.5 13t1.5 19l21 65q4 13 12 15.5t21 -2.5q35 -13 73 -21.5t76 -8.5q20 0 40.5 5t37 16t27 27.5t10.5 40.5q0 35 -22 55.5t-51 34.5l-130 65q-54 26 -86 69.5t-32 102.5
q0 46 20.5 81t53.5 59t74 36.5t83 12.5q50 0 92.5 -8t86.5 -27q14 -6 18 -13t-1 -20l-24 -61q-5 -13 -13 -14.5t-20 3.5q-32 14 -67 22.5t-65 8.5q-18 0 -36 -4t-32.5 -13t-23.5 -23.5t-9 -35.5q0 -15 6.5 -27.5t16.5 -22.5t23 -17.5t25 -13.5l111 -54q60 -29 96.5 -71.5
t36.5 -111.5zM289 905q11 0 16.5 -2.5t12.5 -8.5l100 -91q14 -14 2 -26l-17 -18q-8 -8 -14.5 -8t-20.5 9l-87 57l-87 -57q-14 -9 -20.5 -9t-14.5 8l-17 18q-12 12 2 26l100 91q7 6 12.5 8.5t16.5 2.5h16z" />
    <glyph glyph-name="Scaron" unicode="&#x160;" horiz-adv-x="540" 
d="M500 202q0 -52 -19.5 -92t-53 -67t-77.5 -41t-93 -14q-45 0 -95.5 8t-95.5 24q-14 5 -16.5 13t1.5 19l21 65q4 13 12 15.5t21 -2.5q35 -13 73 -21.5t76 -8.5q20 0 40.5 5t37 16t27 27.5t10.5 40.5q0 35 -22 55.5t-51 34.5l-130 65q-54 26 -86 69.5t-32 102.5
q0 46 20.5 81t53.5 59t74 36.5t83 12.5q50 0 92.5 -8t86.5 -27q14 -6 18 -13t-1 -20l-24 -61q-5 -13 -13 -14.5t-20 3.5q-32 14 -67 22.5t-65 8.5q-18 0 -36 -4t-32.5 -13t-23.5 -23.5t-9 -35.5q0 -15 6.5 -27.5t16.5 -22.5t23 -17.5t25 -13.5l111 -54q60 -29 96.5 -71.5
t36.5 -111.5zM270 751q-11 0 -16.5 2.5t-12.5 8.5l-100 91q-14 14 -2 26l17 18q8 8 14.5 8t20.5 -9l87 -57l87 57q14 9 20.5 9t14.5 -8l17 -18q12 -12 -2 -26l-100 -91q-7 -6 -12.5 -8.5t-16.5 -2.5h-16z" />
    <glyph glyph-name="Scedilla" unicode="&#x15e;" horiz-adv-x="540" 
d="M393 -129q0 -38 -31.5 -62.5t-83.5 -24.5q-39 0 -73 14q-16 6 -13 19l7 32q2 5 5.5 7.5t15.5 -1.5t26.5 -6.5t23.5 -2.5q17 0 29 6.5t12 19.5q0 12 -8.5 19t-40.5 7h-14q-26 0 -31.5 7t-3.5 24l7 60q-38 3 -78 10.5t-76 20.5q-14 5 -16.5 13t1.5 19l21 65q4 13 12 15.5
t21 -2.5q35 -13 73 -21.5t76 -8.5q20 0 40.5 5t37 16t27 27.5t10.5 40.5q0 35 -22 55.5t-51 34.5l-130 65q-54 26 -86 69.5t-32 102.5q0 46 20.5 81t53.5 59t74 36.5t83 12.5q50 0 92.5 -8t86.5 -27q14 -6 18 -13t-1 -20l-24 -61q-5 -13 -13 -14.5t-20 3.5q-32 14 -67 22.5
t-65 8.5q-18 0 -36 -4t-32.5 -13t-23.5 -23.5t-9 -35.5q0 -15 6.5 -27.5t16.5 -22.5t23 -17.5t25 -13.5l111 -54q60 -29 96.5 -71.5t36.5 -111.5q0 -48 -17 -86t-46.5 -65t-69 -42.5t-83.5 -19.5l-2 -33h8q49 0 76 -21.5t27 -63.5z" />
    <glyph glyph-name="Scommaaccent" unicode="&#x218;" horiz-adv-x="540" 
d="M500 202q0 -52 -19.5 -92t-53 -67t-77.5 -41t-93 -14q-45 0 -95.5 8t-95.5 24q-14 5 -16.5 13t1.5 19l21 65q4 13 12 15.5t21 -2.5q35 -13 73 -21.5t76 -8.5q20 0 40.5 5t37 16t27 27.5t10.5 40.5q0 35 -22 55.5t-51 34.5l-130 65q-54 26 -86 69.5t-32 102.5
q0 46 20.5 81t53.5 59t74 36.5t83 12.5q50 0 92.5 -8t86.5 -27q14 -6 18 -13t-1 -20l-24 -61q-5 -13 -13 -14.5t-20 3.5q-32 14 -67 22.5t-65 8.5q-18 0 -36 -4t-32.5 -13t-23.5 -23.5t-9 -35.5q0 -15 6.5 -27.5t16.5 -22.5t23 -17.5t25 -13.5l111 -54q60 -29 96.5 -71.5
t36.5 -111.5zM333 -108q0 -45 -23.5 -83t-58.5 -63q-9 -6 -15 -6t-12 8l-8 9q-7 9 2 18q13 13 23.5 28.5t10.5 30.5q0 9 -5.5 17t-11.5 16.5t-11.5 18t-5.5 20.5q0 23 16.5 38.5t39.5 15.5q26 0 42.5 -21.5t16.5 -46.5z" />
    <glyph glyph-name="Tcaron" unicode="&#x164;" horiz-adv-x="575" 
d="M223 588h-187q-23 0 -23 24v59q0 21 22 21h507q19 0 25.5 -5.5t4.5 -19.5l-7 -58q-2 -12 -9 -16.5t-22 -4.5h-181v-563q0 -25 -24 -25h-81q-25 0 -25 25v563zM277 751q-11 0 -16.5 2.5t-12.5 8.5l-100 91q-14 14 -2 26l17 18q8 8 14.5 8t20.5 -9l87 -57l87 57
q14 9 20.5 9t14.5 -8l17 -18q12 -12 -2 -26l-100 -91q-7 -6 -12.5 -8.5t-16.5 -2.5h-16z" />
    <glyph glyph-name="Tcommaaccent" unicode="&#x162;" horiz-adv-x="575" 
d="M223 588h-187q-23 0 -23 24v59q0 21 22 21h507q19 0 25.5 -5.5t4.5 -19.5l-7 -58q-2 -12 -9 -16.5t-22 -4.5h-181v-563q0 -25 -24 -25h-81q-25 0 -25 25v563zM346 -108q0 -45 -23.5 -83t-58.5 -63q-9 -6 -15 -6t-12 8l-8 9q-7 9 2 18q13 13 23.5 28.5t10.5 30.5
q0 9 -5.5 17t-11.5 16.5t-11.5 18t-5.5 20.5q0 23 16.5 38.5t39.5 15.5q26 0 42.5 -21.5t16.5 -46.5z" />
    <glyph glyph-name="uni021A" unicode="&#x21a;" horiz-adv-x="575" 
d="M223 588h-187q-23 0 -23 24v59q0 21 22 21h507q19 0 25.5 -5.5t4.5 -19.5l-7 -58q-2 -12 -9 -16.5t-22 -4.5h-181v-563q0 -25 -24 -25h-81q-25 0 -25 25v563zM346 -108q0 -45 -23.5 -83t-58.5 -63q-9 -6 -15 -6t-12 8l-8 9q-7 9 2 18q13 13 23.5 28.5t10.5 30.5
q0 9 -5.5 17t-11.5 16.5t-11.5 18t-5.5 20.5q0 23 16.5 38.5t39.5 15.5q26 0 42.5 -21.5t16.5 -46.5z" />
    <glyph glyph-name="Tbar" unicode="&#x166;" horiz-adv-x="575" 
d="M565 609q-2 -13 -9.5 -17t-21.5 -4h-181v-199h100q12 0 16 -3.5t4 -15.5v-40q0 -11 -4 -15t-17 -4h-99v-288q0 -14 -4 -18.5t-17 -4.5h-88q-14 0 -17.5 4t-3.5 18v289h-80q-13 0 -17 4t-4 15v40q0 12 4 15.5t16 3.5h81v199h-187q-23 0 -23 24v59q0 21 22 21h506
q20 0 26.5 -6t4.5 -19z" />
    <glyph glyph-name="Ugrave" unicode="&#xd9;" horiz-adv-x="720" 
d="M650 307q0 -155 -72.5 -237t-219.5 -82q-79 0 -134 21.5t-89 62.5t-49.5 100.5t-15.5 136.5v359q0 24 26 24h79q24 0 24 -24v-348q0 -55 8 -97t27 -70t50.5 -42t78.5 -14q45 0 75.5 14.5t49 43t26.5 70t8 95.5v348q0 24 25 24h79q24 0 24 -24v-361zM454 815
q11 -8 12 -14.5t-7 -17.5l-17 -25q-8 -11 -14.5 -12t-17.5 5l-152 84q-18 10 -6 28l30 45q8 11 15.5 12t19.5 -8z" />
    <glyph glyph-name="Uacute" unicode="&#xda;" horiz-adv-x="720" 
d="M650 307q0 -155 -72.5 -237t-219.5 -82q-79 0 -134 21.5t-89 62.5t-49.5 100.5t-15.5 136.5v359q0 24 26 24h79q24 0 24 -24v-348q0 -55 8 -97t27 -70t50.5 -42t78.5 -14q45 0 75.5 14.5t49 43t26.5 70t8 95.5v348q0 24 25 24h79q24 0 24 -24v-361zM405 912q12 9 19.5 8
t15.5 -12l30 -45q12 -18 -6 -28l-152 -84q-11 -6 -17.5 -5t-14.5 12l-17 25q-8 11 -7 17.5t12 14.5z" />
    <glyph glyph-name="Ucircumflex" unicode="&#xdb;" horiz-adv-x="720" 
d="M650 307q0 -155 -72.5 -237t-219.5 -82q-79 0 -134 21.5t-89 62.5t-49.5 100.5t-15.5 136.5v359q0 24 26 24h79q24 0 24 -24v-348q0 -55 8 -97t27 -70t50.5 -42t78.5 -14q45 0 75.5 14.5t49 43t26.5 70t8 95.5v348q0 24 25 24h79q24 0 24 -24v-361zM373 905
q11 0 16.5 -2.5t12.5 -8.5l100 -91q14 -14 2 -26l-17 -18q-8 -8 -14.5 -8t-20.5 9l-87 57l-87 -57q-14 -9 -20.5 -9t-14.5 8l-17 18q-12 12 2 26l100 91q7 6 12.5 8.5t16.5 2.5h16z" />
    <glyph glyph-name="Utilde" unicode="&#x168;" horiz-adv-x="720" 
d="M650 307q0 -155 -72.5 -237t-219.5 -82q-79 0 -134 21.5t-89 62.5t-49.5 100.5t-15.5 136.5v359q0 24 26 24h79q24 0 24 -24v-348q0 -55 8 -97t27 -70t50.5 -42t78.5 -14q45 0 75.5 14.5t49 43t26.5 70t8 95.5v348q0 24 25 24h79q24 0 24 -24v-361zM476 867q11 7 17 6
t11 -10l16 -32q9 -17 -10 -29q-20 -14 -44 -23.5t-47 -9.5q-18 0 -34.5 5.5t-31 12t-28 12t-25.5 5.5q-26 0 -60 -21q-11 -7 -17 -6t-11 10l-16 32q-9 17 10 29q20 14 44 23.5t47 9.5q18 0 34.5 -5.5t31 -12t28 -12t25.5 -5.5q14 0 28.5 5t31.5 16z" />
    <glyph glyph-name="Udieresis" unicode="&#xdc;" horiz-adv-x="720" 
d="M650 307q0 -155 -72.5 -237t-219.5 -82q-79 0 -134 21.5t-89 62.5t-49.5 100.5t-15.5 136.5v359q0 24 26 24h79q24 0 24 -24v-348q0 -55 8 -97t27 -70t50.5 -42t78.5 -14q45 0 75.5 14.5t49 43t26.5 70t8 95.5v348q0 24 25 24h79q24 0 24 -24v-361zM330 833
q0 -28 -20 -43t-41 -15q-22 0 -42 14.5t-20 42.5q0 29 19 44t43 15q23 0 42 -15t19 -43zM513 833q0 -28 -20 -43t-41 -15q-22 0 -42 14.5t-20 42.5q0 29 19 44t43 15q23 0 42 -15t19 -43z" />
    <glyph glyph-name="Umacron" unicode="&#x16a;" horiz-adv-x="720" 
d="M650 307q0 -155 -72.5 -237t-219.5 -82q-79 0 -134 21.5t-89 62.5t-49.5 100.5t-15.5 136.5v359q0 24 26 24h79q24 0 24 -24v-348q0 -55 8 -97t27 -70t50.5 -42t78.5 -14q45 0 75.5 14.5t49 43t26.5 70t8 95.5v348q0 24 25 24h79q24 0 24 -24v-361zM480 867q11 0 15.5 -4
t4.5 -15v-38q0 -11 -4.5 -15t-15.5 -4h-241q-11 0 -15.5 4t-4.5 15v38q0 11 4.5 15t15.5 4h241z" />
    <glyph glyph-name="Ubreve" unicode="&#x16c;" horiz-adv-x="720" 
d="M650 307q0 -155 -72.5 -237t-219.5 -82q-79 0 -134 21.5t-89 62.5t-49.5 100.5t-15.5 136.5v359q0 24 26 24h79q24 0 24 -24v-348q0 -55 8 -97t27 -70t50.5 -42t78.5 -14q45 0 75.5 14.5t49 43t26.5 70t8 95.5v348q0 24 25 24h79q24 0 24 -24v-361zM362 762
q-51 0 -89 27.5t-46 75.5q-4 24 19 24h31q15 0 19 -4t9 -14q16 -34 57 -34t57 34q5 10 9 14t19 4h31q23 0 19 -24q-8 -48 -45 -75.5t-90 -27.5z" />
    <glyph glyph-name="Uring" unicode="&#x16e;" horiz-adv-x="720" 
d="M650 307q0 -155 -72.5 -237t-219.5 -82q-79 0 -134 21.5t-89 62.5t-49.5 100.5t-15.5 136.5v359q0 24 26 24h79q24 0 24 -24v-348q0 -55 8 -97t27 -70t50.5 -42t78.5 -14q45 0 75.5 14.5t49 43t26.5 70t8 95.5v348q0 24 25 24h79q24 0 24 -24v-361zM360 798q12 0 19 8
t7 19t-7 19t-19 8t-19 -8t-7 -19t7 -19t19 -8zM360 745q-35 0 -58.5 22.5t-23.5 57.5t23.5 57.5t58.5 22.5t58.5 -22.5t23.5 -57.5t-23.5 -57.5t-58.5 -22.5z" />
    <glyph glyph-name="Uhungarumlaut" unicode="&#x170;" horiz-adv-x="720" 
d="M650 307q0 -155 -72.5 -237t-219.5 -82q-79 0 -134 21.5t-89 62.5t-49.5 100.5t-15.5 136.5v359q0 24 26 24h79q24 0 24 -24v-348q0 -55 8 -97t27 -70t50.5 -42t78.5 -14q45 0 75.5 14.5t49 43t26.5 70t8 95.5v348q0 24 25 24h79q24 0 24 -24v-361zM384 876
q6 -9 5.5 -15.5t-11.5 -11.5l-142 -77q-14 -8 -21 -6.5t-13 11.5l-11 19q-6 11 -5 16t12 13l127 90q25 18 36 -1zM571 876q6 -9 5.5 -15.5t-11.5 -11.5l-142 -77q-14 -8 -21 -6.5t-13 11.5l-11 19q-6 11 -5 16t12 13l127 90q25 18 36 -1z" />
    <glyph glyph-name="Uogonek" unicode="&#x172;" horiz-adv-x="720" 
d="M650 307q0 -151 -69 -232q-17 -18 -42 -37t-48 -40.5t-40 -46t-17 -53.5q0 -48 49 -48q12 0 23.5 2t25.5 6q8 2 11.5 0t5.5 -9l8 -27q2 -5 0.5 -10t-12.5 -10q-15 -7 -38.5 -11.5t-44.5 -4.5q-51 0 -81.5 25.5t-30.5 67.5q0 31 15.5 60t42.5 52q-24 -3 -50 -3
q-79 0 -134 21.5t-89 62.5t-49.5 100.5t-15.5 136.5v359q0 24 26 24h79q24 0 24 -24v-348q0 -55 8 -97t27 -70t50.5 -42t78.5 -14q45 0 75.5 14.5t49 43t26.5 70t8 95.5v348q0 24 25 24h79q24 0 24 -24v-361z" />
    <glyph glyph-name="Wgrave" unicode="&#x1e80;" horiz-adv-x="940" 
d="M734 27q-5 -16 -12 -21.5t-23 -5.5h-62q-15 0 -22.5 6t-11.5 20l-130 458h-2l-130 -455q-5 -17 -13 -23t-24 -6h-57q-17 0 -24.5 6.5t-12.5 23.5l-191 632q-9 30 21 30h91q16 0 23 -5.5t11 -19.5l122 -461h1l127 464q4 13 10 17.5t20 4.5h65q15 0 21 -5t9 -16l127 -465h2
l121 463q4 14 10 18.5t21 4.5h78q14 0 19.5 -6.5t0.5 -23.5zM569 835q11 -8 12 -14.5t-7 -17.5l-17 -25q-8 -11 -14.5 -12t-17.5 5l-152 84q-18 10 -6 28l30 45q8 11 15.5 12t19.5 -8z" />
    <glyph glyph-name="Wacute" unicode="&#x1e82;" horiz-adv-x="940" 
d="M734 27q-5 -16 -12 -21.5t-23 -5.5h-62q-15 0 -22.5 6t-11.5 20l-130 458h-2l-130 -455q-5 -17 -13 -23t-24 -6h-57q-17 0 -24.5 6.5t-12.5 23.5l-191 632q-9 30 21 30h91q16 0 23 -5.5t11 -19.5l122 -461h1l127 464q4 13 10 17.5t20 4.5h65q15 0 21 -5t9 -16l127 -465h2
l121 463q4 14 10 18.5t21 4.5h78q14 0 19.5 -6.5t0.5 -23.5zM521 922q12 9 19.5 8t15.5 -12l30 -45q12 -18 -6 -28l-152 -84q-11 -6 -17.5 -5t-14.5 12l-17 25q-8 11 -7 17.5t12 14.5z" />
    <glyph glyph-name="Wcircumflex" unicode="&#x174;" horiz-adv-x="940" 
d="M734 27q-5 -16 -12 -21.5t-23 -5.5h-62q-15 0 -22.5 6t-11.5 20l-130 458h-2l-130 -455q-5 -17 -13 -23t-24 -6h-57q-17 0 -24.5 6.5t-12.5 23.5l-191 632q-9 30 21 30h91q16 0 23 -5.5t11 -19.5l122 -461h1l127 464q4 13 10 17.5t20 4.5h65q15 0 21 -5t9 -16l127 -465h2
l121 463q4 14 10 18.5t21 4.5h78q14 0 19.5 -6.5t0.5 -23.5zM477 905q11 0 16.5 -2.5t12.5 -8.5l100 -91q14 -14 2 -26l-17 -18q-8 -8 -14.5 -8t-20.5 9l-87 57l-87 -57q-14 -9 -20.5 -9t-14.5 8l-17 18q-12 12 2 26l100 91q7 6 12.5 8.5t16.5 2.5h16z" />
    <glyph glyph-name="Wdieresis" unicode="&#x1e84;" horiz-adv-x="940" 
d="M734 27q-5 -16 -12 -21.5t-23 -5.5h-62q-15 0 -22.5 6t-11.5 20l-130 458h-2l-130 -455q-5 -17 -13 -23t-24 -6h-57q-17 0 -24.5 6.5t-12.5 23.5l-191 632q-9 30 21 30h91q16 0 23 -5.5t11 -19.5l122 -461h1l127 464q4 13 10 17.5t20 4.5h65q15 0 21 -5t9 -16l127 -465h2
l121 463q4 14 10 18.5t21 4.5h78q14 0 19.5 -6.5t0.5 -23.5zM443 821q0 -28 -20 -43t-41 -15q-22 0 -42 14.5t-20 42.5q0 29 19 44t43 15q23 0 42 -15t19 -43zM626 821q0 -28 -20 -43t-41 -15q-22 0 -42 14.5t-20 42.5q0 29 19 44t43 15q23 0 42 -15t19 -43z" />
    <glyph glyph-name="Ygrave" unicode="&#x1ef2;" horiz-adv-x="592" 
d="M308 390l142 281q6 12 13.5 16.5t21.5 4.5h73q27 0 14 -25l-206 -381v-263q0 -23 -23 -23h-84q-23 0 -23 25v256l-217 387q-5 8 -2 16t17 8h93q25 0 35 -19l144 -283h2zM389 769q11 -8 12 -14.5t-7 -17.5l-17 -25q-8 -11 -14.5 -12t-17.5 5l-152 84q-18 10 -6 28l30 45
q8 11 15.5 12t19.5 -8z" />
    <glyph glyph-name="Yacute" unicode="&#xdd;" horiz-adv-x="592" 
d="M308 390l142 281q6 12 13.5 16.5t21.5 4.5h73q27 0 14 -25l-206 -381v-263q0 -23 -23 -23h-84q-23 0 -23 25v256l-217 387q-5 8 -2 16t17 8h93q25 0 35 -19l144 -283h2zM343 912q12 9 19.5 8t15.5 -12l30 -45q12 -18 -6 -28l-152 -84q-11 -6 -17.5 -5t-14.5 12l-17 25
q-8 11 -7 17.5t12 14.5z" />
    <glyph glyph-name="Ycircumflex" unicode="&#x176;" horiz-adv-x="592" 
d="M308 390l142 281q6 12 13.5 16.5t21.5 4.5h73q27 0 14 -25l-206 -381v-263q0 -23 -23 -23h-84q-23 0 -23 25v256l-217 387q-5 8 -2 16t17 8h93q25 0 35 -19l144 -283h2zM313 905q11 0 16.5 -2.5t12.5 -8.5l100 -91q14 -14 2 -26l-17 -18q-8 -8 -14.5 -8t-20.5 9l-87 57
l-87 -57q-14 -9 -20.5 -9t-14.5 8l-17 18q-12 12 2 26l100 91q7 6 12.5 8.5t16.5 2.5h16z" />
    <glyph glyph-name="Ydieresis" unicode="&#x178;" horiz-adv-x="592" 
d="M308 390l142 281q6 12 13.5 16.5t21.5 4.5h73q27 0 14 -25l-206 -381v-263q0 -23 -23 -23h-84q-23 0 -23 25v256l-217 387q-5 8 -2 16t17 8h93q25 0 35 -19l144 -283h2zM275 833q0 -28 -20 -43t-41 -15q-22 0 -42 14.5t-20 42.5q0 29 19 44t43 15q23 0 42 -15t19 -43z
M458 833q0 -28 -20 -43t-41 -15q-22 0 -42 14.5t-20 42.5q0 29 19 44t43 15q23 0 42 -15t19 -43z" />
    <glyph glyph-name="Zacute" unicode="&#x179;" horiz-adv-x="585" 
d="M556 24q0 -24 -25 -24h-484q-10 0 -14.5 6t-4.5 15v31q0 9 2 16t8 16l331 503v1h-293q-25 0 -25 23v61q0 20 20 20h447q14 0 19 -6t5 -16v-24q0 -11 -2 -21.5t-10 -21.5l-329 -498v-1h332q11 0 17 -4.5t6 -18.5v-57zM337 912q12 9 19.5 8t15.5 -12l30 -45q12 -18 -6 -28
l-152 -84q-11 -6 -17.5 -5t-14.5 12l-17 25q-8 11 -7 17.5t12 14.5z" />
    <glyph glyph-name="Zcaron" unicode="&#x17d;" horiz-adv-x="585" 
d="M556 24q0 -24 -25 -24h-484q-10 0 -14.5 6t-4.5 15v31q0 9 2 16t8 16l331 503v1h-293q-25 0 -25 23v61q0 20 20 20h447q14 0 19 -6t5 -16v-24q0 -11 -2 -21.5t-10 -21.5l-329 -498v-1h332q11 0 17 -4.5t6 -18.5v-57zM292 751q-11 0 -16.5 2.5t-12.5 8.5l-100 91
q-14 14 -2 26l17 18q8 8 14.5 8t20.5 -9l87 -57l87 57q14 9 20.5 9t14.5 -8l17 -18q12 -12 -2 -26l-100 -91q-7 -6 -12.5 -8.5t-16.5 -2.5h-16z" />
    <glyph glyph-name="Zdotaccent" unicode="&#x17b;" horiz-adv-x="585" 
d="M556 24q0 -24 -25 -24h-484q-10 0 -14.5 6t-4.5 15v31q0 9 2 16t8 16l331 503v1h-293q-25 0 -25 23v61q0 20 20 20h447q14 0 19 -6t5 -16v-24q0 -11 -2 -21.5t-10 -21.5l-329 -498v-1h332q11 0 17 -4.5t6 -18.5v-57zM366 830q0 -29 -20 -45t-43 -16t-44 15.5t-21 44.5
t20.5 45t44.5 16t43.5 -15.5t19.5 -44.5z" />
    <glyph glyph-name="agrave" unicode="&#xe0;" horiz-adv-x="558" 
d="M534 19q0 -19 -20 -19h-48q-39 0 -58 16.5t-24 42.5h-2q-23 -30 -62.5 -50.5t-82.5 -20.5q-53 0 -91.5 20t-64 54t-37.5 78.5t-12 93.5q0 65 18 114.5t48 82.5t69 50t81 17q40 0 74.5 -16t53.5 -42l2 27q2 18 21 18h70q21 0 21 -22v-353q0 -14 3.5 -20.5t14.5 -6.5h8
q18 0 18 -17v-47zM369 348q-15 22 -42.5 36.5t-56.5 14.5q-23 0 -43.5 -10t-36 -29.5t-24.5 -49t-9 -68.5q0 -32 6 -60t19 -49t33 -33.5t48 -12.5q18 0 35 6.5t31 16t24 21.5t16 24v193zM373 615q11 -8 12 -14.5t-7 -17.5l-17 -25q-8 -11 -14.5 -12t-17.5 5l-152 84
q-18 10 -6 28l30 45q8 11 15.5 12t19.5 -8z" />
    <glyph glyph-name="aacute" unicode="&#xe1;" horiz-adv-x="558" 
d="M534 19q0 -19 -20 -19h-48q-39 0 -58 16.5t-24 42.5h-2q-23 -30 -62.5 -50.5t-82.5 -20.5q-53 0 -91.5 20t-64 54t-37.5 78.5t-12 93.5q0 65 18 114.5t48 82.5t69 50t81 17q40 0 74.5 -16t53.5 -42l2 27q2 18 21 18h70q21 0 21 -22v-353q0 -14 3.5 -20.5t14.5 -6.5h8
q18 0 18 -17v-47zM369 348q-15 22 -42.5 36.5t-56.5 14.5q-23 0 -43.5 -10t-36 -29.5t-24.5 -49t-9 -68.5q0 -32 6 -60t19 -49t33 -33.5t48 -12.5q18 0 35 6.5t31 16t24 21.5t16 24v193zM324 712q12 9 19.5 8t15.5 -12l30 -45q12 -18 -6 -28l-152 -84q-11 -6 -17.5 -5
t-14.5 12l-17 25q-8 11 -7 17.5t12 14.5z" />
    <glyph glyph-name="acircumflex" unicode="&#xe2;" horiz-adv-x="558" 
d="M534 19q0 -19 -20 -19h-48q-39 0 -58 16.5t-24 42.5h-2q-23 -30 -62.5 -50.5t-82.5 -20.5q-53 0 -91.5 20t-64 54t-37.5 78.5t-12 93.5q0 65 18 114.5t48 82.5t69 50t81 17q40 0 74.5 -16t53.5 -42l2 27q2 18 21 18h70q21 0 21 -22v-353q0 -14 3.5 -20.5t14.5 -6.5h8
q18 0 18 -17v-47zM369 348q-15 22 -42.5 36.5t-56.5 14.5q-23 0 -43.5 -10t-36 -29.5t-24.5 -49t-9 -68.5q0 -32 6 -60t19 -49t33 -33.5t48 -12.5q18 0 35 6.5t31 16t24 21.5t16 24v193zM289 705q11 0 16.5 -2.5t12.5 -8.5l100 -91q14 -14 2 -26l-17 -18q-8 -8 -14.5 -8
t-20.5 9l-87 57l-87 -57q-14 -9 -20.5 -9t-14.5 8l-17 18q-12 12 2 26l100 91q7 6 12.5 8.5t16.5 2.5h16z" />
    <glyph glyph-name="atilde" unicode="&#xe3;" horiz-adv-x="558" 
d="M534 19q0 -19 -20 -19h-48q-39 0 -58 16.5t-24 42.5h-2q-23 -30 -62.5 -50.5t-82.5 -20.5q-53 0 -91.5 20t-64 54t-37.5 78.5t-12 93.5q0 65 18 114.5t48 82.5t69 50t81 17q40 0 74.5 -16t53.5 -42l2 27q2 18 21 18h70q21 0 21 -22v-353q0 -14 3.5 -20.5t14.5 -6.5h8
q18 0 18 -17v-47zM369 348q-15 22 -42.5 36.5t-56.5 14.5q-23 0 -43.5 -10t-36 -29.5t-24.5 -49t-9 -68.5q0 -32 6 -60t19 -49t33 -33.5t48 -12.5q18 0 35 6.5t31 16t24 21.5t16 24v193zM399 667q11 7 17 6t11 -10l16 -32q9 -17 -10 -29q-20 -14 -44 -23.5t-47 -9.5
q-18 0 -34.5 5.5t-31 12t-28 12t-25.5 5.5q-26 0 -60 -21q-11 -7 -17 -6t-11 10l-16 32q-9 17 10 29q20 14 44 23.5t47 9.5q18 0 34.5 -5.5t31 -12t28 -12t25.5 -5.5q14 0 28.5 5t31.5 16z" />
    <glyph glyph-name="adieresis" unicode="&#xe4;" horiz-adv-x="558" 
d="M534 19q0 -19 -20 -19h-48q-39 0 -58 16.5t-24 42.5h-2q-23 -30 -62.5 -50.5t-82.5 -20.5q-53 0 -91.5 20t-64 54t-37.5 78.5t-12 93.5q0 65 18 114.5t48 82.5t69 50t81 17q40 0 74.5 -16t53.5 -42l2 27q2 18 21 18h70q21 0 21 -22v-353q0 -14 3.5 -20.5t14.5 -6.5h8
q18 0 18 -17v-47zM369 348q-15 22 -42.5 36.5t-56.5 14.5q-23 0 -43.5 -10t-36 -29.5t-24.5 -49t-9 -68.5q0 -32 6 -60t19 -49t33 -33.5t48 -12.5q18 0 35 6.5t31 16t24 21.5t16 24v193zM257 633q0 -28 -20 -43t-41 -15q-22 0 -42 14.5t-20 42.5q0 29 19 44t43 15
q23 0 42 -15t19 -43zM440 633q0 -28 -20 -43t-41 -15q-22 0 -42 14.5t-20 42.5q0 29 19 44t43 15q23 0 42 -15t19 -43z" />
    <glyph glyph-name="amacron" unicode="&#x101;" horiz-adv-x="558" 
d="M534 19q0 -19 -20 -19h-48q-39 0 -58 16.5t-24 42.5h-2q-23 -30 -62.5 -50.5t-82.5 -20.5q-53 0 -91.5 20t-64 54t-37.5 78.5t-12 93.5q0 65 18 114.5t48 82.5t69 50t81 17q40 0 74.5 -16t53.5 -42l2 27q2 18 21 18h70q21 0 21 -22v-353q0 -14 3.5 -20.5t14.5 -6.5h8
q18 0 18 -17v-47zM369 348q-15 22 -42.5 36.5t-56.5 14.5q-23 0 -43.5 -10t-36 -29.5t-24.5 -49t-9 -68.5q0 -32 6 -60t19 -49t33 -33.5t48 -12.5q18 0 35 6.5t31 16t24 21.5t16 24v193zM399 667q11 0 15.5 -4t4.5 -15v-38q0 -11 -4.5 -15t-15.5 -4h-241q-11 0 -15.5 4
t-4.5 15v38q0 11 4.5 15t15.5 4h241z" />
    <glyph glyph-name="abreve" unicode="&#x103;" horiz-adv-x="558" 
d="M534 19q0 -19 -20 -19h-48q-39 0 -58 16.5t-24 42.5h-2q-23 -30 -62.5 -50.5t-82.5 -20.5q-53 0 -91.5 20t-64 54t-37.5 78.5t-12 93.5q0 65 18 114.5t48 82.5t69 50t81 17q40 0 74.5 -16t53.5 -42l2 27q2 18 21 18h70q21 0 21 -22v-353q0 -14 3.5 -20.5t14.5 -6.5h8
q18 0 18 -17v-47zM369 348q-15 22 -42.5 36.5t-56.5 14.5q-23 0 -43.5 -10t-36 -29.5t-24.5 -49t-9 -68.5q0 -32 6 -60t19 -49t33 -33.5t48 -12.5q18 0 35 6.5t31 16t24 21.5t16 24v193zM281 562q-51 0 -89 27.5t-46 75.5q-4 24 19 24h31q15 0 19 -4t9 -14q16 -34 57 -34
t57 34q5 10 9 14t19 4h31q23 0 19 -24q-8 -48 -45 -75.5t-90 -27.5z" />
    <glyph glyph-name="acaron" unicode="&#x1ce;" horiz-adv-x="558" 
d="M534 19q0 -19 -20 -19h-48q-39 0 -58 16.5t-24 42.5h-2q-23 -30 -62.5 -50.5t-82.5 -20.5q-53 0 -91.5 20t-64 54t-37.5 78.5t-12 93.5q0 65 18 114.5t48 82.5t69 50t81 17q40 0 74.5 -16t53.5 -42l2 27q2 18 21 18h70q21 0 21 -22v-353q0 -14 3.5 -20.5t14.5 -6.5h8
q18 0 18 -17v-47zM369 348q-15 22 -42.5 36.5t-56.5 14.5q-23 0 -43.5 -10t-36 -29.5t-24.5 -49t-9 -68.5q0 -32 6 -60t19 -49t33 -33.5t48 -12.5q18 0 35 6.5t31 16t24 21.5t16 24v193zM271 551q-11 0 -16.5 2.5t-12.5 8.5l-100 91q-14 14 -2 26l17 18q8 8 14.5 8t20.5 -9
l87 -57l87 57q14 9 20.5 9t14.5 -8l17 -18q12 -12 -2 -26l-100 -91q-7 -6 -12.5 -8.5t-16.5 -2.5h-16z" />
    <glyph glyph-name="aring" unicode="&#xe5;" horiz-adv-x="558" 
d="M534 19q0 -19 -20 -19h-48q-39 0 -58 16.5t-24 42.5h-2q-23 -30 -62.5 -50.5t-82.5 -20.5q-53 0 -91.5 20t-64 54t-37.5 78.5t-12 93.5q0 65 18 114.5t48 82.5t69 50t81 17q40 0 74.5 -16t53.5 -42l2 27q2 18 21 18h70q21 0 21 -22v-353q0 -14 3.5 -20.5t14.5 -6.5h8
q18 0 18 -17v-47zM369 348q-15 22 -42.5 36.5t-56.5 14.5q-23 0 -43.5 -10t-36 -29.5t-24.5 -49t-9 -68.5q0 -32 6 -60t19 -49t33 -33.5t48 -12.5q18 0 35 6.5t31 16t24 21.5t16 24v193zM279 598q12 0 19 8t7 19t-7 19t-19 8t-19 -8t-7 -19t7 -19t19 -8zM279 545
q-35 0 -58.5 22.5t-23.5 57.5t23.5 57.5t58.5 22.5t58.5 -22.5t23.5 -57.5t-23.5 -57.5t-58.5 -22.5z" />
    <glyph glyph-name="aringacute" unicode="&#x1fb;" horiz-adv-x="558" 
d="M534 19q0 -19 -20 -19h-48q-39 0 -58 16.5t-24 42.5h-2q-23 -30 -62.5 -50.5t-82.5 -20.5q-53 0 -91.5 20t-64 54t-37.5 78.5t-12 93.5q0 65 18 114.5t48 82.5t69 50t81 17q40 0 74.5 -16t53.5 -42l2 27q2 18 21 18h70q21 0 21 -22v-353q0 -14 3.5 -20.5t14.5 -6.5h8
q18 0 18 -17v-47zM369 348q-15 22 -42.5 36.5t-56.5 14.5q-23 0 -43.5 -10t-36 -29.5t-24.5 -49t-9 -68.5q0 -32 6 -60t19 -49t33 -33.5t48 -12.5q18 0 35 6.5t31 16t24 21.5t16 24v193zM279 581q12 0 19 8t7 19t-7 19t-19 8t-19 -8t-7 -19t7 -19t19 -8zM279 528
q-35 0 -58.5 22.5t-23.5 57.5t23.5 57.5t58.5 22.5t58.5 -22.5t23.5 -57.5t-23.5 -57.5t-58.5 -22.5zM304 861q12 9 19.5 8t15.5 -12l30 -45q12 -18 -6 -28l-152 -84q-11 -6 -17.5 -5t-14.5 12l-17 25q-8 11 -7 17.5t12 14.5z" />
    <glyph glyph-name="aogonek" unicode="&#x105;" horiz-adv-x="558" 
d="M369 348q-15 22 -42.5 36.5t-56.5 14.5q-23 0 -43.5 -10t-36 -29.5t-24.5 -49t-9 -68.5q0 -32 6 -60t19 -49t33 -33.5t48 -12.5q18 0 35 6.5t31 16t24 21.5t16 24v193zM490 110q0 -14 3.5 -20.5t14.5 -6.5h8q18 0 18 -17v-47q0 -8 -4 -12t-16 -9q-18 -6 -34.5 -16.5
t-29.5 -24t-21 -29.5t-8 -35q0 -20 12.5 -31.5t36.5 -11.5q12 0 23.5 2t25.5 6q8 2 11.5 0t5.5 -9l8 -27q2 -5 0.5 -10t-12.5 -10q-15 -7 -38.5 -11.5t-44.5 -4.5q-51 0 -81.5 25.5t-30.5 67.5q0 37 26.5 66.5t70.5 52.5v2q-20 3 -32.5 18.5t-17.5 40.5h-2q-9 -14 -25.5 -27
t-36 -22.5t-41 -15.5t-42.5 -6q-53 0 -91.5 20t-64 54t-37.5 78.5t-12 93.5q0 65 18 114.5t48 82.5t69 50t81 17q40 0 74.5 -16t53.5 -42l2 27q2 18 21 18h70q21 0 21 -22v-353z" />
    <glyph glyph-name="ae" unicode="&#xe6;" horiz-adv-x="781" 
d="M550 -12q-115 0 -180 65q-35 -29 -80 -47t-99 -18q-35 0 -65 9.5t-52 28.5t-35 46t-13 62q0 48 23.5 81.5t63 54t91.5 29t108 7.5v24q0 35 -19.5 56t-69.5 21q-57 0 -127 -35q-16 -7 -22 9l-17 46q-6 17 14 28q36 20 80.5 31.5t88.5 11.5q47 0 87 -15.5t60 -50.5h2
q25 30 66.5 48t92.5 18q52 0 90 -19.5t63 -53t37 -77.5t12 -93q0 -25 -6.5 -32t-22.5 -7h-294q6 -58 44.5 -94.5t98.5 -36.5q32 0 63 6.5t60 17.5q12 5 17.5 2t7.5 -11l14 -51q3 -10 0.5 -17t-14.5 -12q-37 -17 -83 -24.5t-85 -7.5zM330 125q-8 18 -13 42.5t-5 46.5v11
q-75 0 -119 -20t-44 -62q0 -29 20 -45t52 -16q31 0 61 13t48 30zM634 294q0 22 -5 42t-16.5 35.5t-29 24.5t-42.5 9q-24 0 -43.5 -9t-34 -24.5t-23 -35.5t-11.5 -42h205z" />
    <glyph glyph-name="aeacute" unicode="&#x1fd;" horiz-adv-x="781" 
d="M550 -12q-115 0 -180 65q-35 -29 -80 -47t-99 -18q-35 0 -65 9.5t-52 28.5t-35 46t-13 62q0 48 23.5 81.5t63 54t91.5 29t108 7.5v24q0 35 -19.5 56t-69.5 21q-57 0 -127 -35q-16 -7 -22 9l-17 46q-6 17 14 28q36 20 80.5 31.5t88.5 11.5q47 0 87 -15.5t60 -50.5h2
q25 30 66.5 48t92.5 18q52 0 90 -19.5t63 -53t37 -77.5t12 -93q0 -25 -6.5 -32t-22.5 -7h-294q6 -58 44.5 -94.5t98.5 -36.5q32 0 63 6.5t60 17.5q12 5 17.5 2t7.5 -11l14 -51q3 -10 0.5 -17t-14.5 -12q-37 -17 -83 -24.5t-85 -7.5zM330 125q-8 18 -13 42.5t-5 46.5v11
q-75 0 -119 -20t-44 -62q0 -29 20 -45t52 -16q31 0 61 13t48 30zM634 294q0 22 -5 42t-16.5 35.5t-29 24.5t-42.5 9q-24 0 -43.5 -9t-34 -24.5t-23 -35.5t-11.5 -42h205zM476 712q12 9 19.5 8t15.5 -12l30 -45q12 -18 -6 -28l-152 -84q-11 -6 -17.5 -5t-14.5 12l-17 25
q-8 11 -7 17.5t12 14.5z" />
    <glyph glyph-name="cacute" unicode="&#x107;" horiz-adv-x="447" 
d="M285 82q32 0 55.5 5.5t49.5 16.5q18 6 22 -8l14 -49q3 -11 1 -17.5t-13 -11.5q-36 -17 -70.5 -23.5t-74.5 -6.5q-116 0 -177.5 67t-61.5 183q0 58 17 106t49 82t78 53t104 19q34 0 68 -7t66 -21q10 -5 11 -10.5t-1 -15.5l-13 -54q-5 -17 -23 -9q-22 10 -46 16t-50 6
q-65 0 -100 -42.5t-35 -116.5q0 -72 32.5 -117t97.5 -45zM317 712q12 9 19.5 8t15.5 -12l30 -45q12 -18 -6 -28l-152 -84q-11 -6 -17.5 -5t-14.5 12l-17 25q-8 11 -7 17.5t12 14.5z" />
    <glyph glyph-name="ccedilla" unicode="&#xe7;" horiz-adv-x="447" 
d="M384 -129q0 -38 -31.5 -62.5t-83.5 -24.5q-39 0 -73 14q-16 6 -13 19l7 32q2 5 5.5 7.5t15.5 -1.5t26.5 -6.5t23.5 -2.5q17 0 29 6.5t12 19.5q0 12 -8.5 19t-40.5 7h-14q-26 0 -31.5 7t-3.5 24l7 64q-88 16 -134.5 80t-46.5 165q0 58 17 106t49 82t78 53t104 19
q34 0 68 -7t66 -21q10 -5 11 -10.5t-1 -15.5l-13 -54q-5 -17 -23 -9q-22 10 -46 16t-50 6q-65 0 -100 -42.5t-35 -116.5q0 -72 32.5 -117t97.5 -45q32 0 55.5 5.5t49.5 16.5q18 6 22 -8l14 -49q3 -11 1 -17.5t-13 -11.5q-35 -16 -68 -22.5t-71 -7.5l-2 -32h8q49 0 76 -21.5
t27 -63.5z" />
    <glyph glyph-name="ccircumflex" unicode="&#x109;" horiz-adv-x="447" 
d="M285 82q32 0 55.5 5.5t49.5 16.5q18 6 22 -8l14 -49q3 -11 1 -17.5t-13 -11.5q-36 -17 -70.5 -23.5t-74.5 -6.5q-116 0 -177.5 67t-61.5 183q0 58 17 106t49 82t78 53t104 19q34 0 68 -7t66 -21q10 -5 11 -10.5t-1 -15.5l-13 -54q-5 -17 -23 -9q-22 10 -46 16t-50 6
q-65 0 -100 -42.5t-35 -116.5q0 -72 32.5 -117t97.5 -45zM270 705q11 0 16.5 -2.5t12.5 -8.5l100 -91q14 -14 2 -26l-17 -18q-8 -8 -14.5 -8t-20.5 9l-87 57l-87 -57q-14 -9 -20.5 -9t-14.5 8l-17 18q-12 12 2 26l100 91q7 6 12.5 8.5t16.5 2.5h16z" />
    <glyph glyph-name="ccaron" unicode="&#x10d;" horiz-adv-x="447" 
d="M285 82q32 0 55.5 5.5t49.5 16.5q18 6 22 -8l14 -49q3 -11 1 -17.5t-13 -11.5q-36 -17 -70.5 -23.5t-74.5 -6.5q-116 0 -177.5 67t-61.5 183q0 58 17 106t49 82t78 53t104 19q34 0 68 -7t66 -21q10 -5 11 -10.5t-1 -15.5l-13 -54q-5 -17 -23 -9q-22 10 -46 16t-50 6
q-65 0 -100 -42.5t-35 -116.5q0 -72 32.5 -117t97.5 -45zM257 551q-11 0 -16.5 2.5t-12.5 8.5l-100 91q-14 14 -2 26l17 18q8 8 14.5 8t20.5 -9l87 -57l87 57q14 9 20.5 9t14.5 -8l17 -18q12 -12 -2 -26l-100 -91q-7 -6 -12.5 -8.5t-16.5 -2.5h-16z" />
    <glyph glyph-name="cdotaccent" unicode="&#x10b;" horiz-adv-x="447" 
d="M285 82q32 0 55.5 5.5t49.5 16.5q18 6 22 -8l14 -49q3 -11 1 -17.5t-13 -11.5q-36 -17 -70.5 -23.5t-74.5 -6.5q-116 0 -177.5 67t-61.5 183q0 58 17 106t49 82t78 53t104 19q34 0 68 -7t66 -21q10 -5 11 -10.5t-1 -15.5l-13 -54q-5 -17 -23 -9q-22 10 -46 16t-50 6
q-65 0 -100 -42.5t-35 -116.5q0 -72 32.5 -117t97.5 -45zM326 630q0 -29 -20 -45t-43 -16t-44 15.5t-21 44.5t20.5 45t44.5 16t43.5 -15.5t19.5 -44.5z" />
    <glyph glyph-name="dcaron" unicode="&#x10f;" horiz-adv-x="573" 
d="M373 352q-15 20 -41 34.5t-55 14.5q-30 0 -52.5 -13t-36.5 -35t-21 -50t-7 -59t6 -59.5t19 -50.5t34.5 -35t51.5 -13q28 0 57.5 15.5t44.5 34.5v216zM494 25q0 -13 -6.5 -19t-15.5 -6h-65q-22 0 -24 20l-2 27q-21 -24 -59 -41.5t-77 -17.5q-54 0 -94 20t-66 54
t-38.5 79.5t-12.5 95.5q0 52 14.5 99.5t42 83.5t68.5 57t94 21q34 0 66.5 -12.5t53.5 -34.5v226q0 12 4 18.5t16 8.5l81 11q8 1 14 -2.5t6 -15.5v-672zM661 647q0 -45 -23.5 -83t-58.5 -63q-9 -6 -15 -6t-12 8l-8 9q-7 9 2 18q13 13 23.5 28.5t10.5 30.5q0 9 -5.5 17
t-11.5 16.5t-11.5 18t-5.5 20.5q0 23 16.5 38.5t39.5 15.5q26 0 42.5 -21.5t16.5 -46.5z" />
    <glyph glyph-name="dcroat" unicode="&#x111;" horiz-adv-x="557" 
d="M494 558v-533q0 -13 -6.5 -19t-15.5 -6h-65q-22 0 -24 20l-2 27q-21 -24 -59 -41.5t-77 -17.5q-54 0 -94 20t-66 54t-38.5 79.5t-12.5 95.5q0 52 14.5 99.5t42 83.5t68.5 57t94 21q34 0 66.5 -12.5t53.5 -34.5v107h-97q-12 0 -16.5 4.5t-4.5 17.5v29q0 13 4.5 17.5
t16.5 4.5h97v46q0 12 4 18.5t16 8.5l81 11q8 1 14 -2.5t6 -15.5v-66h34q12 0 16.5 -4.5t4.5 -17.5v-29q0 -13 -4.5 -17.5t-16.5 -4.5h-34zM373 352q-15 20 -41 34.5t-55 14.5q-30 0 -52.5 -13t-36.5 -35t-21 -50t-7 -59t6 -59.5t19 -50.5t34.5 -35t51.5 -13q28 0 57.5 15.5
t44.5 34.5v216z" />
    <glyph glyph-name="eth" unicode="&#xf0;" horiz-adv-x="553" 
d="M385 728q8 -11 7 -16.5t-13 -14.5l-33 -24q46 -44 78 -92.5t51.5 -100t28.5 -103.5t9 -102q0 -60 -15 -112.5t-45 -91t-75 -61t-105 -22.5t-104.5 19.5t-74.5 54t-45 81t-15 101.5q0 54 16.5 100.5t47.5 80.5t75 53.5t99 19.5t88 -24q-15 36 -38 73t-52 70l-72 -52
q-11 -8 -17 -7t-12 10l-19 28q-5 8 -5 13.5t11 13.5l62 45q-10 9 -20 16.5t-20 14.5q-11 7 -11 12t6 12l27 31q7 8 14 8t20 -7q28 -17 54 -36l49 36q11 8 17 7t12 -9zM391 243q0 31 -5.5 60t-18.5 51.5t-35 36t-55 13.5t-56 -13.5t-36.5 -35.5t-19.5 -50.5t-6 -58.5
q0 -31 5.5 -60t18.5 -51.5t35 -36.5t55 -14t55.5 13.5t36.5 35.5t20 50.5t6 59.5z" />
    <glyph glyph-name="egrave" unicode="&#xe8;" horiz-adv-x="515" 
d="M304 85q32 0 63 6.5t60 17.5q12 5 17.5 2t7.5 -11l14 -51q3 -10 0.5 -17t-14.5 -12q-37 -17 -83 -24.5t-85 -7.5q-59 0 -105.5 18t-78.5 51.5t-49 80.5t-17 106q0 56 18 103t50.5 80.5t78 52t101.5 18.5q46 0 83 -16t63 -44q35 -36 47 -82t12 -97v-15q0 -18 -7 -23.5
t-26 -5.5h-293q6 -58 44.5 -94t98.5 -36zM368 294v11q-1 19 -7 37.5t-17.5 32t-28.5 22t-40 8.5q-24 0 -43.5 -9t-34 -24.5t-23 -35.5t-11.5 -42h205zM361 615q11 -8 12 -14.5t-7 -17.5l-17 -25q-8 -11 -14.5 -12t-17.5 5l-152 84q-18 10 -6 28l30 45q8 11 15.5 12t19.5 -8z
" />
    <glyph glyph-name="eacute" unicode="&#xe9;" horiz-adv-x="515" 
d="M304 85q32 0 63 6.5t60 17.5q12 5 17.5 2t7.5 -11l14 -51q3 -10 0.5 -17t-14.5 -12q-37 -17 -83 -24.5t-85 -7.5q-59 0 -105.5 18t-78.5 51.5t-49 80.5t-17 106q0 56 18 103t50.5 80.5t78 52t101.5 18.5q46 0 83 -16t63 -44q35 -36 47 -82t12 -97v-15q0 -18 -7 -23.5
t-26 -5.5h-293q6 -58 44.5 -94t98.5 -36zM368 294v11q-1 19 -7 37.5t-17.5 32t-28.5 22t-40 8.5q-24 0 -43.5 -9t-34 -24.5t-23 -35.5t-11.5 -42h205zM322 712q12 9 19.5 8t15.5 -12l30 -45q12 -18 -6 -28l-152 -84q-11 -6 -17.5 -5t-14.5 12l-17 25q-8 11 -7 17.5t12 14.5z
" />
    <glyph glyph-name="ecircumflex" unicode="&#xea;" horiz-adv-x="515" 
d="M304 85q32 0 63 6.5t60 17.5q12 5 17.5 2t7.5 -11l14 -51q3 -10 0.5 -17t-14.5 -12q-37 -17 -83 -24.5t-85 -7.5q-59 0 -105.5 18t-78.5 51.5t-49 80.5t-17 106q0 56 18 103t50.5 80.5t78 52t101.5 18.5q46 0 83 -16t63 -44q35 -36 47 -82t12 -97v-15q0 -18 -7 -23.5
t-26 -5.5h-293q6 -58 44.5 -94t98.5 -36zM368 294v11q-1 19 -7 37.5t-17.5 32t-28.5 22t-40 8.5q-24 0 -43.5 -9t-34 -24.5t-23 -35.5t-11.5 -42h205zM281 705q11 0 16.5 -2.5t12.5 -8.5l100 -91q14 -14 2 -26l-17 -18q-8 -8 -14.5 -8t-20.5 9l-87 57l-87 -57
q-14 -9 -20.5 -9t-14.5 8l-17 18q-12 12 2 26l100 91q7 6 12.5 8.5t16.5 2.5h16z" />
    <glyph glyph-name="ecaron" unicode="&#x11b;" horiz-adv-x="515" 
d="M304 85q32 0 63 6.5t60 17.5q12 5 17.5 2t7.5 -11l14 -51q3 -10 0.5 -17t-14.5 -12q-37 -17 -83 -24.5t-85 -7.5q-59 0 -105.5 18t-78.5 51.5t-49 80.5t-17 106q0 56 18 103t50.5 80.5t78 52t101.5 18.5q46 0 83 -16t63 -44q35 -36 47 -82t12 -97v-15q0 -18 -7 -23.5
t-26 -5.5h-293q6 -58 44.5 -94t98.5 -36zM368 294v11q-1 19 -7 37.5t-17.5 32t-28.5 22t-40 8.5q-24 0 -43.5 -9t-34 -24.5t-23 -35.5t-11.5 -42h205zM267 551q-11 0 -16.5 2.5t-12.5 8.5l-100 91q-14 14 -2 26l17 18q8 8 14.5 8t20.5 -9l87 -57l87 57q14 9 20.5 9t14.5 -8
l17 -18q12 -12 -2 -26l-100 -91q-7 -6 -12.5 -8.5t-16.5 -2.5h-16z" />
    <glyph glyph-name="edieresis" unicode="&#xeb;" horiz-adv-x="515" 
d="M304 85q32 0 63 6.5t60 17.5q12 5 17.5 2t7.5 -11l14 -51q3 -10 0.5 -17t-14.5 -12q-37 -17 -83 -24.5t-85 -7.5q-59 0 -105.5 18t-78.5 51.5t-49 80.5t-17 106q0 56 18 103t50.5 80.5t78 52t101.5 18.5q46 0 83 -16t63 -44q35 -36 47 -82t12 -97v-15q0 -18 -7 -23.5
t-26 -5.5h-293q6 -58 44.5 -94t98.5 -36zM368 294v11q-1 19 -7 37.5t-17.5 32t-28.5 22t-40 8.5q-24 0 -43.5 -9t-34 -24.5t-23 -35.5t-11.5 -42h205zM247 633q0 -28 -20 -43t-41 -15q-22 0 -42 14.5t-20 42.5q0 29 19 44t43 15q23 0 42 -15t19 -43zM430 633q0 -28 -20 -43
t-41 -15q-22 0 -42 14.5t-20 42.5q0 29 19 44t43 15q23 0 42 -15t19 -43z" />
    <glyph glyph-name="emacron" unicode="&#x113;" horiz-adv-x="515" 
d="M304 85q32 0 63 6.5t60 17.5q12 5 17.5 2t7.5 -11l14 -51q3 -10 0.5 -17t-14.5 -12q-37 -17 -83 -24.5t-85 -7.5q-59 0 -105.5 18t-78.5 51.5t-49 80.5t-17 106q0 56 18 103t50.5 80.5t78 52t101.5 18.5q46 0 83 -16t63 -44q35 -36 47 -82t12 -97v-15q0 -18 -7 -23.5
t-26 -5.5h-293q6 -58 44.5 -94t98.5 -36zM368 294v11q-1 19 -7 37.5t-17.5 32t-28.5 22t-40 8.5q-24 0 -43.5 -9t-34 -24.5t-23 -35.5t-11.5 -42h205zM399 667q11 0 15.5 -4t4.5 -15v-38q0 -11 -4.5 -15t-15.5 -4h-241q-11 0 -15.5 4t-4.5 15v38q0 11 4.5 15t15.5 4h241z
" />
    <glyph glyph-name="ebreve" unicode="&#x115;" horiz-adv-x="515" 
d="M304 85q32 0 63 6.5t60 17.5q12 5 17.5 2t7.5 -11l14 -51q3 -10 0.5 -17t-14.5 -12q-37 -17 -83 -24.5t-85 -7.5q-59 0 -105.5 18t-78.5 51.5t-49 80.5t-17 106q0 56 18 103t50.5 80.5t78 52t101.5 18.5q46 0 83 -16t63 -44q35 -36 47 -82t12 -97v-15q0 -18 -7 -23.5
t-26 -5.5h-293q6 -58 44.5 -94t98.5 -36zM368 294v11q-1 19 -7 37.5t-17.5 32t-28.5 22t-40 8.5q-24 0 -43.5 -9t-34 -24.5t-23 -35.5t-11.5 -42h205zM278 562q-51 0 -89 27.5t-46 75.5q-4 24 19 24h31q15 0 19 -4t9 -14q16 -34 57 -34t57 34q5 10 9 14t19 4h31q23 0 19 -24
q-8 -48 -45 -75.5t-90 -27.5z" />
    <glyph glyph-name="edotaccent" unicode="&#x117;" horiz-adv-x="515" 
d="M304 85q32 0 63 6.5t60 17.5q12 5 17.5 2t7.5 -11l14 -51q3 -10 0.5 -17t-14.5 -12q-37 -17 -83 -24.5t-85 -7.5q-59 0 -105.5 18t-78.5 51.5t-49 80.5t-17 106q0 56 18 103t50.5 80.5t78 52t101.5 18.5q46 0 83 -16t63 -44q35 -36 47 -82t12 -97v-15q0 -18 -7 -23.5
t-26 -5.5h-293q6 -58 44.5 -94t98.5 -36zM368 294v11q-1 19 -7 37.5t-17.5 32t-28.5 22t-40 8.5q-24 0 -43.5 -9t-34 -24.5t-23 -35.5t-11.5 -42h205zM338 630q0 -29 -20 -45t-43 -16t-44 15.5t-21 44.5t20.5 45t44.5 16t43.5 -15.5t19.5 -44.5z" />
    <glyph glyph-name="eogonek" unicode="&#x119;" horiz-adv-x="515" 
d="M464 -178q2 -5 0.5 -10t-12.5 -10q-15 -7 -38.5 -11.5t-44.5 -4.5q-51 0 -81.5 25.5t-30.5 67.5q0 35 20 63t53 49q-24 -3 -46 -3q-59 0 -105.5 18t-78.5 51.5t-49 80.5t-17 106q0 56 18 103t50.5 80.5t78 52t101.5 18.5q46 0 83 -16t63 -44q35 -36 47 -82t12 -97v-15
q0 -18 -7 -23.5t-26 -5.5h-293q6 -58 44.5 -94t98.5 -36q32 0 63 6.5t60 17.5q12 5 17.5 2t7.5 -11l14 -51q3 -11 0 -17t-14 -12q-52 -28 -81.5 -60t-29.5 -67q0 -19 12.5 -31t36.5 -12q12 0 23.5 2t25.5 6q8 2 11.5 0t5.5 -9zM368 294v11q-1 19 -7 37.5t-17.5 32t-28.5 22
t-40 8.5q-24 0 -43.5 -9t-34 -24.5t-23 -35.5t-11.5 -42h205z" />
    <glyph glyph-name="gcircumflex" unicode="&#x11d;" horiz-adv-x="558" 
d="M495 33q0 -122 -55.5 -187t-181.5 -65q-37 0 -74.5 7.5t-73.5 23.5q-12 5 -15 12t1 19l16 48q4 12 10 14.5t19 -2.5q27 -11 56.5 -18.5t55.5 -7.5q37 0 61 9.5t37 27t18 42t5 54.5v40q-11 -11 -26.5 -20.5t-33 -16t-36 -10.5t-34.5 -4q-93 0 -147 57q-32 32 -47.5 79
t-15.5 102q0 50 14.5 97t42.5 83.5t70 58.5t96 22q34 0 67.5 -13.5t55.5 -42.5l2 25q1 18 23 18h66q14 0 19 -5.5t5 -18.5v-428zM374 352q-15 20 -41.5 34.5t-55.5 14.5q-23 0 -41.5 -8t-32.5 -21q-23 -23 -33 -58t-10 -70q0 -33 8.5 -65.5t31.5 -54.5q14 -14 32.5 -20.5
t38.5 -6.5q29 0 58.5 14.5t44.5 33.5v207zM288 705q11 0 16.5 -2.5t12.5 -8.5l100 -91q14 -14 2 -26l-17 -18q-8 -8 -14.5 -8t-20.5 9l-87 57l-87 -57q-14 -9 -20.5 -9t-14.5 8l-17 18q-12 12 2 26l100 91q7 6 12.5 8.5t16.5 2.5h16z" />
    <glyph glyph-name="gbreve" unicode="&#x11f;" horiz-adv-x="558" 
d="M495 33q0 -122 -55.5 -187t-181.5 -65q-37 0 -74.5 7.5t-73.5 23.5q-12 5 -15 12t1 19l16 48q4 12 10 14.5t19 -2.5q27 -11 56.5 -18.5t55.5 -7.5q37 0 61 9.5t37 27t18 42t5 54.5v40q-11 -11 -26.5 -20.5t-33 -16t-36 -10.5t-34.5 -4q-93 0 -147 57q-32 32 -47.5 79
t-15.5 102q0 50 14.5 97t42.5 83.5t70 58.5t96 22q34 0 67.5 -13.5t55.5 -42.5l2 25q1 18 23 18h66q14 0 19 -5.5t5 -18.5v-428zM374 352q-15 20 -41.5 34.5t-55.5 14.5q-23 0 -41.5 -8t-32.5 -21q-23 -23 -33 -58t-10 -70q0 -33 8.5 -65.5t31.5 -54.5q14 -14 32.5 -20.5
t38.5 -6.5q29 0 58.5 14.5t44.5 33.5v207zM284 562q-51 0 -89 27.5t-46 75.5q-4 24 19 24h31q15 0 19 -4t9 -14q16 -34 57 -34t57 34q5 10 9 14t19 4h31q23 0 19 -24q-8 -48 -45 -75.5t-90 -27.5z" />
    <glyph glyph-name="gdotaccent" unicode="&#x121;" horiz-adv-x="558" 
d="M495 33q0 -122 -55.5 -187t-181.5 -65q-37 0 -74.5 7.5t-73.5 23.5q-12 5 -15 12t1 19l16 48q4 12 10 14.5t19 -2.5q27 -11 56.5 -18.5t55.5 -7.5q37 0 61 9.5t37 27t18 42t5 54.5v40q-11 -11 -26.5 -20.5t-33 -16t-36 -10.5t-34.5 -4q-93 0 -147 57q-32 32 -47.5 79
t-15.5 102q0 50 14.5 97t42.5 83.5t70 58.5t96 22q34 0 67.5 -13.5t55.5 -42.5l2 25q1 18 23 18h66q14 0 19 -5.5t5 -18.5v-428zM374 352q-15 20 -41.5 34.5t-55.5 14.5q-23 0 -41.5 -8t-32.5 -21q-23 -23 -33 -58t-10 -70q0 -33 8.5 -65.5t31.5 -54.5q14 -14 32.5 -20.5
t38.5 -6.5q29 0 58.5 14.5t44.5 33.5v207zM340 630q0 -29 -20 -45t-43 -16t-44 15.5t-21 44.5t20.5 45t44.5 16t43.5 -15.5t19.5 -44.5z" />
    <glyph glyph-name="gcommaaccent" unicode="&#x123;" horiz-adv-x="558" 
d="M495 33q0 -122 -55.5 -187t-181.5 -65q-37 0 -74.5 7.5t-73.5 23.5q-12 5 -15 12t1 19l16 48q4 12 10 14.5t19 -2.5q27 -11 56.5 -18.5t55.5 -7.5q37 0 61 9.5t37 27t18 42t5 54.5v40q-11 -11 -26.5 -20.5t-33 -16t-36 -10.5t-34.5 -4q-93 0 -147 57q-32 32 -47.5 79
t-15.5 102q0 50 14.5 97t42.5 83.5t70 58.5t96 22q34 0 67.5 -13.5t55.5 -42.5l2 25q1 18 23 18h66q14 0 19 -5.5t5 -18.5v-428zM374 352q-15 20 -41.5 34.5t-55.5 14.5q-23 0 -41.5 -8t-32.5 -21q-23 -23 -33 -58t-10 -70q0 -33 8.5 -65.5t31.5 -54.5q14 -14 32.5 -20.5
t38.5 -6.5q29 0 58.5 14.5t44.5 33.5v207zM208.987 608.963q0 44.9971 23.498 82.9951q23.499 37.9971 58.4971 62.9961q8.99902 5.99902 14.999 5.99902q5.99902 0 11.999 -7.99902l8 -8.99902q6.99902 -9 -2 -17.999q-12.999 -13 -23.499 -28.499
q-10.499 -15.499 -10.499 -30.498q0 -8.99902 5.5 -16.999q5.49902 -7.99902 11.499 -16.499q5.99902 -8.49902 11.499 -17.998q5.5 -9.5 5.5 -20.499q0 -22.999 -16.499 -38.498t-39.498 -15.499q-25.998 0 -42.4971 21.499t-16.499 46.4971z" />
    <glyph glyph-name="hcircumflex" unicode="&#x125;" horiz-adv-x="563" 
d="M379 298q0 41 -15 67.5t-60 26.5q-29 0 -63 -14t-57 -34v-319q0 -25 -25 -25h-70q-26 0 -26 25v652q0 12 4 18.5t16 8.5l81 11q8 1 14 -2.5t6 -15.5v-253q32 26 75 40t83 14q84 0 121 -49t37 -130v-294q0 -25 -25 -25h-70q-26 0 -26 25v273zM138 875q11 0 16.5 -2.5
t12.5 -8.5l100 -91q14 -14 2 -26l-17 -18q-8 -8 -14.5 -8t-20.5 9l-87 57l-87 -57q-14 -9 -20.5 -9t-14.5 8l-17 18q-12 12 2 26l100 91q7 6 12.5 8.5t16.5 2.5h16z" />
    <glyph glyph-name="hbar" unicode="&#x127;" horiz-adv-x="563" 
d="M500 20q0 -11 -3 -15.5t-13 -4.5h-88q-11 0 -14 4t-3 16v278q0 41 -15 67.5t-60 26.5q-29 0 -63 -14t-57 -34v-324q0 -11 -4 -15.5t-15 -4.5h-86q-16 0 -16 18v556h-32q-13 0 -16 4.5t-3 14.5v30q0 11 3 15t15 4h33v37q0 14 5.5 18.5t16.5 6.5q27 4 43 6l24 3t10.5 1h4.5
q17 0 17 -19v-53h161q10 0 14 -3.5t4 -15.5v-30q0 -11 -4 -15t-15 -4h-160v-130q32 26 75 40t83 14q84 0 121 -49t37 -130v-299z" />
    <glyph glyph-name="dotlessi" unicode="&#x131;" horiz-adv-x="261" 
d="M192 25q0 -25 -25 -25h-70q-26 0 -26 25v437q0 23 26 23h70q12 0 18.5 -4.5t6.5 -18.5v-437z" />
    <glyph glyph-name="igrave" unicode="&#xec;" horiz-adv-x="261" 
d="M192 25q0 -25 -25 -25h-70q-26 0 -26 25v437q0 23 26 23h70q12 0 18.5 -4.5t6.5 -18.5v-437zM225 615q11 -8 12 -14.5t-7 -17.5l-17 -25q-8 -11 -14.5 -12t-17.5 5l-152 84q-18 10 -6 28l30 45q8 11 15.5 12t19.5 -8z" />
    <glyph glyph-name="iacute" unicode="&#xed;" horiz-adv-x="261" 
d="M192 25q0 -25 -25 -25h-70q-26 0 -26 25v437q0 23 26 23h70q12 0 18.5 -4.5t6.5 -18.5v-437zM166 712q12 9 19.5 8t15.5 -12l30 -45q12 -18 -6 -28l-152 -84q-11 -6 -17.5 -5t-14.5 12l-17 25q-8 11 -7 17.5t12 14.5z" />
    <glyph glyph-name="icircumflex" unicode="&#xee;" horiz-adv-x="261" 
d="M192 25q0 -25 -25 -25h-70q-26 0 -26 25v437q0 23 26 23h70q12 0 18.5 -4.5t6.5 -18.5v-437zM138 705q11 0 16.5 -2.5t12.5 -8.5l100 -91q14 -14 2 -26l-17 -18q-8 -8 -14.5 -8t-20.5 9l-87 57l-87 -57q-14 -9 -20.5 -9t-14.5 8l-17 18q-12 12 2 26l100 91q7 6 12.5 8.5
t16.5 2.5h16z" />
    <glyph glyph-name="itilde" unicode="&#x129;" horiz-adv-x="261" 
d="M192 25q0 -25 -25 -25h-70q-26 0 -26 25v437q0 23 26 23h70q12 0 18.5 -4.5t6.5 -18.5v-437zM247 667q11 7 17 6t11 -10l16 -32q9 -17 -10 -29q-20 -14 -44 -23.5t-47 -9.5q-18 0 -34.5 5.5t-31 12t-28 12t-25.5 5.5q-26 0 -60 -21q-11 -7 -17 -6t-11 10l-16 32
q-9 17 10 29q20 14 44 23.5t47 9.5q18 0 34.5 -5.5t31 -12t28 -12t25.5 -5.5q14 0 28.5 5t31.5 16z" />
    <glyph glyph-name="idieresis" unicode="&#xef;" horiz-adv-x="261" 
d="M192 25q0 -25 -25 -25h-70q-26 0 -26 25v437q0 23 26 23h70q12 0 18.5 -4.5t6.5 -18.5v-437zM101 633q0 -28 -20 -43t-41 -15q-22 0 -42 14.5t-20 42.5q0 29 19 44t43 15q23 0 42 -15t19 -43zM284 633q0 -28 -20 -43t-41 -15q-22 0 -42 14.5t-20 42.5q0 29 19 44t43 15
q23 0 42 -15t19 -43z" />
    <glyph glyph-name="imacron" unicode="&#x12b;" horiz-adv-x="261" 
d="M192 25q0 -25 -25 -25h-70q-26 0 -26 25v437q0 23 26 23h70q12 0 18.5 -4.5t6.5 -18.5v-437zM251 667q11 0 15.5 -4t4.5 -15v-38q0 -11 -4.5 -15t-15.5 -4h-241q-11 0 -15.5 4t-4.5 15v38q0 11 4.5 15t15.5 4h241z" />
    <glyph glyph-name="ibreve" unicode="&#x12d;" horiz-adv-x="261" 
d="M192 25q0 -25 -25 -25h-70q-26 0 -26 25v437q0 23 26 23h70q12 0 18.5 -4.5t6.5 -18.5v-437zM133 562q-51 0 -89 27.5t-46 75.5q-4 24 19 24h31q15 0 19 -4t9 -14q16 -34 57 -34t57 34q5 10 9 14t19 4h31q23 0 19 -24q-8 -48 -45 -75.5t-90 -27.5z" />
    <glyph glyph-name="iogonek" unicode="&#x12f;" horiz-adv-x="261" 
d="M163 -4q-39 -18 -65.5 -44.5t-26.5 -58.5q0 -19 12.5 -31t36.5 -12q12 0 23.5 2t25.5 6q8 2 11.5 0t5.5 -9l8 -27q2 -5 0.5 -10t-12.5 -10q-15 -7 -38.5 -11.5t-44.5 -4.5q-51 0 -81.5 25.5t-30.5 67.5q0 37 24.5 70t59.5 52v461q0 23 26 23h70q12 0 18.5 -4.5t6.5 -18.5
v-434q0 -12 -4.5 -17.5t-24.5 -14.5zM198 612q0 -29 -21 -46t-46 -17t-46.5 16t-21.5 46t21 47t47 17t46.5 -16.5t20.5 -46.5z" />
    <glyph glyph-name="ij" unicode="&#x133;" horiz-adv-x="545" 
d="M198 612q0 -29 -21 -46t-46 -17t-46.5 16t-21.5 46t21 47t47 17t46.5 -16.5t20.5 -46.5zM192 25q0 -25 -25 -25h-70q-26 0 -26 25v437q0 23 26 23h70q12 0 18.5 -4.5t6.5 -18.5v-437zM482 611q0 -30 -21 -46.5t-46 -16.5t-46 16t-21 46q0 31 20.5 48t46.5 17t46.5 -17
t20.5 -47zM474 23q0 -69 -15.5 -118t-50.5 -79q-26 -22 -60.5 -33t-85.5 -11q-14 0 -32 1.5t-35 5.5q-12 3 -15 9.5t-1 15.5l10 56q3 14 16 13q9 -1 18.5 -2t18.5 -1q27 0 55 11.5t42 37.5q14 28 14 77v457q0 11 6.5 16.5t17.5 5.5h74q23 0 23 -22v-440z" />
    <glyph glyph-name="jcircumflex" unicode="&#x135;" horiz-adv-x="284" 
d="M213 23q0 -69 -15.5 -118t-50.5 -79q-26 -22 -60.5 -33t-85.5 -11q-14 0 -31.5 2t-35.5 5q-17 3 -17 16q0 6 1 9l10 56q3 13 14 13h2l27 -3q17 -2 33 1.5t28 9.5t25 15t21 23q14 28 14 77v64v393q0 11 6.5 16.5t17.5 5.5h74q23 0 23 -22v-440zM159 705q11 0 16.5 -2.5
t12.5 -8.5l100 -91q14 -14 2 -26l-17 -18q-8 -8 -14.5 -8t-20.5 9l-87 57l-87 -57q-14 -9 -20.5 -9t-14.5 8l-17 18q-12 12 2 26l100 91q7 6 12.5 8.5t16.5 2.5h16z" />
    <glyph glyph-name="kcommaaccent" unicode="&#x137;" horiz-adv-x="484" 
d="M63 677q0 12 4 18.5t16 8.5l81 11q8 1 14 -2.5t6 -15.5v-406h2l131 180q6 8 11.5 11t15.5 3h88q11 0 13.5 -6.5t-3.5 -14.5l-143 -180l164 -257q8 -12 5.5 -19.5t-14.5 -7.5h-91q-14 0 -23 4.5t-17 16.5l-128 210l-11 -10v-196q0 -25 -25 -25h-70q-26 0 -26 25v652z
M321 -108q0 -45 -23.5 -83t-58.5 -63q-9 -6 -15 -6t-12 8l-8 9q-7 9 2 18q13 13 23.5 28.5t10.5 30.5q0 9 -5.5 17t-11.5 16.5t-11.5 18t-5.5 20.5q0 23 16.5 38.5t39.5 15.5q26 0 42.5 -21.5t16.5 -46.5z" />
    <glyph glyph-name="kgreenlandic" unicode="&#x138;" horiz-adv-x="505" 
d="M482 29q8 -10 7 -19.5t-18 -9.5h-90q-23 0 -40 23l-118 168l-39 -46v-123q0 -12 -7 -17t-18 -5h-73q-12 0 -17.5 4.5t-5.5 17.5v441q0 12 7 17t18 5h73q12 0 17.5 -4.5t5.5 -17.5v-186h2l150 192q6 8 14 12t23 4h79q9 0 12.5 -7t-3.5 -15l-155 -190z" />
    <glyph glyph-name="lacute" unicode="&#x13a;" horiz-adv-x="247" 
d="M184 25q0 -25 -22 -25h-76q-23 0 -23 24v653q0 12 4 18.5t16 8.5l81 11q8 1 14 -2.5t6 -15.5v-672zM159 912q12 9 19.5 8t15.5 -12l30 -45q12 -18 -6 -28l-152 -84q-11 -6 -17.5 -5t-14.5 12l-17 25q-8 11 -7 17.5t12 14.5z" />
    <glyph glyph-name="lcaron" unicode="&#x13e;" horiz-adv-x="265" 
d="M184 25q0 -25 -22 -25h-76q-23 0 -23 24v653q0 12 4 18.5t16 8.5l81 11q8 1 14 -2.5t6 -15.5v-672zM353 645q0 -45 -23.5 -83t-58.5 -63q-9 -6 -15 -6t-12 8l-8 9q-7 9 2 18q13 13 23.5 28.5t10.5 30.5q0 9 -5.5 17t-11.5 16.5t-11.5 18t-5.5 20.5q0 23 16.5 38.5
t39.5 15.5q26 0 42.5 -21.5t16.5 -46.5z" />
    <glyph glyph-name="lcommaaccent" unicode="&#x13c;" horiz-adv-x="247" 
d="M184 25q0 -25 -22 -25h-76q-23 0 -23 24v653q0 12 4 18.5t16 8.5l81 11q8 1 14 -2.5t6 -15.5v-672zM183 -108q0 -45 -23.5 -83t-58.5 -63q-9 -6 -15 -6t-12 8l-8 9q-7 9 2 18q13 13 23.5 28.5t10.5 30.5q0 9 -5.5 17t-11.5 16.5t-11.5 18t-5.5 20.5q0 23 16.5 38.5
t39.5 15.5q26 0 42.5 -21.5t16.5 -46.5z" />
    <glyph glyph-name="lslash" unicode="&#x142;" horiz-adv-x="327" 
d="M228 430l70 58q10 8 16.5 6t6.5 -12v-42q0 -15 -3.5 -23t-16.5 -19l-73 -61v-312q0 -25 -22 -25h-76q-23 0 -23 24v212l-70 -58q-10 -8 -16.5 -6t-6.5 12v42q0 15 3.5 23t16.5 19l73 61v348q0 12 4 18.5t16 8.5l81 11q8 1 14 -2.5t6 -15.5v-267z" />
    <glyph glyph-name="longs" unicode="&#x17f;" horiz-adv-x="299" 
d="M214 28q0 -14 -5.5 -21t-19.5 -7h-72q-24 0 -24 26v376h-54q-14 0 -17.5 4.5t-3.5 20.5v38q0 20 19 20h56v27q0 25 2 44.5t5 36.5q12 63 53 99t116 36q25 0 54.5 -5.5t51.5 -15.5q11 -5 12.5 -13.5t-1.5 -22.5l-8 -42q-2 -11 -7.5 -13.5t-15.5 0.5q-16 5 -33 9t-35 4
q-45 0 -59 -27t-14 -71v-503z" />
    <glyph glyph-name="ldot" unicode="&#x140;" horiz-adv-x="348" 
d="M184 25q0 -25 -22 -25h-76q-23 0 -23 24v653q0 12 4 18.5t16 8.5l81 11q8 1 14 -2.5t6 -15.5v-672zM358 356q0 -29 -20 -45t-43 -16t-44 15.5t-21 44.5t20.5 45t44.5 16t43.5 -15.5t19.5 -44.5z" />
    <glyph glyph-name="nacute" unicode="&#x144;" horiz-adv-x="561" 
d="M498 26q0 -13 -5 -19.5t-19 -6.5h-72q-14 0 -19 6.5t-5 19.5v272q0 41 -15 67.5t-61 26.5q-29 0 -62 -14t-56 -34v-319q0 -25 -24 -25h-73q-24 0 -24 24v436q0 25 25 25h65q11 0 17 -4t7 -15l1 -26q35 28 76.5 43t85.5 15q84 0 121 -48.5t37 -130.5v-293zM345 712
q12 9 19.5 8t15.5 -12l30 -45q12 -18 -6 -28l-152 -84q-11 -6 -17.5 -5t-14.5 12l-17 25q-8 11 -7 17.5t12 14.5z" />
    <glyph glyph-name="ncaron" unicode="&#x148;" horiz-adv-x="561" 
d="M498 26q0 -13 -5 -19.5t-19 -6.5h-72q-14 0 -19 6.5t-5 19.5v272q0 41 -15 67.5t-61 26.5q-29 0 -62 -14t-56 -34v-319q0 -25 -24 -25h-73q-24 0 -24 24v436q0 25 25 25h65q11 0 17 -4t7 -15l1 -26q35 28 76.5 43t85.5 15q84 0 121 -48.5t37 -130.5v-293zM280 551
q-11 0 -16.5 2.5t-12.5 8.5l-100 91q-14 14 -2 26l17 18q8 8 14.5 8t20.5 -9l87 -57l87 57q14 9 20.5 9t14.5 -8l17 -18q12 -12 -2 -26l-100 -91q-7 -6 -12.5 -8.5t-16.5 -2.5h-16z" />
    <glyph glyph-name="ntilde" unicode="&#xf1;" horiz-adv-x="561" 
d="M498 26q0 -13 -5 -19.5t-19 -6.5h-72q-14 0 -19 6.5t-5 19.5v272q0 41 -15 67.5t-61 26.5q-29 0 -62 -14t-56 -34v-319q0 -25 -24 -25h-73q-24 0 -24 24v436q0 25 25 25h65q11 0 17 -4t7 -15l1 -26q35 28 76.5 43t85.5 15q84 0 121 -48.5t37 -130.5v-293zM407 667
q11 7 17 6t11 -10l16 -32q9 -17 -10 -29q-20 -14 -44 -23.5t-47 -9.5q-18 0 -34.5 5.5t-31 12t-28 12t-25.5 5.5q-26 0 -60 -21q-11 -7 -17 -6t-11 10l-16 32q-9 17 10 29q20 14 44 23.5t47 9.5q18 0 34.5 -5.5t31 -12t28 -12t25.5 -5.5q14 0 28.5 5t31.5 16z" />
    <glyph glyph-name="ncommaaccent" unicode="&#x146;" horiz-adv-x="561" 
d="M498 26q0 -13 -5 -19.5t-19 -6.5h-72q-14 0 -19 6.5t-5 19.5v272q0 41 -15 67.5t-61 26.5q-29 0 -62 -14t-56 -34v-319q0 -25 -24 -25h-73q-24 0 -24 24v436q0 25 25 25h65q11 0 17 -4t7 -15l1 -26q35 28 76.5 43t85.5 15q84 0 121 -48.5t37 -130.5v-293zM346 -108
q0 -45 -23.5 -83t-58.5 -63q-9 -6 -15 -6t-12 8l-8 9q-7 9 2 18q13 13 23.5 28.5t10.5 30.5q0 9 -5.5 17t-11.5 16.5t-11.5 18t-5.5 20.5q0 23 16.5 38.5t39.5 15.5q26 0 42.5 -21.5t16.5 -46.5z" />
    <glyph glyph-name="napostrophe" unicode="&#x149;" horiz-adv-x="561" 
d="M498 26q0 -13 -5 -19.5t-19 -6.5h-72q-14 0 -19 6.5t-5 19.5v272q0 41 -15 67.5t-61 26.5q-29 0 -62 -14t-56 -34v-319q0 -25 -24 -25h-73q-24 0 -24 24v436q0 25 25 25h65q11 0 17 -4t7 -15l1 -26q35 28 76.5 43t85.5 15q84 0 121 -48.5t37 -130.5v-293zM91 656
q0 -45 -23.5 -83t-58.5 -63q-9 -6 -15 -6t-12 8l-8 9q-7 9 2 18q13 13 23.5 28.5t10.5 30.5q0 9 -5.5 17t-11.5 16.5t-11.5 18t-5.5 20.5q0 23 16.5 38.5t39.5 15.5q26 0 42.5 -21.5t16.5 -46.5z" />
    <glyph glyph-name="eng" unicode="&#x14b;" horiz-adv-x="559" 
d="M184 24q0 -24 -23 -24h-75q-23 0 -23 22v439q0 24 23 24h67q22 0 23 -18l2 -29q35 29 75.5 44.5t87.5 15.5q83 0 119 -47.5t36 -129.5v-269q0 -66 -13 -113t-43 -76q-22 -22 -51 -32t-73 -10q-12 0 -26.5 1.5t-30.5 5.5q-11 2 -13.5 8t-0.5 17l10 56q2 8 4.5 10.5
t10.5 1.5t13 -1.5t10 -0.5q44 0 61 20q14 16 17.5 41.5t3.5 54.5v264q0 40 -14 65t-59 25q-29 0 -61.5 -12.5t-56.5 -35.5v-317z" />
    <glyph glyph-name="ograve" unicode="&#xf2;" horiz-adv-x="550" 
d="M516 243q0 -54 -16 -100.5t-47.5 -81t-77 -54t-103.5 -19.5q-61 0 -106 19.5t-74 54t-43.5 81t-14.5 101.5q0 54 16 100.5t47.5 80.5t76.5 53.5t104 19.5q61 0 106 -19t74 -53t43.5 -81t14.5 -102zM391 243q0 31 -5.5 59.5t-18.5 51t-35 36t-55 13.5t-56 -13.5t-36.5 -35
t-19.5 -50t-6 -58.5q0 -31 5.5 -60t18.5 -52t35 -37t55 -14t55.5 13.5t36.5 36t20 51t6 59.5zM373 615q11 -8 12 -14.5t-7 -17.5l-17 -25q-8 -11 -14.5 -12t-17.5 5l-152 84q-18 10 -6 28l30 45q8 11 15.5 12t19.5 -8z" />
    <glyph glyph-name="oacute" unicode="&#xf3;" horiz-adv-x="550" 
d="M516 243q0 -54 -16 -100.5t-47.5 -81t-77 -54t-103.5 -19.5q-61 0 -106 19.5t-74 54t-43.5 81t-14.5 101.5q0 54 16 100.5t47.5 80.5t76.5 53.5t104 19.5q61 0 106 -19t74 -53t43.5 -81t14.5 -102zM391 243q0 31 -5.5 59.5t-18.5 51t-35 36t-55 13.5t-56 -13.5t-36.5 -35
t-19.5 -50t-6 -58.5q0 -31 5.5 -60t18.5 -52t35 -37t55 -14t55.5 13.5t36.5 36t20 51t6 59.5zM310 712q12 9 19.5 8t15.5 -12l30 -45q12 -18 -6 -28l-152 -84q-11 -6 -17.5 -5t-14.5 12l-17 25q-8 11 -7 17.5t12 14.5z" />
    <glyph glyph-name="ocircumflex" unicode="&#xf4;" horiz-adv-x="550" 
d="M516 243q0 -54 -16 -100.5t-47.5 -81t-77 -54t-103.5 -19.5q-61 0 -106 19.5t-74 54t-43.5 81t-14.5 101.5q0 54 16 100.5t47.5 80.5t76.5 53.5t104 19.5q61 0 106 -19t74 -53t43.5 -81t14.5 -102zM391 243q0 31 -5.5 59.5t-18.5 51t-35 36t-55 13.5t-56 -13.5t-36.5 -35
t-19.5 -50t-6 -58.5q0 -31 5.5 -60t18.5 -52t35 -37t55 -14t55.5 13.5t36.5 36t20 51t6 59.5zM282 705q11 0 16.5 -2.5t12.5 -8.5l100 -91q14 -14 2 -26l-17 -18q-8 -8 -14.5 -8t-20.5 9l-87 57l-87 -57q-14 -9 -20.5 -9t-14.5 8l-17 18q-12 12 2 26l100 91q7 6 12.5 8.5
t16.5 2.5h16z" />
    <glyph glyph-name="otilde" unicode="&#xf5;" horiz-adv-x="550" 
d="M516 243q0 -54 -16 -100.5t-47.5 -81t-77 -54t-103.5 -19.5q-61 0 -106 19.5t-74 54t-43.5 81t-14.5 101.5q0 54 16 100.5t47.5 80.5t76.5 53.5t104 19.5q61 0 106 -19t74 -53t43.5 -81t14.5 -102zM391 243q0 31 -5.5 59.5t-18.5 51t-35 36t-55 13.5t-56 -13.5t-36.5 -35
t-19.5 -50t-6 -58.5q0 -31 5.5 -60t18.5 -52t35 -37t55 -14t55.5 13.5t36.5 36t20 51t6 59.5zM394 667q11 7 17 6t11 -10l16 -32q9 -17 -10 -29q-20 -14 -44 -23.5t-47 -9.5q-18 0 -34.5 5.5t-31 12t-28 12t-25.5 5.5q-26 0 -60 -21q-11 -7 -17 -6t-11 10l-16 32
q-9 17 10 29q20 14 44 23.5t47 9.5q18 0 34.5 -5.5t31 -12t28 -12t25.5 -5.5q14 0 28.5 5t31.5 16z" />
    <glyph glyph-name="odieresis" unicode="&#xf6;" horiz-adv-x="550" 
d="M516 243q0 -54 -16 -100.5t-47.5 -81t-77 -54t-103.5 -19.5q-61 0 -106 19.5t-74 54t-43.5 81t-14.5 101.5q0 54 16 100.5t47.5 80.5t76.5 53.5t104 19.5q61 0 106 -19t74 -53t43.5 -81t14.5 -102zM391 243q0 31 -5.5 59.5t-18.5 51t-35 36t-55 13.5t-56 -13.5t-36.5 -35
t-19.5 -50t-6 -58.5q0 -31 5.5 -60t18.5 -52t35 -37t55 -14t55.5 13.5t36.5 36t20 51t6 59.5zM245 633q0 -28 -20 -43t-41 -15q-22 0 -42 14.5t-20 42.5q0 29 19 44t43 15q23 0 42 -15t19 -43zM428 633q0 -28 -20 -43t-41 -15q-22 0 -42 14.5t-20 42.5q0 29 19 44t43 15
q23 0 42 -15t19 -43z" />
    <glyph glyph-name="omacron" unicode="&#x14d;" horiz-adv-x="550" 
d="M516 243q0 -54 -16 -100.5t-47.5 -81t-77 -54t-103.5 -19.5q-61 0 -106 19.5t-74 54t-43.5 81t-14.5 101.5q0 54 16 100.5t47.5 80.5t76.5 53.5t104 19.5q61 0 106 -19t74 -53t43.5 -81t14.5 -102zM391 243q0 31 -5.5 59.5t-18.5 51t-35 36t-55 13.5t-56 -13.5t-36.5 -35
t-19.5 -50t-6 -58.5q0 -31 5.5 -60t18.5 -52t35 -37t55 -14t55.5 13.5t36.5 36t20 51t6 59.5zM398 667q11 0 15.5 -4t4.5 -15v-38q0 -11 -4.5 -15t-15.5 -4h-241q-11 0 -15.5 4t-4.5 15v38q0 11 4.5 15t15.5 4h241z" />
    <glyph glyph-name="obreve" unicode="&#x14f;" horiz-adv-x="550" 
d="M516 243q0 -54 -16 -100.5t-47.5 -81t-77 -54t-103.5 -19.5q-61 0 -106 19.5t-74 54t-43.5 81t-14.5 101.5q0 54 16 100.5t47.5 80.5t76.5 53.5t104 19.5q61 0 106 -19t74 -53t43.5 -81t14.5 -102zM391 243q0 31 -5.5 59.5t-18.5 51t-35 36t-55 13.5t-56 -13.5t-36.5 -35
t-19.5 -50t-6 -58.5q0 -31 5.5 -60t18.5 -52t35 -37t55 -14t55.5 13.5t36.5 36t20 51t6 59.5zM277 562q-51 0 -89 27.5t-46 75.5q-4 24 19 24h31q15 0 19 -4t9 -14q16 -34 57 -34t57 34q5 10 9 14t19 4h31q23 0 19 -24q-8 -48 -45 -75.5t-90 -27.5z" />
    <glyph glyph-name="ohungarumlaut" unicode="&#x151;" horiz-adv-x="550" 
d="M516 243q0 -54 -16 -100.5t-47.5 -81t-77 -54t-103.5 -19.5q-61 0 -106 19.5t-74 54t-43.5 81t-14.5 101.5q0 54 16 100.5t47.5 80.5t76.5 53.5t104 19.5q61 0 106 -19t74 -53t43.5 -81t14.5 -102zM391 243q0 31 -5.5 59.5t-18.5 51t-35 36t-55 13.5t-56 -13.5t-36.5 -35
t-19.5 -50t-6 -58.5q0 -31 5.5 -60t18.5 -52t35 -37t55 -14t55.5 13.5t36.5 36t20 51t6 59.5zM276 692q8 -8 8.5 -14.5t-9.5 -13.5l-127 -100q-13 -11 -19.5 -10.5t-14.5 9.5l-14 17q-8 9 -7.5 14t9.5 15l109 111q11 11 19.5 13t16.5 -8zM456 692q8 -8 8.5 -14.5t-9.5 -13.5
l-127 -100q-13 -11 -19.5 -10.5t-14.5 9.5l-14 17q-8 9 -7.5 14t9.5 15l109 111q11 11 19.5 13t16.5 -8z" />
    <glyph glyph-name="oslash" unicode="&#xf8;" horiz-adv-x="550" 
d="M516 243q0 -54 -16 -100.5t-47.5 -81t-77 -54t-103.5 -19.5q-64 0 -109 21l-27 -43q-6 -11 -12 -11.5t-13 4.5l-20 13q-8 5 -9 10t3 11l29 46q-41 35 -60.5 87.5t-19.5 117.5q0 54 16 100.5t47.5 80.5t76.5 53.5t104 19.5q64 0 109 -21l23 37q8 12 14.5 15t16.5 -3
l16 -10q8 -5 8 -10.5t-5 -14.5l-26 -42q42 -34 62 -87t20 -119zM391 243q0 29 -4.5 55.5t-15.5 48.5l-154 -250q23 -14 56 -14t55.5 13.5t36.5 36t20 51t6 59.5zM332 389q-23 14 -55 14q-33 0 -56 -13.5t-36.5 -35t-19.5 -50t-6 -58.5q0 -28 4 -54.5t15 -49.5z" />
    <glyph glyph-name="oslashacute" unicode="&#x1ff;" horiz-adv-x="550" 
d="M516 243q0 -54 -16 -100.5t-47.5 -81t-77 -54t-103.5 -19.5q-64 0 -109 21l-27 -43q-6 -11 -12 -11.5t-13 4.5l-20 13q-8 5 -9 10t3 11l29 46q-41 35 -60.5 87.5t-19.5 117.5q0 54 16 100.5t47.5 80.5t76.5 53.5t104 19.5q64 0 109 -21l23 37q8 12 14.5 15t16.5 -3
l16 -10q8 -5 8 -10.5t-5 -14.5l-26 -42q42 -34 62 -87t20 -119zM391 243q0 29 -4.5 55.5t-15.5 48.5l-154 -250q23 -14 56 -14t55.5 13.5t36.5 36t20 51t6 59.5zM332 389q-23 14 -55 14q-33 0 -56 -13.5t-36.5 -35t-19.5 -50t-6 -58.5q0 -28 4 -54.5t15 -49.5zM326 712
q12 9 19.5 8t15.5 -12l30 -45q12 -18 -6 -28l-152 -84q-11 -6 -17.5 -5t-14.5 12l-17 25q-8 11 -7 17.5t12 14.5z" />
    <glyph glyph-name="oe" unicode="&#x153;" horiz-adv-x="858" 
d="M830 244q0 -18 -7 -23.5t-26 -5.5h-292q6 -58 44 -94t98 -36q32 0 63.5 6.5t59.5 17.5l6 2t6 1q11 0 14 -12l14 -55q1 -3 1 -7q0 -8 -4.5 -11.5t-11.5 -6.5q-37 -17 -83 -24.5t-85 -7.5q-63 0 -108 22t-74 60q-28 -37 -70.5 -59.5t-102.5 -22.5q-61 0 -106 19.5t-74 54
t-43.5 81t-14.5 101.5q0 54 16 100.5t47.5 80.5t76.5 53.5t104 19.5q63 0 104 -22t67 -58q29 37 73 58.5t103 21.5q46 0 83.5 -16t63.5 -44q35 -36 46.5 -82t11.5 -97v-15zM711 294q0 21 -5.5 41t-16.5 35.5t-28.5 25t-42.5 9.5q-24 0 -43.5 -9t-33.5 -24.5t-22.5 -35.5
t-11.5 -42h204zM391 242q0 30 -5.5 59.5t-18.5 52t-35 36.5t-55 14t-56 -13.5t-36.5 -36t-19.5 -51t-6 -58.5t5.5 -59.5t18.5 -52.5t35 -37t55 -14t55.5 13.5t36.5 36t20 51t6 59.5z" />
    <glyph glyph-name="thorn" unicode="&#xfe;" horiz-adv-x="557" 
d="M63 676q0 12 4 18.5t16 8.5l81 11q8 1 14 -2.5t6 -15.5v-249q23 23 58 37t73 14q49 0 84.5 -17t60.5 -44q31 -34 47 -82.5t16 -104.5q0 -57 -16.5 -107.5t-48.5 -86.5q-28 -32 -66 -50t-87 -18q-35 0 -67 12t-54 35v-225q0 -15 -7 -20.5t-20 -5.5h-70q-24 0 -24 26v866z
M397 244q0 77 -28 116q-15 22 -36.5 31.5t-46.5 9.5q-28 0 -57.5 -15t-44.5 -34v-218q15 -20 42 -34.5t56 -14.5q26 0 46 10.5t33 26.5q36 45 36 122z" />
    <glyph glyph-name="racute" unicode="&#x155;" horiz-adv-x="345" 
d="M299 498q11 0 20 -1.5t13 -5.5q5 -5 4 -17l-11 -71q-3 -17 -20 -14q-5 1 -10.5 1.5t-14.5 0.5q-26 0 -51.5 -12.5t-44.5 -35.5v-318q0 -25 -24 -25h-73q-24 0 -24 25v435q0 15 7 20t18 5h64q25 0 25 -19l1 -32q23 29 51 46.5t70 17.5zM249 712q12 9 19.5 8t15.5 -12
l30 -45q12 -18 -6 -28l-152 -84q-11 -6 -17.5 -5t-14.5 12l-17 25q-8 11 -7 17.5t12 14.5z" />
    <glyph glyph-name="rcaron" unicode="&#x159;" horiz-adv-x="345" 
d="M299 498q11 0 20 -1.5t13 -5.5q5 -5 4 -17l-11 -71q-3 -17 -20 -14q-5 1 -10.5 1.5t-14.5 0.5q-26 0 -51.5 -12.5t-44.5 -35.5v-318q0 -25 -24 -25h-73q-24 0 -24 25v435q0 15 7 20t18 5h64q25 0 25 -19l1 -32q23 29 51 46.5t70 17.5zM187 551q-11 0 -16.5 2.5t-12.5 8.5
l-100 91q-14 14 -2 26l17 18q8 8 14.5 8t20.5 -9l87 -57l87 57q14 9 20.5 9t14.5 -8l17 -18q12 -12 -2 -26l-100 -91q-7 -6 -12.5 -8.5t-16.5 -2.5h-16z" />
    <glyph glyph-name="rcommaaccent" unicode="&#x157;" horiz-adv-x="345" 
d="M299 498q11 0 20 -1.5t13 -5.5q5 -5 4 -17l-11 -71q-3 -17 -20 -14q-5 1 -10.5 1.5t-14.5 0.5q-26 0 -51.5 -12.5t-44.5 -35.5v-318q0 -25 -24 -25h-73q-24 0 -24 25v435q0 15 7 20t18 5h64q25 0 25 -19l1 -32q23 29 51 46.5t70 17.5zM186 -108q0 -45 -23.5 -83
t-58.5 -63q-9 -6 -15 -6t-12 8l-8 9q-7 9 2 18q13 13 23.5 28.5t10.5 30.5q0 9 -5.5 17t-11.5 16.5t-11.5 18t-5.5 20.5q0 23 16.5 38.5t39.5 15.5q26 0 42.5 -21.5t16.5 -46.5z" />
    <glyph glyph-name="sacute" unicode="&#x15b;" horiz-adv-x="411" 
d="M386 143q0 -39 -16 -68.5t-42.5 -48.5t-61.5 -28.5t-73 -9.5q-39 0 -79.5 10t-74.5 25q-17 8 -11 23l18 55q6 18 24 10q73 -31 126 -31q33 0 53.5 14t20.5 39q0 21 -14.5 34t-45.5 25l-79 30q-43 16 -73 49t-30 84q0 37 16 64t41.5 44.5t58 26t65.5 8.5q36 0 72 -6.5
t73 -23.5q10 -5 11 -10t-1 -14l-17 -54q-3 -9 -9.5 -10.5t-14.5 1.5q-26 10 -55 17t-53 7q-32 0 -47.5 -14.5t-15.5 -31.5t10 -28.5t39 -22.5l90 -37q40 -17 67.5 -48t27.5 -80zM248 712q12 9 19.5 8t15.5 -12l30 -45q12 -18 -6 -28l-152 -84q-11 -6 -17.5 -5t-14.5 12
l-17 25q-8 11 -7 17.5t12 14.5z" />
    <glyph glyph-name="scircumflex" unicode="&#x15d;" horiz-adv-x="411" 
d="M386 143q0 -39 -16 -68.5t-42.5 -48.5t-61.5 -28.5t-73 -9.5q-39 0 -79.5 10t-74.5 25q-17 8 -11 23l18 55q6 18 24 10q73 -31 126 -31q33 0 53.5 14t20.5 39q0 21 -14.5 34t-45.5 25l-79 30q-43 16 -73 49t-30 84q0 37 16 64t41.5 44.5t58 26t65.5 8.5q36 0 72 -6.5
t73 -23.5q10 -5 11 -10t-1 -14l-17 -54q-3 -9 -9.5 -10.5t-14.5 1.5q-26 10 -55 17t-53 7q-32 0 -47.5 -14.5t-15.5 -31.5t10 -28.5t39 -22.5l90 -37q40 -17 67.5 -48t27.5 -80zM219 705q11 0 16.5 -2.5t12.5 -8.5l100 -91q14 -14 2 -26l-17 -18q-8 -8 -14.5 -8t-20.5 9
l-87 57l-87 -57q-14 -9 -20.5 -9t-14.5 8l-17 18q-12 12 2 26l100 91q7 6 12.5 8.5t16.5 2.5h16z" />
    <glyph glyph-name="scaron" unicode="&#x161;" horiz-adv-x="411" 
d="M386 143q0 -39 -16 -68.5t-42.5 -48.5t-61.5 -28.5t-73 -9.5q-39 0 -79.5 10t-74.5 25q-17 8 -11 23l18 55q6 18 24 10q73 -31 126 -31q33 0 53.5 14t20.5 39q0 21 -14.5 34t-45.5 25l-79 30q-43 16 -73 49t-30 84q0 37 16 64t41.5 44.5t58 26t65.5 8.5q36 0 72 -6.5
t73 -23.5q10 -5 11 -10t-1 -14l-17 -54q-3 -9 -9.5 -10.5t-14.5 1.5q-26 10 -55 17t-53 7q-32 0 -47.5 -14.5t-15.5 -31.5t10 -28.5t39 -22.5l90 -37q40 -17 67.5 -48t27.5 -80zM199 551q-11 0 -16.5 2.5t-12.5 8.5l-100 91q-14 14 -2 26l17 18q8 8 14.5 8t20.5 -9l87 -57
l87 57q14 9 20.5 9t14.5 -8l17 -18q12 -12 -2 -26l-100 -91q-7 -6 -12.5 -8.5t-16.5 -2.5h-16z" />
    <glyph glyph-name="scedilla" unicode="&#x15f;" horiz-adv-x="411" 
d="M326 -129q0 -38 -31.5 -62.5t-83.5 -24.5q-39 0 -73 14q-16 6 -13 19l7 32q2 5 5.5 7.5t15.5 -1.5t26.5 -6.5t23.5 -2.5q17 0 29 6.5t12 19.5q0 12 -8.5 19t-40.5 7h-14q-26 0 -31.5 7t-3.5 24l7 62q-30 4 -59.5 12.5t-54.5 19.5q-17 8 -11 23l18 55q6 18 24 10
q73 -31 126 -31q33 0 53.5 14t20.5 39q0 21 -14.5 34t-45.5 25l-79 30q-43 16 -73 49t-30 84q0 37 16 64t41.5 44.5t58 26t65.5 8.5q36 0 72 -6.5t73 -23.5q10 -5 11 -10t-1 -14l-17 -54q-3 -9 -9.5 -10.5t-14.5 1.5q-26 10 -55 17t-53 7q-32 0 -47.5 -14.5t-15.5 -31.5
t10 -28.5t39 -22.5l90 -37q40 -17 67.5 -48t27.5 -80q0 -36 -13.5 -63.5t-36.5 -46.5t-54 -30t-65 -14l-2 -33h8q49 0 76 -21.5t27 -63.5z" />
    <glyph glyph-name="scommaaccent" unicode="&#x219;" horiz-adv-x="411" 
d="M386 143q0 -39 -16 -68.5t-42.5 -48.5t-61.5 -28.5t-73 -9.5q-39 0 -79.5 10t-74.5 25q-17 8 -11 23l18 55q6 18 24 10q73 -31 126 -31q33 0 53.5 14t20.5 39q0 21 -14.5 34t-45.5 25l-79 30q-43 16 -73 49t-30 84q0 37 16 64t41.5 44.5t58 26t65.5 8.5q36 0 72 -6.5
t73 -23.5q10 -5 11 -10t-1 -14l-17 -54q-3 -9 -9.5 -10.5t-14.5 1.5q-26 10 -55 17t-53 7q-32 0 -47.5 -14.5t-15.5 -31.5t10 -28.5t39 -22.5l90 -37q40 -17 67.5 -48t27.5 -80zM268 -108q0 -45 -23.5 -83t-58.5 -63q-9 -6 -15 -6t-12 8l-8 9q-7 9 2 18q13 13 23.5 28.5
t10.5 30.5q0 9 -5.5 17t-11.5 16.5t-11.5 18t-5.5 20.5q0 23 16.5 38.5t39.5 15.5q26 0 42.5 -21.5t16.5 -46.5z" />
    <glyph glyph-name="germandbls" unicode="&#xdf;" horiz-adv-x="595" 
d="M186 -66q0 -14 -5 -20.5t-19 -6.5h-73q-24 0 -24 26v564q0 113 57 171q27 29 70 44.5t100 15.5q48 0 88.5 -12t69.5 -35t45 -57t16 -77q0 -26 -7 -51t-21.5 -46.5t-35 -37.5t-47.5 -23v-1q35 -4 65 -18.5t51.5 -37.5t34 -54t12.5 -69q0 -59 -21 -100.5t-55.5 -67.5
t-80.5 -38t-95 -12q-26 0 -48 3q-11 2 -14 6.5t-3 14.5v54q0 11 4 15t15 4q5 0 16 -0.5t24 -0.5q66 0 101 35t35 89q0 32 -11.5 55t-31.5 37.5t-46.5 21t-56.5 6.5h-28q-14 0 -17.5 4t-3.5 12v57q0 10 3 12.5t13 2.5h13q53 0 83.5 29t30.5 83q0 49 -25.5 75.5t-73.5 26.5
q-51 0 -78 -32q-12 -14 -19 -37t-7 -58v-572v0z" />
    <glyph glyph-name="tcaron" unicode="&#x165;" horiz-adv-x="380" 
d="M207 485h113q19 0 19 -17v-47q0 -19 -20 -19h-112v-229q0 -23 2.5 -39.5t10.5 -28.5q7 -10 18 -15.5t29 -5.5q19 0 34.5 3.5t29.5 8.5q8 2 14.5 1.5t8.5 -11.5l10 -50q4 -17 -14 -25q-23 -10 -52.5 -16.5t-59.5 -6.5q-38 0 -69.5 10t-50.5 32q-12 13 -18.5 27.5
t-9.5 32.5t-3.5 40t-0.5 49v223h-47q-14 0 -18 4.5t-4 20.5v38q0 20 18 20h51v105q0 12 4 18.5t16 8.5l81 11q8 1 14 -2.5t6 -15.5v-125zM366 684q0 -45 -23.5 -83t-58.5 -63q-9 -6 -15 -6t-12 8l-8 9q-7 9 2 18q13 13 23.5 28.5t10.5 30.5q0 9 -5.5 17t-11.5 16.5t-11.5 18
t-5.5 20.5q0 23 16.5 38.5t39.5 15.5q26 0 42.5 -21.5t16.5 -46.5z" />
    <glyph glyph-name="tcommaaccent" unicode="&#x163;" horiz-adv-x="380" 
d="M207 485h113q19 0 19 -17v-47q0 -19 -20 -19h-112v-229q0 -23 2.5 -39.5t10.5 -28.5q7 -10 18 -15.5t29 -5.5q19 0 34.5 3.5t29.5 8.5q8 2 14.5 1.5t8.5 -11.5l10 -50q4 -17 -14 -25q-23 -10 -52.5 -16.5t-59.5 -6.5q-38 0 -69.5 10t-50.5 32q-12 13 -18.5 27.5
t-9.5 32.5t-3.5 40t-0.5 49v223h-47q-14 0 -18 4.5t-4 20.5v38q0 20 18 20h51v105q0 12 4 18.5t16 8.5l81 11q8 1 14 -2.5t6 -15.5v-125zM293 -108q0 -45 -23.5 -83t-58.5 -63q-9 -6 -15 -6t-12 8l-8 9q-7 9 2 18q13 13 23.5 28.5t10.5 30.5q0 9 -5.5 17t-11.5 16.5
t-11.5 18t-5.5 20.5q0 23 16.5 38.5t39.5 15.5q26 0 42.5 -21.5t16.5 -46.5z" />
    <glyph glyph-name="uni021B" unicode="&#x21b;" horiz-adv-x="380" 
d="M207 485h113q19 0 19 -17v-47q0 -19 -20 -19h-112v-229q0 -23 2.5 -39.5t10.5 -28.5q7 -10 18 -15.5t29 -5.5q19 0 34.5 3.5t29.5 8.5q8 2 14.5 1.5t8.5 -11.5l10 -50q4 -17 -14 -25q-23 -10 -52.5 -16.5t-59.5 -6.5q-38 0 -69.5 10t-50.5 32q-12 13 -18.5 27.5
t-9.5 32.5t-3.5 40t-0.5 49v223h-47q-14 0 -18 4.5t-4 20.5v38q0 20 18 20h51v105q0 12 4 18.5t16 8.5l81 11q8 1 14 -2.5t6 -15.5v-125zM293 -108q0 -45 -23.5 -83t-58.5 -63q-9 -6 -15 -6t-12 8l-8 9q-7 9 2 18q13 13 23.5 28.5t10.5 30.5q0 9 -5.5 17t-11.5 16.5
t-11.5 18t-5.5 20.5q0 23 16.5 38.5t39.5 15.5q26 0 42.5 -21.5t16.5 -46.5z" />
    <glyph glyph-name="tbar" unicode="&#x167;" horiz-adv-x="380" 
d="M267 84q19 0 34.5 3.5t29.5 8.5q8 2 11 2q9 0 12 -12l10 -50q3 -18 -14 -25q-23 -10 -52.5 -16.5t-59.5 -6.5q-38 0 -69.5 10t-50.5 32q-12 13 -18.5 27.5t-9.5 32.5t-3.5 40t-0.5 49v40h-47q-13 0 -17 4t-4 15v30q0 12 4 15.5t16 3.5h48v115h-47q-14 0 -18 4.5t-4 20.5
v38q0 20 18 20h51v109q0 13 6.5 17.5t18.5 6.5l77 9q19 3 19 -18v-124h113q19 0 19 -17v-47q0 -19 -20 -19h-112v-115h101q12 0 16 -3.5t4 -15.5v-30q0 -11 -4 -15t-17 -4h-100v-46q0 -23 2.5 -39.5t10.5 -28.5q7 -10 18 -15.5t29 -5.5z" />
    <glyph glyph-name="ugrave" unicode="&#xf9;" horiz-adv-x="556" 
d="M494 28q0 -16 -5.5 -22t-20.5 -6h-64q-22 0 -24 20l-1 25q-71 -57 -159 -57q-84 0 -121 49t-37 130v295q0 23 26 23h70q12 0 18.5 -4.5t6.5 -18.5v-274q0 -42 14.5 -67.5t59.5 -25.5q29 0 61 14t55 34v319q0 23 25 23h71q12 0 18.5 -4.5t6.5 -18.5v-434zM372 615
q11 -8 12 -14.5t-7 -17.5l-17 -25q-8 -11 -14.5 -12t-17.5 5l-152 84q-18 10 -6 28l30 45q8 11 15.5 12t19.5 -8z" />
    <glyph glyph-name="uacute" unicode="&#xfa;" horiz-adv-x="556" 
d="M494 28q0 -16 -5.5 -22t-20.5 -6h-64q-22 0 -24 20l-1 25q-71 -57 -159 -57q-84 0 -121 49t-37 130v295q0 23 26 23h70q12 0 18.5 -4.5t6.5 -18.5v-274q0 -42 14.5 -67.5t59.5 -25.5q29 0 61 14t55 34v319q0 23 25 23h71q12 0 18.5 -4.5t6.5 -18.5v-434zM333 712
q12 9 19.5 8t15.5 -12l30 -45q12 -18 -6 -28l-152 -84q-11 -6 -17.5 -5t-14.5 12l-17 25q-8 11 -7 17.5t12 14.5z" />
    <glyph glyph-name="ucircumflex" unicode="&#xfb;" horiz-adv-x="556" 
d="M494 28q0 -16 -5.5 -22t-20.5 -6h-64q-22 0 -24 20l-1 25q-71 -57 -159 -57q-84 0 -121 49t-37 130v295q0 23 26 23h70q12 0 18.5 -4.5t6.5 -18.5v-274q0 -42 14.5 -67.5t59.5 -25.5q29 0 61 14t55 34v319q0 23 25 23h71q12 0 18.5 -4.5t6.5 -18.5v-434zM285 705
q11 0 16.5 -2.5t12.5 -8.5l100 -91q14 -14 2 -26l-17 -18q-8 -8 -14.5 -8t-20.5 9l-87 57l-87 -57q-14 -9 -20.5 -9t-14.5 8l-17 18q-12 12 2 26l100 91q7 6 12.5 8.5t16.5 2.5h16z" />
    <glyph glyph-name="utilde" unicode="&#x169;" horiz-adv-x="556" 
d="M494 28q0 -16 -5.5 -22t-20.5 -6h-64q-22 0 -24 20l-1 25q-71 -57 -159 -57q-84 0 -121 49t-37 130v295q0 23 26 23h70q12 0 18.5 -4.5t6.5 -18.5v-274q0 -42 14.5 -67.5t59.5 -25.5q29 0 61 14t55 34v319q0 23 25 23h71q12 0 18.5 -4.5t6.5 -18.5v-434zM398 667
q11 7 17 6t11 -10l16 -32q9 -17 -10 -29q-20 -14 -44 -23.5t-47 -9.5q-18 0 -34.5 5.5t-31 12t-28 12t-25.5 5.5q-26 0 -60 -21q-11 -7 -17 -6t-11 10l-16 32q-9 17 10 29q20 14 44 23.5t47 9.5q18 0 34.5 -5.5t31 -12t28 -12t25.5 -5.5q14 0 28.5 5t31.5 16z" />
    <glyph glyph-name="udieresis" unicode="&#xfc;" horiz-adv-x="556" 
d="M494 28q0 -16 -5.5 -22t-20.5 -6h-64q-22 0 -24 20l-1 25q-71 -57 -159 -57q-84 0 -121 49t-37 130v295q0 23 26 23h70q12 0 18.5 -4.5t6.5 -18.5v-274q0 -42 14.5 -67.5t59.5 -25.5q29 0 61 14t55 34v319q0 23 25 23h71q12 0 18.5 -4.5t6.5 -18.5v-434zM250 633
q0 -28 -20 -43t-41 -15q-22 0 -42 14.5t-20 42.5q0 29 19 44t43 15q23 0 42 -15t19 -43zM433 633q0 -28 -20 -43t-41 -15q-22 0 -42 14.5t-20 42.5q0 29 19 44t43 15q23 0 42 -15t19 -43z" />
    <glyph glyph-name="umacron" unicode="&#x16b;" horiz-adv-x="556" 
d="M494 28q0 -16 -5.5 -22t-20.5 -6h-64q-22 0 -24 20l-1 25q-71 -57 -159 -57q-84 0 -121 49t-37 130v295q0 23 26 23h70q12 0 18.5 -4.5t6.5 -18.5v-274q0 -42 14.5 -67.5t59.5 -25.5q29 0 61 14t55 34v319q0 23 25 23h71q12 0 18.5 -4.5t6.5 -18.5v-434zM400 667
q11 0 15.5 -4t4.5 -15v-38q0 -11 -4.5 -15t-15.5 -4h-241q-11 0 -15.5 4t-4.5 15v38q0 11 4.5 15t15.5 4h241z" />
    <glyph glyph-name="ubreve" unicode="&#x16d;" horiz-adv-x="556" 
d="M494 28q0 -16 -5.5 -22t-20.5 -6h-64q-22 0 -24 20l-1 25q-71 -57 -159 -57q-84 0 -121 49t-37 130v295q0 23 26 23h70q12 0 18.5 -4.5t6.5 -18.5v-274q0 -42 14.5 -67.5t59.5 -25.5q29 0 61 14t55 34v319q0 23 25 23h71q12 0 18.5 -4.5t6.5 -18.5v-434zM280 562
q-51 0 -89 27.5t-46 75.5q-4 24 19 24h31q15 0 19 -4t9 -14q16 -34 57 -34t57 34q5 10 9 14t19 4h31q23 0 19 -24q-8 -48 -45 -75.5t-90 -27.5z" />
    <glyph glyph-name="uring" unicode="&#x16f;" horiz-adv-x="556" 
d="M494 28q0 -16 -5.5 -22t-20.5 -6h-64q-22 0 -24 20l-1 25q-71 -57 -159 -57q-84 0 -121 49t-37 130v295q0 23 26 23h70q12 0 18.5 -4.5t6.5 -18.5v-274q0 -42 14.5 -67.5t59.5 -25.5q29 0 61 14t55 34v319q0 23 25 23h71q12 0 18.5 -4.5t6.5 -18.5v-434zM278 598
q12 0 19 8t7 19t-7 19t-19 8t-19 -8t-7 -19t7 -19t19 -8zM278 545q-35 0 -58.5 22.5t-23.5 57.5t23.5 57.5t58.5 22.5t58.5 -22.5t23.5 -57.5t-23.5 -57.5t-58.5 -22.5z" />
    <glyph glyph-name="uhungarumlaut" unicode="&#x171;" horiz-adv-x="556" 
d="M494 28q0 -16 -5.5 -22t-20.5 -6h-64q-22 0 -24 20l-1 25q-71 -57 -159 -57q-84 0 -121 49t-37 130v295q0 23 26 23h70q12 0 18.5 -4.5t6.5 -18.5v-274q0 -42 14.5 -67.5t59.5 -25.5q29 0 61 14t55 34v319q0 23 25 23h71q12 0 18.5 -4.5t6.5 -18.5v-434zM286 692
q8 -8 8.5 -14.5t-9.5 -13.5l-127 -100q-13 -11 -19.5 -10.5t-14.5 9.5l-14 17q-8 9 -7.5 14t9.5 15l109 111q11 11 19.5 13t16.5 -8zM466 692q8 -8 8.5 -14.5t-9.5 -13.5l-127 -100q-13 -11 -19.5 -10.5t-14.5 9.5l-14 17q-8 9 -7.5 14t9.5 15l109 111q11 11 19.5 13
t16.5 -8z" />
    <glyph glyph-name="uogonek" unicode="&#x173;" horiz-adv-x="557" 
d="M290 -121q0 18 7.5 36.5t20.5 35t29 30.5t34 23l-1 41q-71 -57 -159 -57q-84 0 -121 49t-37 130v295q0 23 26 23h70q12 0 18.5 -4.5t6.5 -18.5v-274q0 -42 14.5 -67.5t59.5 -25.5q29 0 61 14t55 34v319q0 23 25 23h71q12 0 18.5 -4.5t6.5 -18.5v-434q0 -12 -4.5 -17.5
t-24.5 -14.5q-39 -18 -65.5 -44.5t-26.5 -58.5q0 -19 12.5 -31t36.5 -12q12 0 23.5 2t25.5 6q8 2 11.5 0t5.5 -9l8 -27q2 -5 0.5 -10t-12.5 -10q-15 -7 -38.5 -11.5t-44.5 -4.5q-51 0 -81.5 25.5t-30.5 67.5z" />
    <glyph glyph-name="wgrave" unicode="&#x1e81;" horiz-adv-x="719" 
d="M690 485q22 0 15 -21l-134 -440q-4 -11 -10.5 -17.5t-20.5 -6.5h-66q-15 0 -22 6.5t-11 18.5l-83 285h-2l-82 -287q-7 -23 -32 -23h-67q-12 0 -20 6.5t-11 17.5l-131 440q-6 21 19 21h82q14 0 20 -5t8 -14l72 -316h1l93 315q5 20 27 20h56q23 0 27 -17l91 -320h1l75 315
q2 11 8.5 16.5t20.5 5.5h76zM460 615q11 -8 12 -14.5t-7 -17.5l-17 -25q-8 -11 -14.5 -12t-17.5 5l-152 84q-18 10 -6 28l30 45q8 11 15.5 12t19.5 -8z" />
    <glyph glyph-name="wacute" unicode="&#x1e83;" horiz-adv-x="719" 
d="M690 485q22 0 15 -21l-134 -440q-4 -11 -10.5 -17.5t-20.5 -6.5h-66q-15 0 -22 6.5t-11 18.5l-83 285h-2l-82 -287q-7 -23 -32 -23h-67q-12 0 -20 6.5t-11 17.5l-131 440q-6 21 19 21h82q14 0 20 -5t8 -14l72 -316h1l93 315q5 20 27 20h56q23 0 27 -17l91 -320h1l75 315
q2 11 8.5 16.5t20.5 5.5h76zM400 712q12 9 19.5 8t15.5 -12l30 -45q12 -18 -6 -28l-152 -84q-11 -6 -17.5 -5t-14.5 12l-17 25q-8 11 -7 17.5t12 14.5z" />
    <glyph glyph-name="wcircumflex" unicode="&#x175;" horiz-adv-x="719" 
d="M690 485q22 0 15 -21l-134 -440q-4 -11 -10.5 -17.5t-20.5 -6.5h-66q-15 0 -22 6.5t-11 18.5l-83 285h-2l-82 -287q-7 -23 -32 -23h-67q-12 0 -20 6.5t-11 17.5l-131 440q-6 21 19 21h82q14 0 20 -5t8 -14l72 -316h1l93 315q5 20 27 20h56q23 0 27 -17l91 -320h1l75 315
q2 11 8.5 16.5t20.5 5.5h76zM367 705q11 0 16.5 -2.5t12.5 -8.5l100 -91q14 -14 2 -26l-17 -18q-8 -8 -14.5 -8t-20.5 9l-87 57l-87 -57q-14 -9 -20.5 -9t-14.5 8l-17 18q-12 12 2 26l100 91q7 6 12.5 8.5t16.5 2.5h16z" />
    <glyph glyph-name="wdieresis" unicode="&#x1e85;" horiz-adv-x="719" 
d="M690 485q22 0 15 -21l-134 -440q-4 -11 -10.5 -17.5t-20.5 -6.5h-66q-15 0 -22 6.5t-11 18.5l-83 285h-2l-82 -287q-7 -23 -32 -23h-67q-12 0 -20 6.5t-11 17.5l-131 440q-6 21 19 21h82q14 0 20 -5t8 -14l72 -316h1l93 315q5 20 27 20h56q23 0 27 -17l91 -320h1l75 315
q2 11 8.5 16.5t20.5 5.5h76zM332 633q0 -28 -20 -43t-41 -15q-22 0 -42 14.5t-20 42.5q0 29 19 44t43 15q23 0 42 -15t19 -43zM515 633q0 -28 -20 -43t-41 -15q-22 0 -42 14.5t-20 42.5q0 29 19 44t43 15q23 0 42 -15t19 -43z" />
    <glyph glyph-name="ygrave" unicode="&#x1ef3;" horiz-adv-x="514" 
d="M485 485q24 0 14 -24l-197 -518q-17 -45 -36.5 -75.5t-45.5 -49.5t-60 -27.5t-79 -8.5q-14 0 -28 1t-25 4q-12 4 -14 10t0 16l7 52q3 18 18 18q8 0 19.5 -1.5t20.5 -1.5q47 0 70 17t38 52l19 45l-182 469q-4 9 -1 15.5t14 6.5h94q13 0 19 -5t9 -15l110 -328l105 325
q7 23 30 23h81zM352 615q11 -8 12 -14.5t-7 -17.5l-17 -25q-8 -11 -14.5 -12t-17.5 5l-152 84q-18 10 -6 28l30 45q8 11 15.5 12t19.5 -8z" />
    <glyph glyph-name="yacute" unicode="&#xfd;" horiz-adv-x="514" 
d="M485 485q24 0 14 -24l-197 -518q-17 -45 -36.5 -75.5t-45.5 -49.5t-60 -27.5t-79 -8.5q-14 0 -28 1t-25 4q-12 4 -14 10t0 16l7 52q3 18 18 18q8 0 19.5 -1.5t20.5 -1.5q47 0 70 17t38 52l19 45l-182 469q-4 9 -1 15.5t14 6.5h94q13 0 19 -5t9 -15l110 -328l105 325
q7 23 30 23h81zM312 712q12 9 19.5 8t15.5 -12l30 -45q12 -18 -6 -28l-152 -84q-11 -6 -17.5 -5t-14.5 12l-17 25q-8 11 -7 17.5t12 14.5z" />
    <glyph glyph-name="ycircumflex" unicode="&#x177;" horiz-adv-x="514" 
d="M485 485q24 0 14 -24l-197 -518q-17 -45 -36.5 -75.5t-45.5 -49.5t-60 -27.5t-79 -8.5q-14 0 -28 1t-25 4q-12 4 -14 10t0 16l7 52q3 18 18 18q8 0 19.5 -1.5t20.5 -1.5q47 0 70 17t38 52l19 45l-182 469q-4 9 -1 15.5t14 6.5h94q13 0 19 -5t9 -15l110 -328l105 325
q7 23 30 23h81zM274 705q11 0 16.5 -2.5t12.5 -8.5l100 -91q14 -14 2 -26l-17 -18q-8 -8 -14.5 -8t-20.5 9l-87 57l-87 -57q-14 -9 -20.5 -9t-14.5 8l-17 18q-12 12 2 26l100 91q7 6 12.5 8.5t16.5 2.5h16z" />
    <glyph glyph-name="ydieresis" unicode="&#xff;" horiz-adv-x="514" 
d="M485 485q24 0 14 -24l-197 -518q-17 -45 -36.5 -75.5t-45.5 -49.5t-60 -27.5t-79 -8.5q-14 0 -28 1t-25 4q-12 4 -14 10t0 16l7 52q3 18 18 18q8 0 19.5 -1.5t20.5 -1.5q47 0 70 17t38 52l19 45l-182 469q-4 9 -1 15.5t14 6.5h94q13 0 19 -5t9 -15l110 -328l105 325
q7 23 30 23h81zM240 633q0 -28 -20 -43t-41 -15q-22 0 -42 14.5t-20 42.5q0 29 19 44t43 15q23 0 42 -15t19 -43zM423 633q0 -28 -20 -43t-41 -15q-22 0 -42 14.5t-20 42.5q0 29 19 44t43 15q23 0 42 -15t19 -43z" />
    <glyph glyph-name="zacute" unicode="&#x17a;" horiz-adv-x="430" 
d="M406 19q0 -19 -19 -19h-339q-14 0 -19 6.5t-5 17.5v25q0 11 1.5 17.5t8.5 16.5l216 318v1h-185q-14 0 -18.5 5t-4.5 21v36q0 21 19 21h316q14 0 18.5 -6.5t4.5 -14.5v-28q0 -9 -2 -17t-8 -16l-220 -318v-2h216q20 0 20 -17v-47zM280 712q12 9 19.5 8t15.5 -12l30 -45
q12 -18 -6 -28l-152 -84q-11 -6 -17.5 -5t-14.5 12l-17 25q-8 11 -7 17.5t12 14.5z" />
    <glyph glyph-name="zcaron" unicode="&#x17e;" horiz-adv-x="430" 
d="M406 19q0 -19 -19 -19h-339q-14 0 -19 6.5t-5 17.5v25q0 11 1.5 17.5t8.5 16.5l216 318v1h-185q-14 0 -18.5 5t-4.5 21v36q0 21 19 21h316q14 0 18.5 -6.5t4.5 -14.5v-28q0 -9 -2 -17t-8 -16l-220 -318v-2h216q20 0 20 -17v-47zM217 551q-11 0 -16.5 2.5t-12.5 8.5
l-100 91q-14 14 -2 26l17 18q8 8 14.5 8t20.5 -9l87 -57l87 57q14 9 20.5 9t14.5 -8l17 -18q12 -12 -2 -26l-100 -91q-7 -6 -12.5 -8.5t-16.5 -2.5h-16z" />
    <glyph glyph-name="zdotaccent" unicode="&#x17c;" horiz-adv-x="430" 
d="M406 19q0 -19 -19 -19h-339q-14 0 -19 6.5t-5 17.5v25q0 11 1.5 17.5t8.5 16.5l216 318v1h-185q-14 0 -18.5 5t-4.5 21v36q0 21 19 21h316q14 0 18.5 -6.5t4.5 -14.5v-28q0 -9 -2 -17t-8 -16l-220 -318v-2h216q20 0 20 -17v-47zM288 630q0 -29 -20 -45t-43 -16t-44 15.5
t-21 44.5t20.5 45t44.5 16t43.5 -15.5t19.5 -44.5z" />
    <glyph glyph-name="apple" unicode="&#xf8ff;" horiz-adv-x="591" 
d="M230 202v65h196v66h-196v195h261v-65h-196v-65h196v-196h-261zM165 594v-529h73v-65h-138v659h391v-65h-326z" />
    </font>
</defs>
</svg>
